<svg width="215" height="211" viewBox="0 0 215 211" fill="none" xmlns="http://www.w3.org/2000/svg">
<path d="M109.867 14C108.667 17.0667 111.867 20 116.4 20C132.134 20 154.934 30.9333 169.334 45.3334C212.267 88.2667 199.067 158.8 143.334 184.8C130.667 190.667 120.4 192.4 103.734 191.733C80.5335 190.667 62.9335 182.933 46.6669 166.667C32.8002 152.667 24.0002 134.8 21.8669 116.133C20.9335 107.067 18.6669 104 15.2002 106.8C10.6669 110.533 17.0669 137.6 26.2669 153.2C38.5335 173.867 56.0002 187.733 80.6669 196.133C88.8002 198.933 92.4002 199.333 108 199.2C123.6 199.2 127.334 198.667 136.267 195.733C151.867 190.533 163.467 183.467 174.8 172.133C210 136.933 211.867 81.7334 179.334 43.6C172.267 35.4667 158.667 25.2 148.4 20.4C132.134 12.9333 111.6 9.46669 109.867 14Z" fill="#9D3207"/>
<path d="M110.667 28.6667C108.133 31.7333 110.133 34.4 115.6 35.3333C134.133 38.5333 145.733 44.1333 157.467 55.8667C194 92.4 181.867 151.467 133.733 171.733C119.467 177.733 99.8666 177.867 83.6 172.133C76.8 169.867 67.4666 164.267 58.2666 157.067C54.9333 154.4 54.4 154.267 52.5333 156.267C49.8666 158.933 50.9333 160.933 58.5333 167.333C72.4 178.8 89.2 184.533 108.667 184.4C131.6 184.267 151.067 175.867 166.533 159.333C183.2 141.467 190.533 116.533 186.133 92.4C181.067 63.6 159.067 38.6667 132 30.6667C118.933 26.9333 112.667 26.2667 110.667 28.6667Z" fill="#9D3207"/>
<path d="M110.8 44.5333C107.867 48 110 50.1333 117.867 51.7333C135.467 55.3333 149.6 66 157.2 81.4667C173.734 115.2 153.067 154.667 116 160.4C106.534 161.867 103.6 164.133 106.934 167.6C109.6 170.133 123.867 167.467 135.334 162.133C176.4 143.2 182.667 84.6667 146.667 56.4C134.534 46.9333 114.4 40.2667 110.8 44.5333Z" fill="#9D3207"/>
<path d="M101.6 66.9334C88.5337 68.9334 78.9337 76 72.267 88.6667C69.3337 94.2667 68.667 97.0667 68.667 106C68.667 114.933 69.3337 117.733 72.267 123.467C80.0003 138.133 94.0003 146 110.4 145.067C143.734 143.2 159.867 104.667 137.867 80.1334C127.734 68.9334 116.4 64.8 101.6 66.9334Z" fill="#9D3207"/>
</svg>
