<svg width="13" height="18" viewBox="0 0 13 18" fill="none" xmlns="http://www.w3.org/2000/svg">
<path d="M6.44345 1.47534C5.82468 1.47534 5.23124 1.69752 4.7937 2.09301C4.35616 2.48849 4.11035 3.02489 4.11035 3.58419V9.20777C4.11035 9.76707 4.35616 10.3035 4.7937 10.6989C5.23124 11.0944 5.82468 11.3166 6.44345 11.3166C7.06223 11.3166 7.65566 11.0944 8.0932 10.6989C8.53075 10.3035 8.77655 9.76707 8.77655 9.20777V3.58419C8.77655 3.02489 8.53075 2.48849 8.0932 2.09301C7.65566 1.69752 7.06223 1.47534 6.44345 1.47534V1.47534Z" stroke="white" stroke-width="2" stroke-linecap="round" stroke-linejoin="round"/>
<path d="M11.8878 7.80188V9.20778C11.8878 10.5128 11.3143 11.7644 10.2933 12.6872C9.27241 13.61 7.88773 14.1284 6.44391 14.1284C5.0001 14.1284 3.61542 13.61 2.59449 12.6872C1.57355 11.7644 1 10.5128 1 9.20778V7.80188" stroke="white" stroke-width="2" stroke-linecap="round" stroke-linejoin="round"/>
<path d="M6.44336 14.1285V16.9403" stroke="white" stroke-width="2" stroke-linecap="round" stroke-linejoin="round"/>
<path d="M3.33301 16.9402H9.55463" stroke="white" stroke-width="2" stroke-linecap="round" stroke-linejoin="round"/>
</svg>
