<svg width="1372" height="585" viewBox="0 0 1372 585" fill="none" xmlns="http://www.w3.org/2000/svg">
<rect width="1372" height="585" fill="#F3F3DC"/>
<path d="M336.988 30.3038C334.388 36.9418 341.32 43.2911 351.14 43.2911C385.221 43.2911 434.609 66.957 465.801 98.1266C558.801 191.058 530.208 343.732 409.482 400.01C382.044 412.709 359.805 416.461 323.702 415.018C273.447 412.709 235.323 395.97 200.087 360.76C170.05 330.456 150.988 291.782 146.367 251.377C144.345 231.752 139.435 225.114 131.926 231.175C122.106 239.256 135.969 297.843 155.898 331.61C182.469 376.344 220.305 406.36 273.736 424.542C291.354 430.603 299.152 431.468 332.944 431.18C366.736 431.18 374.823 430.025 394.174 423.676C427.966 412.42 453.093 397.124 477.643 372.592C553.892 296.4 557.935 176.916 487.463 94.3747C472.155 76.7696 442.696 54.5468 420.457 44.157C385.221 27.9949 340.742 20.4911 336.988 30.3038Z" fill="#9D3207"/>
<path d="M338.721 62.0506C333.233 68.6885 337.566 74.4607 349.407 76.4809C389.553 83.4075 414.681 95.5291 440.097 120.927C519.233 200.005 492.951 327.858 388.687 371.727C357.783 384.714 315.326 385.003 280.09 372.592C265.361 367.686 245.143 355.565 225.215 339.98C217.994 334.208 216.839 333.919 212.795 338.248C207.019 344.02 209.33 348.349 225.792 362.203C255.83 387.023 292.221 399.433 334.389 399.144C384.066 398.856 426.233 380.673 459.736 344.886C495.839 306.213 511.724 252.243 502.193 200.005C491.218 137.666 443.563 83.6961 384.932 66.3797C356.628 58.2987 343.053 56.8556 338.721 62.0506Z" fill="#9D3207"/>
<path d="M339.01 96.3949C332.656 103.899 337.277 108.516 354.317 111.98C392.441 119.772 423.056 142.861 439.519 176.339C475.333 249.357 430.566 334.785 350.274 347.195C329.767 350.37 323.413 355.276 330.634 362.78C336.41 368.263 367.314 362.491 392.153 350.947C481.109 309.965 494.684 183.266 416.702 122.081C390.42 101.59 346.808 87.1595 339.01 96.3949Z" fill="#9D3207"/>
<path d="M319.081 144.881C290.777 149.21 269.982 164.506 255.541 191.924C249.187 204.046 247.743 210.106 247.743 229.443C247.743 248.78 249.187 254.841 255.541 267.251C272.292 298.997 302.618 316.025 338.143 314.005C410.348 309.965 445.295 226.557 397.64 173.453C375.69 149.21 351.14 140.263 319.081 144.881Z" fill="#9D3207"/>
<path d="M58.6364 552H38.1818L61.2273 482.182H87.1364L110.182 552H89.7273L74.4545 501.409H73.9091L58.6364 552ZM54.8182 524.455H93.2727V538.636H54.8182V524.455ZM116.906 552V482.182H147.043C152.224 482.182 156.759 483.125 160.645 485.011C164.531 486.898 167.554 489.614 169.713 493.159C171.872 496.705 172.952 500.955 172.952 505.909C172.952 510.909 171.838 515.125 169.611 518.557C167.406 521.989 164.304 524.58 160.304 526.33C156.327 528.08 151.679 528.955 146.361 528.955H128.361V514.227H142.543C144.77 514.227 146.668 513.955 148.236 513.409C149.827 512.841 151.043 511.943 151.884 510.716C152.747 509.489 153.179 507.886 153.179 505.909C153.179 503.909 152.747 502.284 151.884 501.034C151.043 499.761 149.827 498.83 148.236 498.239C146.668 497.625 144.77 497.318 142.543 497.318H135.861V552H116.906ZM157.815 519.955L175.27 552H154.679L137.634 519.955H157.815ZM179.122 497.455V482.182H239.804V497.455H218.804V552H200.122V497.455H179.122ZM246.938 552V482.182H297.256V497.455H265.892V509.455H294.665V524.727H265.892V536.727H297.119V552H246.938ZM344.293 504C344.111 501.727 343.259 499.955 341.736 498.682C340.236 497.409 337.952 496.773 334.884 496.773C332.929 496.773 331.327 497.011 330.077 497.489C328.849 497.943 327.94 498.568 327.349 499.364C326.759 500.159 326.452 501.068 326.429 502.091C326.384 502.932 326.531 503.693 326.872 504.375C327.236 505.034 327.804 505.636 328.577 506.182C329.349 506.705 330.338 507.182 331.543 507.614C332.747 508.045 334.179 508.432 335.838 508.773L341.565 510C345.429 510.818 348.736 511.898 351.486 513.239C354.236 514.58 356.486 516.159 358.236 517.977C359.986 519.773 361.27 521.795 362.088 524.045C362.929 526.295 363.361 528.75 363.384 531.409C363.361 536 362.213 539.886 359.94 543.068C357.668 546.25 354.418 548.67 350.19 550.33C345.986 551.989 340.929 552.818 335.02 552.818C328.952 552.818 323.656 551.92 319.134 550.125C314.634 548.33 311.134 545.568 308.634 541.841C306.156 538.091 304.906 533.295 304.884 527.455H322.884C322.997 529.591 323.531 531.386 324.486 532.841C325.44 534.295 326.781 535.398 328.509 536.148C330.259 536.898 332.338 537.273 334.747 537.273C336.77 537.273 338.463 537.023 339.827 536.523C341.19 536.023 342.224 535.33 342.929 534.443C343.634 533.557 343.997 532.545 344.02 531.409C343.997 530.341 343.645 529.409 342.963 528.614C342.304 527.795 341.213 527.068 339.69 526.432C338.168 525.773 336.111 525.159 333.52 524.591L326.565 523.091C320.384 521.75 315.509 519.511 311.94 516.375C308.395 513.216 306.634 508.909 306.656 503.455C306.634 499.023 307.815 495.148 310.202 491.83C312.611 488.489 315.94 485.886 320.19 484.023C324.463 482.159 329.361 481.227 334.884 481.227C340.52 481.227 345.395 482.17 349.509 484.057C353.622 485.943 356.793 488.602 359.02 492.034C361.27 495.443 362.406 499.432 362.429 504H344.293ZM386.011 552H365.557L388.602 482.182H414.511L437.557 552H417.102L401.83 501.409H401.284L386.011 552ZM382.193 524.455H420.648V538.636H382.193V524.455ZM504.69 482.182V552H488.872L463.645 515.318H463.236V552H444.281V482.182H460.372L485.19 518.727H485.736V482.182H504.69ZM532.611 482.182V552H513.656V482.182H532.611ZM559.73 552H539.276L562.321 482.182H588.23L611.276 552H590.821L575.548 501.409H575.003L559.73 552ZM555.912 524.455H594.366V538.636H555.912V524.455Z" fill="#9D3207"/>
<path d="M658.08 191.273V184.909H683.364V191.273H674.614V214H666.83V191.273H658.08ZM684.184 214V192.182H691.798V196.33H692.025C692.423 194.795 693.052 193.673 693.914 192.963C694.785 192.253 695.803 191.898 696.968 191.898C697.309 191.898 697.645 191.926 697.977 191.983C698.317 192.03 698.644 192.101 698.957 192.196V198.886C698.568 198.754 698.09 198.654 697.522 198.588C696.954 198.522 696.466 198.489 696.059 198.489C695.292 198.489 694.601 198.664 693.985 199.014C693.379 199.355 692.901 199.838 692.55 200.463C692.2 201.079 692.025 201.803 692.025 202.636V214H684.184ZM706.592 214.341C705.2 214.341 703.969 214.114 702.898 213.659C701.838 213.195 701.004 212.494 700.398 211.557C699.792 210.619 699.489 209.426 699.489 207.977C699.489 206.784 699.693 205.766 700.1 204.923C700.507 204.071 701.076 203.375 701.805 202.835C702.534 202.295 703.381 201.884 704.347 201.599C705.323 201.315 706.374 201.131 707.501 201.045C708.722 200.951 709.702 200.837 710.441 200.705C711.189 200.562 711.729 200.368 712.06 200.122C712.392 199.866 712.558 199.53 712.558 199.114V199.057C712.558 198.489 712.34 198.053 711.904 197.75C711.469 197.447 710.91 197.295 710.228 197.295C709.48 197.295 708.869 197.461 708.396 197.793C707.932 198.115 707.652 198.612 707.558 199.284H700.342C700.436 197.958 700.858 196.737 701.606 195.619C702.363 194.492 703.467 193.593 704.915 192.92C706.364 192.239 708.173 191.898 710.342 191.898C711.904 191.898 713.306 192.082 714.546 192.452C715.787 192.812 716.843 193.318 717.714 193.972C718.585 194.616 719.248 195.373 719.702 196.244C720.166 197.106 720.398 198.044 720.398 199.057V214H713.069V210.932H712.898C712.463 211.746 711.933 212.404 711.308 212.906C710.692 213.408 709.987 213.773 709.191 214C708.405 214.227 707.539 214.341 706.592 214.341ZM709.148 209.398C709.745 209.398 710.304 209.275 710.825 209.028C711.355 208.782 711.786 208.427 712.117 207.963C712.449 207.499 712.614 206.936 712.614 206.273V204.455C712.406 204.54 712.183 204.62 711.947 204.696C711.719 204.772 711.473 204.843 711.208 204.909C710.952 204.975 710.678 205.037 710.384 205.094C710.1 205.151 709.802 205.203 709.489 205.25C708.883 205.345 708.386 205.501 707.998 205.719C707.619 205.927 707.335 206.188 707.146 206.5C706.966 206.803 706.876 207.144 706.876 207.523C706.876 208.129 707.089 208.593 707.515 208.915C707.941 209.237 708.486 209.398 709.148 209.398ZM731.986 201.727V214H724.145V192.182H731.588V196.33H731.815C732.289 194.947 733.122 193.863 734.315 193.077C735.518 192.291 736.92 191.898 738.52 191.898C740.063 191.898 741.403 192.253 742.54 192.963C743.686 193.664 744.571 194.63 745.196 195.861C745.83 197.092 746.143 198.498 746.134 200.08V214H738.293V201.727C738.302 200.648 738.027 199.8 737.469 199.185C736.92 198.569 736.152 198.261 735.168 198.261C734.524 198.261 733.96 198.403 733.477 198.688C733.004 198.962 732.639 199.36 732.384 199.881C732.128 200.392 731.995 201.008 731.986 201.727ZM769.947 199.284H762.732C762.694 198.839 762.537 198.455 762.263 198.134C761.988 197.812 761.633 197.565 761.197 197.395C760.771 197.215 760.298 197.125 759.777 197.125C759.105 197.125 758.527 197.248 758.044 197.494C757.561 197.741 757.324 198.091 757.334 198.545C757.324 198.867 757.462 199.166 757.746 199.44C758.039 199.715 758.603 199.928 759.436 200.08L763.868 200.875C766.103 201.282 767.765 201.969 768.854 202.935C769.952 203.891 770.506 205.174 770.516 206.784C770.506 208.337 770.042 209.687 769.124 210.832C768.214 211.969 766.969 212.849 765.388 213.474C763.816 214.09 762.021 214.398 760.004 214.398C756.671 214.398 754.062 213.716 752.178 212.352C750.303 210.989 749.256 209.189 749.038 206.955H756.822C756.927 207.646 757.268 208.181 757.845 208.56C758.432 208.929 759.171 209.114 760.061 209.114C760.781 209.114 761.373 208.991 761.837 208.744C762.31 208.498 762.552 208.148 762.561 207.693C762.552 207.277 762.343 206.945 761.936 206.699C761.538 206.453 760.913 206.254 760.061 206.102L756.197 205.42C753.972 205.032 752.305 204.294 751.197 203.205C750.089 202.116 749.54 200.714 749.55 199C749.54 197.485 749.938 196.202 750.743 195.151C751.557 194.09 752.717 193.285 754.223 192.736C755.738 192.177 757.533 191.898 759.607 191.898C762.76 191.898 765.246 192.551 767.064 193.858C768.892 195.165 769.853 196.973 769.947 199.284ZM786.588 192.182V197.864H771.986V192.182H786.588ZM774.77 214V191.557C774.77 189.758 775.092 188.266 775.736 187.082C776.38 185.899 777.289 185.013 778.463 184.426C779.637 183.839 781.02 183.545 782.611 183.545C783.605 183.545 784.571 183.621 785.509 183.773C786.455 183.924 787.156 184.057 787.611 184.17L786.474 189.795C786.19 189.71 785.859 189.644 785.48 189.597C785.101 189.54 784.77 189.511 784.486 189.511C783.747 189.511 783.25 189.668 782.994 189.98C782.739 190.293 782.611 190.705 782.611 191.216V214H774.77ZM799.461 214.398C797.094 214.398 795.067 213.929 793.381 212.991C791.696 212.045 790.403 210.728 789.504 209.043C788.604 207.348 788.154 205.383 788.154 203.148C788.154 200.913 788.604 198.953 789.504 197.267C790.403 195.572 791.696 194.256 793.381 193.318C795.067 192.371 797.094 191.898 799.461 191.898C801.828 191.898 803.855 192.371 805.54 193.318C807.226 194.256 808.519 195.572 809.418 197.267C810.318 198.953 810.768 200.913 810.768 203.148C810.768 205.383 810.318 207.348 809.418 209.043C808.519 210.728 807.226 212.045 805.54 212.991C803.855 213.929 801.828 214.398 799.461 214.398ZM799.518 208.602C800.181 208.602 800.754 208.38 801.237 207.935C801.719 207.49 802.094 206.855 802.359 206.031C802.624 205.207 802.756 204.227 802.756 203.091C802.756 201.945 802.624 200.965 802.359 200.151C802.094 199.327 801.719 198.692 801.237 198.247C800.754 197.802 800.181 197.58 799.518 197.58C798.817 197.58 798.216 197.802 797.714 198.247C797.212 198.692 796.828 199.327 796.563 200.151C796.298 200.965 796.165 201.945 796.165 203.091C796.165 204.227 796.298 205.207 796.563 206.031C796.828 206.855 797.212 207.49 797.714 207.935C798.216 208.38 798.817 208.602 799.518 208.602ZM813.95 214V192.182H821.563V196.33H821.79C822.188 194.795 822.818 193.673 823.68 192.963C824.551 192.253 825.569 191.898 826.734 191.898C827.075 191.898 827.411 191.926 827.742 191.983C828.083 192.03 828.41 192.101 828.722 192.196V198.886C828.334 198.754 827.856 198.654 827.288 198.588C826.719 198.522 826.232 198.489 825.825 198.489C825.058 198.489 824.366 198.664 823.751 199.014C823.145 199.355 822.666 199.838 822.316 200.463C821.966 201.079 821.79 201.803 821.79 202.636V214H813.95ZM831.293 214V192.182H838.737V196.33H838.964C839.418 194.966 840.195 193.886 841.293 193.091C842.392 192.295 843.699 191.898 845.214 191.898C846.748 191.898 848.069 192.305 849.177 193.119C850.285 193.924 850.952 194.994 851.18 196.33H851.407C851.776 194.994 852.562 193.924 853.765 193.119C854.968 192.305 856.379 191.898 857.998 191.898C860.091 191.898 861.786 192.57 863.083 193.915C864.39 195.259 865.043 197.049 865.043 199.284V214H857.202V201.273C857.202 200.316 856.961 199.568 856.478 199.028C855.995 198.479 855.346 198.205 854.532 198.205C853.727 198.205 853.088 198.479 852.614 199.028C852.15 199.568 851.918 200.316 851.918 201.273V214H844.418V201.273C844.418 200.316 844.177 199.568 843.694 199.028C843.211 198.479 842.562 198.205 841.748 198.205C841.208 198.205 840.744 198.328 840.356 198.574C839.968 198.82 839.665 199.175 839.447 199.639C839.238 200.094 839.134 200.638 839.134 201.273V214H831.293ZM874.99 214.341C873.598 214.341 872.367 214.114 871.297 213.659C870.236 213.195 869.403 212.494 868.797 211.557C868.191 210.619 867.888 209.426 867.888 207.977C867.888 206.784 868.091 205.766 868.499 204.923C868.906 204.071 869.474 203.375 870.203 202.835C870.932 202.295 871.78 201.884 872.746 201.599C873.721 201.315 874.772 201.131 875.899 201.045C877.121 200.951 878.101 200.837 878.839 200.705C879.588 200.562 880.127 200.368 880.459 200.122C880.79 199.866 880.956 199.53 880.956 199.114V199.057C880.956 198.489 880.738 198.053 880.303 197.75C879.867 197.447 879.308 197.295 878.626 197.295C877.878 197.295 877.268 197.461 876.794 197.793C876.33 198.115 876.051 198.612 875.956 199.284H868.74C868.835 197.958 869.256 196.737 870.004 195.619C870.762 194.492 871.865 193.593 873.314 192.92C874.763 192.239 876.571 191.898 878.74 191.898C880.303 191.898 881.704 192.082 882.945 192.452C884.185 192.812 885.241 193.318 886.112 193.972C886.983 194.616 887.646 195.373 888.101 196.244C888.565 197.106 888.797 198.044 888.797 199.057V214H881.467V210.932H881.297C880.861 211.746 880.331 212.404 879.706 212.906C879.09 213.408 878.385 213.773 877.589 214C876.804 214.227 875.937 214.341 874.99 214.341ZM877.547 209.398C878.143 209.398 878.702 209.275 879.223 209.028C879.753 208.782 880.184 208.427 880.516 207.963C880.847 207.499 881.013 206.936 881.013 206.273V204.455C880.804 204.54 880.582 204.62 880.345 204.696C880.118 204.772 879.872 204.843 879.607 204.909C879.351 204.975 879.076 205.037 878.783 205.094C878.499 205.151 878.2 205.203 877.888 205.25C877.282 205.345 876.785 205.501 876.396 205.719C876.018 205.927 875.733 206.188 875.544 206.5C875.364 206.803 875.274 207.144 875.274 207.523C875.274 208.129 875.487 208.593 875.913 208.915C876.339 209.237 876.884 209.398 877.547 209.398ZM900.384 201.727V214H892.543V192.182H899.987V196.33H900.214C900.687 194.947 901.521 193.863 902.714 193.077C903.916 192.291 905.318 191.898 906.918 191.898C908.462 191.898 909.802 192.253 910.938 192.963C912.084 193.664 912.969 194.63 913.594 195.861C914.229 197.092 914.541 198.498 914.532 200.08V214H906.691V201.727C906.701 200.648 906.426 199.8 905.867 199.185C905.318 198.569 904.551 198.261 903.566 198.261C902.922 198.261 902.359 198.403 901.876 198.688C901.402 198.962 901.038 199.36 900.782 199.881C900.526 200.392 900.394 201.008 900.384 201.727ZM926.3 214.284C924.747 214.284 923.317 213.877 922.011 213.062C920.713 212.248 919.672 211.012 918.886 209.355C918.109 207.698 917.721 205.61 917.721 203.091C917.721 200.458 918.128 198.318 918.942 196.67C919.766 195.023 920.827 193.815 922.124 193.048C923.431 192.281 924.804 191.898 926.244 191.898C927.323 191.898 928.27 192.087 929.085 192.466C929.899 192.835 930.581 193.332 931.13 193.957C931.679 194.573 932.096 195.25 932.38 195.989H932.494V184.909H940.335V214H932.55V210.42H932.38C932.077 211.159 931.641 211.822 931.073 212.409C930.514 212.987 929.833 213.446 929.028 213.787C928.232 214.118 927.323 214.284 926.3 214.284ZM929.198 208.261C929.918 208.261 930.533 208.053 931.045 207.636C931.566 207.21 931.963 206.614 932.238 205.847C932.522 205.07 932.664 204.152 932.664 203.091C932.664 202.011 932.522 201.088 932.238 200.321C931.963 199.545 931.566 198.953 931.045 198.545C930.533 198.129 929.918 197.92 929.198 197.92C928.478 197.92 927.863 198.129 927.352 198.545C926.85 198.953 926.461 199.545 926.187 200.321C925.922 201.088 925.789 202.011 925.789 203.091C925.789 204.17 925.922 205.098 926.187 205.875C926.461 206.642 926.85 207.234 927.352 207.651C927.863 208.058 928.478 208.261 929.198 208.261ZM954.695 214.398C952.328 214.398 950.301 213.929 948.616 212.991C946.93 212.045 945.638 210.728 944.738 209.043C943.838 207.348 943.388 205.383 943.388 203.148C943.388 200.913 943.838 198.953 944.738 197.267C945.638 195.572 946.93 194.256 948.616 193.318C950.301 192.371 952.328 191.898 954.695 191.898C957.063 191.898 959.089 192.371 960.775 193.318C962.46 194.256 963.753 195.572 964.653 197.267C965.552 198.953 966.002 200.913 966.002 203.148C966.002 205.383 965.552 207.348 964.653 209.043C963.753 210.728 962.46 212.045 960.775 212.991C959.089 213.929 957.063 214.398 954.695 214.398ZM954.752 208.602C955.415 208.602 955.988 208.38 956.471 207.935C956.954 207.49 957.328 206.855 957.593 206.031C957.858 205.207 957.991 204.227 957.991 203.091C957.991 201.945 957.858 200.965 957.593 200.151C957.328 199.327 956.954 198.692 956.471 198.247C955.988 197.802 955.415 197.58 954.752 197.58C954.051 197.58 953.45 197.802 952.948 198.247C952.446 198.692 952.063 199.327 951.798 200.151C951.532 200.965 951.4 201.945 951.4 203.091C951.4 204.227 951.532 205.207 951.798 206.031C952.063 206.855 952.446 207.49 952.948 207.935C953.45 208.38 954.051 208.602 954.752 208.602ZM806.876 260.023L806.762 261.614C806.667 262.977 806.44 264.284 806.08 265.534C805.73 266.784 805.356 267.892 804.958 268.858C804.57 269.824 804.262 270.572 804.035 271.102H799.205C799.357 270.572 799.57 269.805 799.844 268.801C800.129 267.807 800.384 266.68 800.612 265.42C800.848 264.17 800.967 262.902 800.967 261.614V260.023H806.876ZM831.847 254.455V242.182H839.688V264H832.245V259.852H832.018C831.544 261.244 830.716 262.333 829.532 263.119C828.348 263.896 826.942 264.284 825.313 264.284C823.789 264.284 822.453 263.934 821.308 263.233C820.171 262.532 819.286 261.566 818.651 260.335C818.026 259.104 817.709 257.693 817.7 256.102V242.182H825.54V254.455C825.55 255.534 825.825 256.382 826.364 256.997C826.914 257.613 827.681 257.92 828.665 257.92C829.319 257.92 829.882 257.783 830.356 257.509C830.839 257.224 831.208 256.827 831.464 256.315C831.729 255.795 831.857 255.174 831.847 254.455ZM843.676 264V242.182H851.119V246.33H851.347C851.801 244.966 852.578 243.886 853.676 243.091C854.775 242.295 856.081 241.898 857.597 241.898C859.131 241.898 860.452 242.305 861.56 243.119C862.668 243.924 863.335 244.994 863.562 246.33H863.79C864.159 244.994 864.945 243.924 866.148 243.119C867.35 242.305 868.761 241.898 870.381 241.898C872.473 241.898 874.169 242.57 875.466 243.915C876.773 245.259 877.426 247.049 877.426 249.284V264H869.585V251.273C869.585 250.316 869.344 249.568 868.861 249.028C868.378 248.479 867.729 248.205 866.915 248.205C866.11 248.205 865.471 248.479 864.997 249.028C864.533 249.568 864.301 250.316 864.301 251.273V264H856.801V251.273C856.801 250.316 856.56 249.568 856.077 249.028C855.594 248.479 854.945 248.205 854.131 248.205C853.591 248.205 853.127 248.328 852.739 248.574C852.35 248.82 852.047 249.175 851.83 249.639C851.621 250.094 851.517 250.638 851.517 251.273V264H843.676ZM887.373 264.341C885.981 264.341 884.75 264.114 883.68 263.659C882.619 263.195 881.786 262.494 881.18 261.557C880.574 260.619 880.271 259.426 880.271 257.977C880.271 256.784 880.474 255.766 880.881 254.923C881.289 254.071 881.857 253.375 882.586 252.835C883.315 252.295 884.163 251.884 885.129 251.599C886.104 251.315 887.155 251.131 888.282 251.045C889.504 250.951 890.484 250.837 891.222 250.705C891.97 250.562 892.51 250.368 892.842 250.122C893.173 249.866 893.339 249.53 893.339 249.114V249.057C893.339 248.489 893.121 248.053 892.685 247.75C892.25 247.447 891.691 247.295 891.009 247.295C890.261 247.295 889.65 247.461 889.177 247.793C888.713 248.115 888.433 248.612 888.339 249.284H881.123C881.218 247.958 881.639 246.737 882.387 245.619C883.145 244.492 884.248 243.593 885.697 242.92C887.146 242.239 888.954 241.898 891.123 241.898C892.685 241.898 894.087 242.082 895.327 242.452C896.568 242.812 897.624 243.318 898.495 243.972C899.366 244.616 900.029 245.373 900.484 246.244C900.948 247.106 901.18 248.044 901.18 249.057V264H893.85V260.932H893.68C893.244 261.746 892.714 262.404 892.089 262.906C891.473 263.408 890.768 263.773 889.972 264C889.186 264.227 888.32 264.341 887.373 264.341ZM889.93 259.398C890.526 259.398 891.085 259.275 891.606 259.028C892.136 258.782 892.567 258.427 892.898 257.963C893.23 257.499 893.396 256.936 893.396 256.273V254.455C893.187 254.54 892.965 254.62 892.728 254.696C892.501 254.772 892.254 254.843 891.989 254.909C891.734 254.975 891.459 255.037 891.165 255.094C890.881 255.151 890.583 255.203 890.271 255.25C889.665 255.345 889.167 255.501 888.779 255.719C888.4 255.927 888.116 256.188 887.927 256.5C887.747 256.803 887.657 257.144 887.657 257.523C887.657 258.129 887.87 258.593 888.296 258.915C888.722 259.237 889.267 259.398 889.93 259.398ZM912.895 272.182V242.182H920.679V245.989H920.849C921.134 245.25 921.55 244.573 922.099 243.957C922.649 243.332 923.33 242.835 924.145 242.466C924.959 242.087 925.906 241.898 926.986 241.898C928.425 241.898 929.794 242.281 931.091 243.048C932.398 243.815 933.458 245.023 934.273 246.67C935.097 248.318 935.509 250.458 935.509 253.091C935.509 255.61 935.116 257.698 934.33 259.355C933.553 261.012 932.511 262.248 931.205 263.062C929.907 263.877 928.482 264.284 926.929 264.284C925.906 264.284 924.992 264.118 924.188 263.787C923.392 263.446 922.71 262.987 922.142 262.409C921.583 261.822 921.152 261.159 920.849 260.42H920.736V272.182H912.895ZM920.565 253.091C920.565 254.152 920.703 255.07 920.977 255.847C921.261 256.614 921.659 257.21 922.17 257.636C922.691 258.053 923.312 258.261 924.031 258.261C924.751 258.261 925.362 258.058 925.864 257.651C926.375 257.234 926.763 256.642 927.028 255.875C927.303 255.098 927.44 254.17 927.44 253.091C927.44 252.011 927.303 251.088 927.028 250.321C926.763 249.545 926.375 248.953 925.864 248.545C925.362 248.129 924.751 247.92 924.031 247.92C923.312 247.92 922.691 248.129 922.17 248.545C921.659 248.953 921.261 249.545 920.977 250.321C920.703 251.088 920.565 252.011 920.565 253.091ZM938.793 264V242.182H946.634V264H938.793ZM942.714 239.909C941.653 239.909 940.744 239.559 939.987 238.858C939.229 238.157 938.85 237.314 938.85 236.33C938.85 235.345 939.229 234.502 939.987 233.801C940.744 233.1 941.653 232.75 942.714 232.75C943.784 232.75 944.693 233.1 945.441 233.801C946.199 234.502 946.577 235.345 946.577 236.33C946.577 237.314 946.199 238.157 945.441 238.858C944.693 239.559 943.784 239.909 942.714 239.909ZM958.47 251.727V264H950.629V242.182H958.072V246.33H958.3C958.773 244.947 959.607 243.863 960.8 243.077C962.002 242.291 963.404 241.898 965.004 241.898C966.548 241.898 967.888 242.253 969.024 242.963C970.17 243.664 971.055 244.63 971.68 245.861C972.315 247.092 972.627 248.498 972.618 250.08V264H964.777V251.727C964.786 250.648 964.512 249.8 963.953 249.185C963.404 248.569 962.637 248.261 961.652 248.261C961.008 248.261 960.445 248.403 959.962 248.688C959.488 248.962 959.124 249.36 958.868 249.881C958.612 250.392 958.48 251.008 958.47 251.727ZM987 264.398C984.633 264.398 982.606 263.929 980.92 262.991C979.235 262.045 977.942 260.728 977.043 259.043C976.143 257.348 975.693 255.383 975.693 253.148C975.693 250.913 976.143 248.953 977.043 247.267C977.942 245.572 979.235 244.256 980.92 243.318C982.606 242.371 984.633 241.898 987 241.898C989.14 241.898 990.991 242.286 992.554 243.062C994.126 243.83 995.343 244.919 996.205 246.33C997.066 247.731 997.502 249.379 997.511 251.273H990.239C990.134 250.127 989.803 249.256 989.244 248.659C988.695 248.053 987.985 247.75 987.114 247.75C986.432 247.75 985.835 247.949 985.324 248.347C984.813 248.735 984.415 249.327 984.131 250.122C983.847 250.908 983.705 251.898 983.705 253.091C983.705 254.284 983.847 255.278 984.131 256.074C984.415 256.86 984.813 257.452 985.324 257.849C985.835 258.238 986.432 258.432 987.114 258.432C987.691 258.432 988.203 258.299 988.648 258.034C989.093 257.759 989.453 257.362 989.727 256.841C990.011 256.311 990.182 255.667 990.239 254.909H997.511C997.483 256.831 997.043 258.508 996.19 259.938C995.338 261.358 994.131 262.456 992.568 263.233C991.015 264.009 989.159 264.398 987 264.398ZM1011.2 264.398C1008.87 264.398 1006.86 263.953 1005.18 263.062C1003.5 262.163 1002.21 260.875 1001.3 259.199C1000.4 257.513 999.951 255.496 999.951 253.148C999.951 250.894 1000.41 248.924 1001.31 247.239C1002.22 245.553 1003.51 244.241 1005.16 243.304C1006.82 242.366 1008.78 241.898 1011.03 241.898C1012.68 241.898 1014.17 242.153 1015.5 242.665C1016.84 243.176 1017.98 243.92 1018.93 244.895C1019.88 245.861 1020.6 247.035 1021.12 248.418C1021.63 249.8 1021.88 251.358 1021.88 253.091V254.909H1002.39V250.591H1014.67C1014.66 249.966 1014.5 249.417 1014.18 248.943C1013.88 248.46 1013.47 248.086 1012.95 247.821C1012.44 247.546 1011.85 247.409 1011.2 247.409C1010.57 247.409 1009.98 247.546 1009.45 247.821C1008.92 248.086 1008.5 248.455 1008.18 248.929C1007.86 249.402 1007.7 249.956 1007.68 250.591V255.25C1007.68 255.951 1007.83 256.576 1008.12 257.125C1008.41 257.674 1008.83 258.105 1009.38 258.418C1009.93 258.73 1010.59 258.886 1011.37 258.886C1011.91 258.886 1012.4 258.811 1012.85 258.659C1013.3 258.508 1013.69 258.29 1014.01 258.006C1014.34 257.712 1014.57 257.362 1014.72 256.955H1021.88C1021.64 258.47 1021.05 259.786 1020.14 260.903C1019.22 262.011 1018 262.873 1016.49 263.489C1014.98 264.095 1013.22 264.398 1011.2 264.398ZM1032.92 234.909V264H1025.08V234.909H1032.92ZM1043 264.341C1041.61 264.341 1040.37 264.114 1039.3 263.659C1038.24 263.195 1037.41 262.494 1036.8 261.557C1036.2 260.619 1035.9 259.426 1035.9 257.977C1035.9 256.784 1036.1 255.766 1036.51 254.923C1036.91 254.071 1037.48 253.375 1038.21 252.835C1038.94 252.295 1039.79 251.884 1040.75 251.599C1041.73 251.315 1042.78 251.131 1043.91 251.045C1045.13 250.951 1046.11 250.837 1046.85 250.705C1047.6 250.562 1048.14 250.368 1048.47 250.122C1048.8 249.866 1048.96 249.53 1048.96 249.114V249.057C1048.96 248.489 1048.75 248.053 1048.31 247.75C1047.87 247.447 1047.32 247.295 1046.63 247.295C1045.89 247.295 1045.28 247.461 1044.8 247.793C1044.34 248.115 1044.06 248.612 1043.96 249.284H1036.75C1036.84 247.958 1037.26 246.737 1038.01 245.619C1038.77 244.492 1039.87 243.593 1041.32 242.92C1042.77 242.239 1044.58 241.898 1046.75 241.898C1048.31 241.898 1049.71 242.082 1050.95 242.452C1052.19 242.812 1053.25 243.318 1054.12 243.972C1054.99 244.616 1055.65 245.373 1056.11 246.244C1056.57 247.106 1056.8 248.044 1056.8 249.057V264H1049.48V260.932H1049.3C1048.87 261.746 1048.34 262.404 1047.71 262.906C1047.1 263.408 1046.39 263.773 1045.6 264C1044.81 264.227 1043.94 264.341 1043 264.341ZM1045.55 259.398C1046.15 259.398 1046.71 259.275 1047.23 259.028C1047.76 258.782 1048.19 258.427 1048.52 257.963C1048.85 257.499 1049.02 256.936 1049.02 256.273V254.455C1048.81 254.54 1048.59 254.62 1048.35 254.696C1048.13 254.772 1047.88 254.843 1047.61 254.909C1047.36 254.975 1047.08 255.037 1046.79 255.094C1046.51 255.151 1046.21 255.203 1045.9 255.25C1045.29 255.345 1044.79 255.501 1044.4 255.719C1044.03 255.927 1043.74 256.188 1043.55 256.5C1043.37 256.803 1043.28 257.144 1043.28 257.523C1043.28 258.129 1043.5 258.593 1043.92 258.915C1044.35 259.237 1044.89 259.398 1045.55 259.398ZM1068.45 264.284C1066.9 264.284 1065.47 263.877 1064.16 263.062C1062.86 262.248 1061.82 261.012 1061.03 259.355C1060.26 257.698 1059.87 255.61 1059.87 253.091C1059.87 250.458 1060.28 248.318 1061.09 246.67C1061.91 245.023 1062.98 243.815 1064.27 243.048C1065.58 242.281 1066.95 241.898 1068.39 241.898C1069.47 241.898 1070.42 242.087 1071.23 242.466C1072.05 242.835 1072.73 243.332 1073.28 243.957C1073.83 244.573 1074.24 245.25 1074.53 245.989H1074.64V234.909H1082.48V264H1074.7V260.42H1074.53C1074.23 261.159 1073.79 261.822 1073.22 262.409C1072.66 262.987 1071.98 263.446 1071.18 263.787C1070.38 264.118 1069.47 264.284 1068.45 264.284ZM1071.35 258.261C1072.07 258.261 1072.68 258.053 1073.19 257.636C1073.71 257.21 1074.11 256.614 1074.39 255.847C1074.67 255.07 1074.81 254.152 1074.81 253.091C1074.81 252.011 1074.67 251.088 1074.39 250.321C1074.11 249.545 1073.71 248.953 1073.19 248.545C1072.68 248.129 1072.07 247.92 1071.35 247.92C1070.63 247.92 1070.01 248.129 1069.5 248.545C1069 248.953 1068.61 249.545 1068.34 250.321C1068.07 251.088 1067.94 252.011 1067.94 253.091C1067.94 254.17 1068.07 255.098 1068.34 255.875C1068.61 256.642 1069 257.234 1069.5 257.651C1070.01 258.058 1070.63 258.261 1071.35 258.261ZM1092.41 264.341C1091.02 264.341 1089.79 264.114 1088.72 263.659C1087.66 263.195 1086.82 262.494 1086.22 261.557C1085.61 260.619 1085.31 259.426 1085.31 257.977C1085.31 256.784 1085.51 255.766 1085.92 254.923C1086.33 254.071 1086.9 253.375 1087.62 252.835C1088.35 252.295 1089.2 251.884 1090.17 251.599C1091.14 251.315 1092.19 251.131 1093.32 251.045C1094.54 250.951 1095.52 250.837 1096.26 250.705C1097.01 250.562 1097.55 250.368 1097.88 250.122C1098.21 249.866 1098.38 249.53 1098.38 249.114V249.057C1098.38 248.489 1098.16 248.053 1097.72 247.75C1097.29 247.447 1096.73 247.295 1096.05 247.295C1095.3 247.295 1094.69 247.461 1094.22 247.793C1093.75 248.115 1093.47 248.612 1093.38 249.284H1086.16C1086.26 247.958 1086.68 246.737 1087.43 245.619C1088.18 244.492 1089.29 243.593 1090.74 242.92C1092.18 242.239 1093.99 241.898 1096.16 241.898C1097.72 241.898 1099.13 242.082 1100.37 242.452C1101.61 242.812 1102.66 243.318 1103.53 243.972C1104.41 244.616 1105.07 245.373 1105.52 246.244C1105.99 247.106 1106.22 248.044 1106.22 249.057V264H1098.89V260.932H1098.72C1098.28 261.746 1097.75 262.404 1097.13 262.906C1096.51 263.408 1095.81 263.773 1095.01 264C1094.23 264.227 1093.36 264.341 1092.41 264.341ZM1094.97 259.398C1095.57 259.398 1096.12 259.275 1096.64 259.028C1097.18 258.782 1097.61 258.427 1097.94 257.963C1098.27 257.499 1098.43 256.936 1098.43 256.273V254.455C1098.23 254.54 1098 254.62 1097.77 254.696C1097.54 254.772 1097.29 254.843 1097.03 254.909C1096.77 254.975 1096.5 255.037 1096.2 255.094C1095.92 255.151 1095.62 255.203 1095.31 255.25C1094.7 255.345 1094.21 255.501 1093.82 255.719C1093.44 255.927 1093.16 256.188 1092.97 256.5C1092.79 256.803 1092.7 257.144 1092.7 257.523C1092.7 258.129 1092.91 258.593 1093.34 258.915C1093.76 259.237 1094.31 259.398 1094.97 259.398ZM1125.83 264.284C1124.28 264.284 1122.85 263.877 1121.54 263.062C1120.24 262.248 1119.2 261.012 1118.42 259.355C1117.64 257.698 1117.25 255.61 1117.25 253.091C1117.25 250.458 1117.66 248.318 1118.47 246.67C1119.3 245.023 1120.36 243.815 1121.66 243.048C1122.96 242.281 1124.34 241.898 1125.77 241.898C1126.85 241.898 1127.8 242.087 1128.62 242.466C1129.43 242.835 1130.11 243.332 1130.66 243.957C1131.21 244.573 1131.63 245.25 1131.91 245.989H1132.02V234.909H1139.87V264H1132.08V260.42H1131.91C1131.61 261.159 1131.17 261.822 1130.6 262.409C1130.05 262.987 1129.36 263.446 1128.56 263.787C1127.76 264.118 1126.85 264.284 1125.83 264.284ZM1128.73 258.261C1129.45 258.261 1130.06 258.053 1130.58 257.636C1131.1 257.21 1131.49 256.614 1131.77 255.847C1132.05 255.07 1132.2 254.152 1132.2 253.091C1132.2 252.011 1132.05 251.088 1131.77 250.321C1131.49 249.545 1131.1 248.953 1130.58 248.545C1130.06 248.129 1129.45 247.92 1128.73 247.92C1128.01 247.92 1127.39 248.129 1126.88 248.545C1126.38 248.953 1125.99 249.545 1125.72 250.321C1125.45 251.088 1125.32 252.011 1125.32 253.091C1125.32 254.17 1125.45 255.098 1125.72 255.875C1125.99 256.642 1126.38 257.234 1126.88 257.651C1127.39 258.058 1128.01 258.261 1128.73 258.261ZM1154.17 264.398C1151.84 264.398 1149.83 263.953 1148.15 263.062C1146.47 262.163 1145.18 260.875 1144.27 259.199C1143.37 257.513 1142.92 255.496 1142.92 253.148C1142.92 250.894 1143.37 248.924 1144.28 247.239C1145.19 245.553 1146.48 244.241 1148.13 243.304C1149.79 242.366 1151.75 241.898 1154 241.898C1155.65 241.898 1157.14 242.153 1158.47 242.665C1159.81 243.176 1160.95 243.92 1161.9 244.895C1162.84 245.861 1163.57 247.035 1164.08 248.418C1164.6 249.8 1164.85 251.358 1164.85 253.091V254.909H1145.36V250.591H1157.64C1157.63 249.966 1157.47 249.417 1157.15 248.943C1156.85 248.46 1156.44 248.086 1155.92 247.821C1155.41 247.546 1154.82 247.409 1154.17 247.409C1153.54 247.409 1152.95 247.546 1152.42 247.821C1151.89 248.086 1151.47 248.455 1151.14 248.929C1150.83 249.402 1150.67 249.956 1150.65 250.591V255.25C1150.65 255.951 1150.79 256.576 1151.09 257.125C1151.38 257.674 1151.8 258.105 1152.35 258.418C1152.9 258.73 1153.56 258.886 1154.34 258.886C1154.88 258.886 1155.37 258.811 1155.82 258.659C1156.27 258.508 1156.66 258.29 1156.98 258.006C1157.3 257.712 1157.54 257.362 1157.69 256.955H1164.85C1164.61 258.47 1164.02 259.786 1163.1 260.903C1162.19 262.011 1160.97 262.873 1159.45 263.489C1157.95 264.095 1156.19 264.398 1154.17 264.398ZM1186.53 264.398C1184.16 264.398 1182.14 263.929 1180.45 262.991C1178.77 262.045 1177.47 260.728 1176.57 259.043C1175.67 257.348 1175.22 255.383 1175.22 253.148C1175.22 250.913 1175.67 248.953 1176.57 247.267C1177.47 245.572 1178.77 244.256 1180.45 243.318C1182.14 242.371 1184.16 241.898 1186.53 241.898C1188.67 241.898 1190.52 242.286 1192.09 243.062C1193.66 243.83 1194.87 244.919 1195.74 246.33C1196.6 247.731 1197.03 249.379 1197.04 251.273H1189.77C1189.67 250.127 1189.33 249.256 1188.78 248.659C1188.23 248.053 1187.52 247.75 1186.64 247.75C1185.96 247.75 1185.37 247.949 1184.86 248.347C1184.34 248.735 1183.95 249.327 1183.66 250.122C1183.38 250.908 1183.24 251.898 1183.24 253.091C1183.24 254.284 1183.38 255.278 1183.66 256.074C1183.95 256.86 1184.34 257.452 1184.86 257.849C1185.37 258.238 1185.96 258.432 1186.64 258.432C1187.22 258.432 1187.73 258.299 1188.18 258.034C1188.62 257.759 1188.98 257.362 1189.26 256.841C1189.54 256.311 1189.71 255.667 1189.77 254.909H1197.04C1197.01 256.831 1196.57 258.508 1195.72 259.938C1194.87 261.358 1193.66 262.456 1192.1 263.233C1190.55 264.009 1188.69 264.398 1186.53 264.398ZM1206.36 264.341C1204.97 264.341 1203.73 264.114 1202.66 263.659C1201.6 263.195 1200.77 262.494 1200.16 261.557C1199.56 260.619 1199.25 259.426 1199.25 257.977C1199.25 256.784 1199.46 255.766 1199.87 254.923C1200.27 254.071 1200.84 253.375 1201.57 252.835C1202.3 252.295 1203.15 251.884 1204.11 251.599C1205.09 251.315 1206.14 251.131 1207.27 251.045C1208.49 250.951 1209.47 250.837 1210.21 250.705C1210.95 250.562 1211.49 250.368 1211.83 250.122C1212.16 249.866 1212.32 249.53 1212.32 249.114V249.057C1212.32 248.489 1212.11 248.053 1211.67 247.75C1211.23 247.447 1210.68 247.295 1209.99 247.295C1209.25 247.295 1208.63 247.461 1208.16 247.793C1207.7 248.115 1207.42 248.612 1207.32 249.284H1200.11C1200.2 247.958 1200.62 246.737 1201.37 245.619C1202.13 244.492 1203.23 243.593 1204.68 242.92C1206.13 242.239 1207.94 241.898 1210.11 241.898C1211.67 241.898 1213.07 242.082 1214.31 242.452C1215.55 242.812 1216.61 243.318 1217.48 243.972C1218.35 244.616 1219.01 245.373 1219.47 246.244C1219.93 247.106 1220.16 248.044 1220.16 249.057V264H1212.83V260.932H1212.66C1212.23 261.746 1211.7 262.404 1211.07 262.906C1210.46 263.408 1209.75 263.773 1208.96 264C1208.17 264.227 1207.3 264.341 1206.36 264.341ZM1208.91 259.398C1209.51 259.398 1210.07 259.275 1210.59 259.028C1211.12 258.782 1211.55 258.427 1211.88 257.963C1212.21 257.499 1212.38 256.936 1212.38 256.273V254.455C1212.17 254.54 1211.95 254.62 1211.71 254.696C1211.49 254.772 1211.24 254.843 1210.97 254.909C1210.72 254.975 1210.44 255.037 1210.15 255.094C1209.87 255.151 1209.57 255.203 1209.25 255.25C1208.65 255.345 1208.15 255.501 1207.76 255.719C1207.38 255.927 1207.1 256.188 1206.91 256.5C1206.73 256.803 1206.64 257.144 1206.64 257.523C1206.64 258.129 1206.85 258.593 1207.28 258.915C1207.71 259.237 1208.25 259.398 1208.91 259.398ZM1231.81 264.284C1230.26 264.284 1228.83 263.877 1227.52 263.062C1226.22 262.248 1225.18 261.012 1224.39 259.355C1223.62 257.698 1223.23 255.61 1223.23 253.091C1223.23 250.458 1223.64 248.318 1224.45 246.67C1225.27 245.023 1226.33 243.815 1227.63 243.048C1228.94 242.281 1230.31 241.898 1231.75 241.898C1232.83 241.898 1233.78 242.087 1234.59 242.466C1235.41 242.835 1236.09 243.332 1236.64 243.957C1237.19 244.573 1237.6 245.25 1237.89 245.989H1238V234.909H1245.84V264H1238.06V260.42H1237.89C1237.58 261.159 1237.15 261.822 1236.58 262.409C1236.02 262.987 1235.34 263.446 1234.54 263.787C1233.74 264.118 1232.83 264.284 1231.81 264.284ZM1234.71 258.261C1235.43 258.261 1236.04 258.053 1236.55 257.636C1237.07 257.21 1237.47 256.614 1237.75 255.847C1238.03 255.07 1238.17 254.152 1238.17 253.091C1238.17 252.011 1238.03 251.088 1237.75 250.321C1237.47 249.545 1237.07 248.953 1236.55 248.545C1236.04 248.129 1235.43 247.92 1234.71 247.92C1233.99 247.92 1233.37 248.129 1232.86 248.545C1232.36 248.953 1231.97 249.545 1231.69 250.321C1231.43 251.088 1231.3 252.011 1231.3 253.091C1231.3 254.17 1231.43 255.098 1231.69 255.875C1231.97 256.642 1232.36 257.234 1232.86 257.651C1233.37 258.058 1233.99 258.261 1234.71 258.261ZM1255.77 264.341C1254.38 264.341 1253.15 264.114 1252.08 263.659C1251.02 263.195 1250.18 262.494 1249.58 261.557C1248.97 260.619 1248.67 259.426 1248.67 257.977C1248.67 256.784 1248.87 255.766 1249.28 254.923C1249.69 254.071 1250.26 253.375 1250.98 252.835C1251.71 252.295 1252.56 251.884 1253.53 251.599C1254.5 251.315 1255.55 251.131 1256.68 251.045C1257.9 250.951 1258.88 250.837 1259.62 250.705C1260.37 250.562 1260.91 250.368 1261.24 250.122C1261.57 249.866 1261.74 249.53 1261.74 249.114V249.057C1261.74 248.489 1261.52 248.053 1261.08 247.75C1260.65 247.447 1260.09 247.295 1259.41 247.295C1258.66 247.295 1258.05 247.461 1257.58 247.793C1257.11 248.115 1256.83 248.612 1256.74 249.284H1249.52C1249.62 247.958 1250.04 246.737 1250.79 245.619C1251.54 244.492 1252.65 243.593 1254.1 242.92C1255.54 242.239 1257.35 241.898 1259.52 241.898C1261.08 241.898 1262.49 242.082 1263.73 242.452C1264.97 242.812 1266.02 243.318 1266.89 243.972C1267.76 244.616 1268.43 245.373 1268.88 246.244C1269.35 247.106 1269.58 248.044 1269.58 249.057V264H1262.25V260.932H1262.08C1261.64 261.746 1261.11 262.404 1260.49 262.906C1259.87 263.408 1259.17 263.773 1258.37 264C1257.58 264.227 1256.72 264.341 1255.77 264.341ZM1258.33 259.398C1258.92 259.398 1259.48 259.275 1260 259.028C1260.53 258.782 1260.97 258.427 1261.3 257.963C1261.63 257.499 1261.79 256.936 1261.79 256.273V254.455C1261.59 254.54 1261.36 254.62 1261.13 254.696C1260.9 254.772 1260.65 254.843 1260.39 254.909C1260.13 254.975 1259.86 255.037 1259.56 255.094C1259.28 255.151 1258.98 255.203 1258.67 255.25C1258.06 255.345 1257.57 255.501 1257.18 255.719C1256.8 255.927 1256.51 256.188 1256.33 256.5C1256.15 256.803 1256.06 257.144 1256.06 257.523C1256.06 258.129 1256.27 258.593 1256.69 258.915C1257.12 259.237 1257.67 259.398 1258.33 259.398ZM680.977 292.182L673.648 314H664.557L657.227 292.182H665.466L668.989 306.614H669.216L672.739 292.182H680.977ZM692.998 314.398C690.668 314.398 688.661 313.953 686.975 313.062C685.299 312.163 684.006 310.875 683.097 309.199C682.198 307.513 681.748 305.496 681.748 303.148C681.748 300.894 682.202 298.924 683.112 297.239C684.021 295.553 685.304 294.241 686.961 293.304C688.618 292.366 690.574 291.898 692.827 291.898C694.475 291.898 695.967 292.153 697.302 292.665C698.637 293.176 699.778 293.92 700.725 294.895C701.672 295.861 702.401 297.035 702.913 298.418C703.424 299.8 703.68 301.358 703.68 303.091V304.909H684.191V300.591H696.464C696.454 299.966 696.293 299.417 695.981 298.943C695.678 298.46 695.266 298.086 694.745 297.821C694.234 297.546 693.651 297.409 692.998 297.409C692.363 297.409 691.781 297.546 691.251 297.821C690.72 298.086 690.294 298.455 689.972 298.929C689.66 299.402 689.494 299.956 689.475 300.591V305.25C689.475 305.951 689.622 306.576 689.915 307.125C690.209 307.674 690.63 308.105 691.18 308.418C691.729 308.73 692.392 308.886 693.168 308.886C693.708 308.886 694.201 308.811 694.646 308.659C695.1 308.508 695.488 308.29 695.81 308.006C696.132 307.712 696.369 307.362 696.521 306.955H703.68C703.433 308.47 702.851 309.786 701.933 310.903C701.014 312.011 699.797 312.873 698.282 313.489C696.776 314.095 695.015 314.398 692.998 314.398ZM707.107 314V309.682L716.652 298.261V298.148H707.447V292.182H725.913V296.955L717.22 307.92V308.034H726.254V314H707.107ZM738.204 310.023L738.09 311.614C737.996 312.977 737.768 314.284 737.408 315.534C737.058 316.784 736.684 317.892 736.286 318.858C735.898 319.824 735.59 320.572 735.363 321.102H730.533C730.685 320.572 730.898 319.805 731.173 318.801C731.457 317.807 731.712 316.68 731.94 315.42C732.176 314.17 732.295 312.902 732.295 311.614V310.023H738.204ZM749.028 322.182V292.182H756.812V295.989H756.982C757.266 295.25 757.683 294.573 758.232 293.957C758.781 293.332 759.463 292.835 760.278 292.466C761.092 292.087 762.039 291.898 763.119 291.898C764.558 291.898 765.926 292.281 767.224 293.048C768.531 293.815 769.591 295.023 770.406 296.67C771.229 298.318 771.641 300.458 771.641 303.091C771.641 305.61 771.248 307.698 770.462 309.355C769.686 311.012 768.644 312.248 767.337 313.062C766.04 313.877 764.615 314.284 763.062 314.284C762.039 314.284 761.125 314.118 760.32 313.787C759.525 313.446 758.843 312.987 758.275 312.409C757.716 311.822 757.285 311.159 756.982 310.42H756.869V322.182H749.028ZM756.698 303.091C756.698 304.152 756.835 305.07 757.11 305.847C757.394 306.614 757.792 307.21 758.303 307.636C758.824 308.053 759.444 308.261 760.164 308.261C760.884 308.261 761.495 308.058 761.996 307.651C762.508 307.234 762.896 306.642 763.161 305.875C763.436 305.098 763.573 304.17 763.573 303.091C763.573 302.011 763.436 301.088 763.161 300.321C762.896 299.545 762.508 298.953 761.996 298.545C761.495 298.129 760.884 297.92 760.164 297.92C759.444 297.92 758.824 298.129 758.303 298.545C757.792 298.953 757.394 299.545 757.11 300.321C756.835 301.088 756.698 302.011 756.698 303.091ZM785.438 314.398C783.07 314.398 781.044 313.929 779.358 312.991C777.672 312.045 776.38 310.728 775.48 309.043C774.58 307.348 774.131 305.383 774.131 303.148C774.131 300.913 774.58 298.953 775.48 297.267C776.38 295.572 777.672 294.256 779.358 293.318C781.044 292.371 783.07 291.898 785.438 291.898C787.805 291.898 789.831 292.371 791.517 293.318C793.203 294.256 794.495 295.572 795.395 297.267C796.295 298.953 796.744 300.913 796.744 303.148C796.744 305.383 796.295 307.348 795.395 309.043C794.495 310.728 793.203 312.045 791.517 312.991C789.831 313.929 787.805 314.398 785.438 314.398ZM785.494 308.602C786.157 308.602 786.73 308.38 787.213 307.935C787.696 307.49 788.07 306.855 788.335 306.031C788.6 305.207 788.733 304.227 788.733 303.091C788.733 301.945 788.6 300.965 788.335 300.151C788.07 299.327 787.696 298.692 787.213 298.247C786.73 297.802 786.157 297.58 785.494 297.58C784.794 297.58 784.192 297.802 783.69 298.247C783.188 298.692 782.805 299.327 782.54 300.151C782.275 300.965 782.142 301.945 782.142 303.091C782.142 304.227 782.275 305.207 782.54 306.031C782.805 306.855 783.188 307.49 783.69 307.935C784.192 308.38 784.794 308.602 785.494 308.602ZM799.926 314V292.182H807.54V296.33H807.767C808.165 294.795 808.795 293.673 809.656 292.963C810.527 292.253 811.545 291.898 812.71 291.898C813.051 291.898 813.387 291.926 813.719 291.983C814.06 292.03 814.386 292.101 814.699 292.196V298.886C814.311 298.754 813.832 298.654 813.264 298.588C812.696 298.522 812.208 298.489 811.801 298.489C811.034 298.489 810.343 298.664 809.727 299.014C809.121 299.355 808.643 299.838 808.293 300.463C807.942 301.079 807.767 301.803 807.767 302.636V314H799.926ZM830.111 322.182V310.42H829.997C829.694 311.159 829.259 311.822 828.69 312.409C828.132 312.987 827.45 313.446 826.645 313.787C825.849 314.118 824.94 314.284 823.918 314.284C822.365 314.284 820.935 313.877 819.628 313.062C818.33 312.248 817.289 311.012 816.503 309.355C815.726 307.698 815.338 305.61 815.338 303.091C815.338 300.458 815.745 298.318 816.56 296.67C817.384 295.023 818.444 293.815 819.741 293.048C821.048 292.281 822.421 291.898 823.861 291.898C824.94 291.898 825.887 292.087 826.702 292.466C827.516 292.835 828.198 293.332 828.747 293.957C829.296 294.573 829.713 295.25 829.997 295.989H830.168V292.182H837.952V322.182H830.111ZM826.815 308.261C827.535 308.261 828.151 308.053 828.662 307.636C829.183 307.21 829.58 306.614 829.855 305.847C830.139 305.07 830.281 304.152 830.281 303.091C830.281 302.011 830.139 301.088 829.855 300.321C829.58 299.545 829.183 298.953 828.662 298.545C828.151 298.129 827.535 297.92 826.815 297.92C826.096 297.92 825.48 298.129 824.969 298.545C824.467 298.953 824.079 299.545 823.804 300.321C823.539 301.088 823.406 302.011 823.406 303.091C823.406 304.17 823.539 305.098 823.804 305.875C824.079 306.642 824.467 307.234 824.969 307.651C825.48 308.058 826.096 308.261 826.815 308.261ZM856.066 304.455V292.182H863.907V314H856.464V309.852H856.237C855.763 311.244 854.934 312.333 853.751 313.119C852.567 313.896 851.161 314.284 849.532 314.284C848.007 314.284 846.672 313.934 845.526 313.233C844.39 312.532 843.504 311.566 842.87 310.335C842.245 309.104 841.928 307.693 841.918 306.102V292.182H849.759V304.455C849.769 305.534 850.043 306.382 850.583 306.997C851.132 307.613 851.899 307.92 852.884 307.92C853.538 307.92 854.101 307.783 854.575 307.509C855.058 307.224 855.427 306.827 855.683 306.315C855.948 305.795 856.076 305.174 856.066 304.455ZM878.349 314.398C876.02 314.398 874.012 313.953 872.327 313.062C870.651 312.163 869.358 310.875 868.449 309.199C867.549 307.513 867.099 305.496 867.099 303.148C867.099 300.894 867.554 298.924 868.463 297.239C869.372 295.553 870.655 294.241 872.312 293.304C873.97 292.366 875.925 291.898 878.179 291.898C879.827 291.898 881.318 292.153 882.653 292.665C883.989 293.176 885.13 293.92 886.077 294.895C887.024 295.861 887.753 297.035 888.264 298.418C888.776 299.8 889.031 301.358 889.031 303.091V304.909H869.543V300.591H881.815C881.806 299.966 881.645 299.417 881.332 298.943C881.029 298.46 880.617 298.086 880.097 297.821C879.585 297.546 879.003 297.409 878.349 297.409C877.715 297.409 877.133 297.546 876.602 297.821C876.072 298.086 875.646 298.455 875.324 298.929C875.011 299.402 874.846 299.956 874.827 300.591V305.25C874.827 305.951 874.973 306.576 875.267 307.125C875.561 307.674 875.982 308.105 876.531 308.418C877.08 308.73 877.743 308.886 878.52 308.886C879.06 308.886 879.552 308.811 879.997 308.659C880.452 308.508 880.84 308.29 881.162 308.006C881.484 307.712 881.721 307.362 881.872 306.955H889.031C888.785 308.47 888.203 309.786 887.284 310.903C886.366 312.011 885.149 312.873 883.634 313.489C882.128 314.095 880.366 314.398 878.349 314.398ZM906.279 314.341C904.887 314.341 903.656 314.114 902.586 313.659C901.525 313.195 900.692 312.494 900.086 311.557C899.48 310.619 899.177 309.426 899.177 307.977C899.177 306.784 899.38 305.766 899.788 304.923C900.195 304.071 900.763 303.375 901.492 302.835C902.221 302.295 903.069 301.884 904.035 301.599C905.01 301.315 906.061 301.131 907.188 301.045C908.41 300.951 909.39 300.837 910.129 300.705C910.877 300.562 911.416 300.368 911.748 300.122C912.079 299.866 912.245 299.53 912.245 299.114V299.057C912.245 298.489 912.027 298.053 911.592 297.75C911.156 297.447 910.597 297.295 909.915 297.295C909.167 297.295 908.557 297.461 908.083 297.793C907.619 298.115 907.34 298.612 907.245 299.284H900.029C900.124 297.958 900.545 296.737 901.293 295.619C902.051 294.492 903.154 293.593 904.603 292.92C906.052 292.239 907.861 291.898 910.029 291.898C911.592 291.898 912.993 292.082 914.234 292.452C915.474 292.812 916.53 293.318 917.401 293.972C918.272 294.616 918.935 295.373 919.39 296.244C919.854 297.106 920.086 298.044 920.086 299.057V314H912.756V310.932H912.586C912.15 311.746 911.62 312.404 910.995 312.906C910.379 313.408 909.674 313.773 908.879 314C908.093 314.227 907.226 314.341 906.279 314.341ZM908.836 309.398C909.433 309.398 909.991 309.275 910.512 309.028C911.042 308.782 911.473 308.427 911.805 307.963C912.136 307.499 912.302 306.936 912.302 306.273V304.455C912.094 304.54 911.871 304.62 911.634 304.696C911.407 304.772 911.161 304.843 910.896 304.909C910.64 304.975 910.365 305.037 910.072 305.094C909.788 305.151 909.489 305.203 909.177 305.25C908.571 305.345 908.074 305.501 907.685 305.719C907.307 305.927 907.022 306.188 906.833 306.5C906.653 306.803 906.563 307.144 906.563 307.523C906.563 308.129 906.776 308.593 907.202 308.915C907.629 309.237 908.173 309.398 908.836 309.398ZM953.79 292.182L946.46 314H937.369L930.04 292.182H938.278L941.801 306.614H942.028L945.551 292.182H953.79ZM956.02 314V292.182H963.861V314H956.02ZM959.94 289.909C958.88 289.909 957.971 289.559 957.213 288.858C956.455 288.157 956.077 287.314 956.077 286.33C956.077 285.345 956.455 284.502 957.213 283.801C957.971 283.1 958.88 282.75 959.94 282.75C961.01 282.75 961.92 283.1 962.668 283.801C963.425 284.502 963.804 285.345 963.804 286.33C963.804 287.314 963.425 288.157 962.668 288.858C961.92 289.559 961.01 289.909 959.94 289.909ZM975.754 314.284C974.201 314.284 972.771 313.877 971.464 313.062C970.166 312.248 969.125 311.012 968.339 309.355C967.562 307.698 967.174 305.61 967.174 303.091C967.174 300.458 967.581 298.318 968.396 296.67C969.219 295.023 970.28 293.815 971.577 293.048C972.884 292.281 974.257 291.898 975.697 291.898C976.776 291.898 977.723 292.087 978.538 292.466C979.352 292.835 980.034 293.332 980.583 293.957C981.132 294.573 981.549 295.25 981.833 295.989H981.947V284.909H989.788V314H982.004V310.42H981.833C981.53 311.159 981.094 311.822 980.526 312.409C979.968 312.987 979.286 313.446 978.481 313.787C977.685 314.118 976.776 314.284 975.754 314.284ZM978.651 308.261C979.371 308.261 979.987 308.053 980.498 307.636C981.019 307.21 981.416 306.614 981.691 305.847C981.975 305.07 982.117 304.152 982.117 303.091C982.117 302.011 981.975 301.088 981.691 300.321C981.416 299.545 981.019 298.953 980.498 298.545C979.987 298.129 979.371 297.92 978.651 297.92C977.932 297.92 977.316 298.129 976.805 298.545C976.303 298.953 975.915 299.545 975.64 300.321C975.375 301.088 975.242 302.011 975.242 303.091C975.242 304.17 975.375 305.098 975.64 305.875C975.915 306.642 976.303 307.234 976.805 307.651C977.316 308.058 977.932 308.261 978.651 308.261ZM999.717 314.341C998.325 314.341 997.094 314.114 996.023 313.659C994.963 313.195 994.129 312.494 993.523 311.557C992.917 310.619 992.614 309.426 992.614 307.977C992.614 306.784 992.818 305.766 993.225 304.923C993.632 304.071 994.201 303.375 994.93 302.835C995.659 302.295 996.506 301.884 997.472 301.599C998.448 301.315 999.499 301.131 1000.63 301.045C1001.85 300.951 1002.83 300.837 1003.57 300.705C1004.31 300.562 1004.85 300.368 1005.19 300.122C1005.52 299.866 1005.68 299.53 1005.68 299.114V299.057C1005.68 298.489 1005.46 298.053 1005.03 297.75C1004.59 297.447 1004.03 297.295 1003.35 297.295C1002.6 297.295 1001.99 297.461 1001.52 297.793C1001.06 298.115 1000.78 298.612 1000.68 299.284H993.467C993.561 297.958 993.983 296.737 994.731 295.619C995.488 294.492 996.592 293.593 998.04 292.92C999.489 292.239 1001.3 291.898 1003.47 291.898C1005.03 291.898 1006.43 292.082 1007.67 292.452C1008.91 292.812 1009.97 293.318 1010.84 293.972C1011.71 294.616 1012.37 295.373 1012.83 296.244C1013.29 297.106 1013.52 298.044 1013.52 299.057V314H1006.19V310.932H1006.02C1005.59 311.746 1005.06 312.404 1004.43 312.906C1003.82 313.408 1003.11 313.773 1002.32 314C1001.53 314.227 1000.66 314.341 999.717 314.341ZM1002.27 309.398C1002.87 309.398 1003.43 309.275 1003.95 309.028C1004.48 308.782 1004.91 308.427 1005.24 307.963C1005.57 307.499 1005.74 306.936 1005.74 306.273V304.455C1005.53 304.54 1005.31 304.62 1005.07 304.696C1004.84 304.772 1004.6 304.843 1004.33 304.909C1004.08 304.975 1003.8 305.037 1003.51 305.094C1003.23 305.151 1002.93 305.203 1002.61 305.25C1002.01 305.345 1001.51 305.501 1001.12 305.719C1000.74 305.927 1000.46 306.188 1000.27 306.5C1000.09 306.803 1000 307.144 1000 307.523C1000 308.129 1000.21 308.593 1000.64 308.915C1001.07 309.237 1001.61 309.398 1002.27 309.398ZM1035.69 314.398C1033.36 314.398 1031.36 313.953 1029.67 313.062C1027.99 312.163 1026.7 310.875 1025.79 309.199C1024.89 307.513 1024.44 305.496 1024.44 303.148C1024.44 300.894 1024.9 298.924 1025.81 297.239C1026.72 295.553 1028 294.241 1029.66 293.304C1031.31 292.366 1033.27 291.898 1035.52 291.898C1037.17 291.898 1038.66 292.153 1040 292.665C1041.33 293.176 1042.47 293.92 1043.42 294.895C1044.37 295.861 1045.1 297.035 1045.61 298.418C1046.12 299.8 1046.38 301.358 1046.38 303.091V304.909H1026.89V300.591H1039.16C1039.15 299.966 1038.99 299.417 1038.68 298.943C1038.37 298.46 1037.96 298.086 1037.44 297.821C1036.93 297.546 1036.35 297.409 1035.69 297.409C1035.06 297.409 1034.48 297.546 1033.95 297.821C1033.42 298.086 1032.99 298.455 1032.67 298.929C1032.36 299.402 1032.19 299.956 1032.17 300.591V305.25C1032.17 305.951 1032.32 306.576 1032.61 307.125C1032.9 307.674 1033.33 308.105 1033.88 308.418C1034.42 308.73 1035.09 308.886 1035.86 308.886C1036.4 308.886 1036.9 308.811 1037.34 308.659C1037.8 308.508 1038.18 308.29 1038.51 308.006C1038.83 307.712 1039.06 307.362 1039.22 306.955H1046.38C1046.13 308.47 1045.55 309.786 1044.63 310.903C1043.71 312.011 1042.49 312.873 1040.98 313.489C1039.47 314.095 1037.71 314.398 1035.69 314.398ZM1032.8 289.455L1035.52 283.091H1042.23L1037.97 289.455H1032.8ZM1063.62 314.341C1062.23 314.341 1061 314.114 1059.93 313.659C1058.87 313.195 1058.04 312.494 1057.43 311.557C1056.82 310.619 1056.52 309.426 1056.52 307.977C1056.52 306.784 1056.72 305.766 1057.13 304.923C1057.54 304.071 1058.11 303.375 1058.84 302.835C1059.57 302.295 1060.41 301.884 1061.38 301.599C1062.35 301.315 1063.41 301.131 1064.53 301.045C1065.75 300.951 1066.73 300.837 1067.47 300.705C1068.22 300.562 1068.76 300.368 1069.09 300.122C1069.42 299.866 1069.59 299.53 1069.59 299.114V299.057C1069.59 298.489 1069.37 298.053 1068.94 297.75C1068.5 297.447 1067.94 297.295 1067.26 297.295C1066.51 297.295 1065.9 297.461 1065.43 297.793C1064.96 298.115 1064.68 298.612 1064.59 299.284H1057.37C1057.47 297.958 1057.89 296.737 1058.64 295.619C1059.39 294.492 1060.5 293.593 1061.95 292.92C1063.4 292.239 1065.2 291.898 1067.37 291.898C1068.94 291.898 1070.34 292.082 1071.58 292.452C1072.82 292.812 1073.87 293.318 1074.75 293.972C1075.62 294.616 1076.28 295.373 1076.73 296.244C1077.2 297.106 1077.43 298.044 1077.43 299.057V314H1070.1V310.932H1069.93C1069.49 311.746 1068.96 312.404 1068.34 312.906C1067.72 313.408 1067.02 313.773 1066.22 314C1065.44 314.227 1064.57 314.341 1063.62 314.341ZM1066.18 309.398C1066.78 309.398 1067.33 309.275 1067.86 309.028C1068.39 308.782 1068.82 308.427 1069.15 307.963C1069.48 307.499 1069.65 306.936 1069.65 306.273V304.455C1069.44 304.54 1069.21 304.62 1068.98 304.696C1068.75 304.772 1068.5 304.843 1068.24 304.909C1067.98 304.975 1067.71 305.037 1067.42 305.094C1067.13 305.151 1066.83 305.203 1066.52 305.25C1065.91 305.345 1065.42 305.501 1065.03 305.719C1064.65 305.927 1064.37 306.188 1064.18 306.5C1064 306.803 1063.91 307.144 1063.91 307.523C1063.91 308.129 1064.12 308.593 1064.55 308.915C1064.97 309.237 1065.52 309.398 1066.18 309.398ZM1096.99 301.727V314H1089.14V292.182H1096.59V296.33H1096.82C1097.29 294.947 1098.12 293.863 1099.32 293.077C1100.52 292.291 1101.92 291.898 1103.52 291.898C1105.06 291.898 1106.4 292.253 1107.54 292.963C1108.69 293.664 1109.57 294.63 1110.2 295.861C1110.83 297.092 1111.14 298.498 1111.13 300.08V314H1103.29V301.727C1103.3 300.648 1103.03 299.8 1102.47 299.185C1101.92 298.569 1101.15 298.261 1100.17 298.261C1099.52 298.261 1098.96 298.403 1098.48 298.688C1098 298.962 1097.64 299.36 1097.38 299.881C1097.13 300.392 1097 301.008 1096.99 301.727ZM1125.52 314.398C1123.15 314.398 1121.12 313.929 1119.44 312.991C1117.75 312.045 1116.46 310.728 1115.56 309.043C1114.66 307.348 1114.21 305.383 1114.21 303.148C1114.21 300.913 1114.66 298.953 1115.56 297.267C1116.46 295.572 1117.75 294.256 1119.44 293.318C1121.12 292.371 1123.15 291.898 1125.52 291.898C1127.88 291.898 1129.91 292.371 1131.6 293.318C1133.28 294.256 1134.57 295.572 1135.47 297.267C1136.37 298.953 1136.82 300.913 1136.82 303.148C1136.82 305.383 1136.37 307.348 1135.47 309.043C1134.57 310.728 1133.28 312.045 1131.6 312.991C1129.91 313.929 1127.88 314.398 1125.52 314.398ZM1125.57 308.602C1126.24 308.602 1126.81 308.38 1127.29 307.935C1127.77 307.49 1128.15 306.855 1128.41 306.031C1128.68 305.207 1128.81 304.227 1128.81 303.091C1128.81 301.945 1128.68 300.965 1128.41 300.151C1128.15 299.327 1127.77 298.692 1127.29 298.247C1126.81 297.802 1126.24 297.58 1125.57 297.58C1124.87 297.58 1124.27 297.802 1123.77 298.247C1123.27 298.692 1122.88 299.327 1122.62 300.151C1122.35 300.965 1122.22 301.945 1122.22 303.091C1122.22 304.227 1122.35 305.207 1122.62 306.031C1122.88 306.855 1123.27 307.49 1123.77 307.935C1124.27 308.38 1124.87 308.602 1125.57 308.602ZM1159.95 299.284H1152.73C1152.69 298.839 1152.54 298.455 1152.26 298.134C1151.99 297.812 1151.63 297.565 1151.2 297.395C1150.77 297.215 1150.3 297.125 1149.78 297.125C1149.1 297.125 1148.53 297.248 1148.04 297.494C1147.56 297.741 1147.32 298.091 1147.33 298.545C1147.32 298.867 1147.46 299.166 1147.75 299.44C1148.04 299.715 1148.6 299.928 1149.44 300.08L1153.87 300.875C1156.1 301.282 1157.76 301.969 1158.85 302.935C1159.95 303.891 1160.51 305.174 1160.52 306.784C1160.51 308.337 1160.04 309.687 1159.12 310.832C1158.21 311.969 1156.97 312.849 1155.39 313.474C1153.82 314.09 1152.02 314.398 1150 314.398C1146.67 314.398 1144.06 313.716 1142.18 312.352C1140.3 310.989 1139.26 309.189 1139.04 306.955H1146.82C1146.93 307.646 1147.27 308.181 1147.85 308.56C1148.43 308.929 1149.17 309.114 1150.06 309.114C1150.78 309.114 1151.37 308.991 1151.84 308.744C1152.31 308.498 1152.55 308.148 1152.56 307.693C1152.55 307.277 1152.34 306.945 1151.94 306.699C1151.54 306.453 1150.91 306.254 1150.06 306.102L1146.2 305.42C1143.97 305.032 1142.31 304.294 1141.2 303.205C1140.09 302.116 1139.54 300.714 1139.55 299C1139.54 297.485 1139.94 296.202 1140.74 295.151C1141.56 294.09 1142.72 293.285 1144.22 292.736C1145.74 292.177 1147.53 291.898 1149.61 291.898C1152.76 291.898 1155.25 292.551 1157.06 293.858C1158.89 295.165 1159.85 296.973 1159.95 299.284ZM1183.46 299.284H1176.25C1176.21 298.839 1176.05 298.455 1175.78 298.134C1175.5 297.812 1175.15 297.565 1174.71 297.395C1174.29 297.215 1173.81 297.125 1173.29 297.125C1172.62 297.125 1172.04 297.248 1171.56 297.494C1171.08 297.741 1170.84 298.091 1170.85 298.545C1170.84 298.867 1170.98 299.166 1171.26 299.44C1171.55 299.715 1172.12 299.928 1172.95 300.08L1177.38 300.875C1179.62 301.282 1181.28 301.969 1182.37 302.935C1183.47 303.891 1184.02 305.174 1184.03 306.784C1184.02 308.337 1183.56 309.687 1182.64 310.832C1181.73 311.969 1180.48 312.849 1178.9 313.474C1177.33 314.09 1175.54 314.398 1173.52 314.398C1170.19 314.398 1167.58 313.716 1165.69 312.352C1163.82 310.989 1162.77 309.189 1162.55 306.955H1170.34C1170.44 307.646 1170.78 308.181 1171.36 308.56C1171.95 308.929 1172.69 309.114 1173.58 309.114C1174.3 309.114 1174.89 308.991 1175.35 308.744C1175.83 308.498 1176.07 308.148 1176.08 307.693C1176.07 307.277 1175.86 306.945 1175.45 306.699C1175.05 306.453 1174.43 306.254 1173.58 306.102L1169.71 305.42C1167.49 305.032 1165.82 304.294 1164.71 303.205C1163.61 302.116 1163.06 300.714 1163.07 299C1163.06 297.485 1163.45 296.202 1164.26 295.151C1165.07 294.09 1166.23 293.285 1167.74 292.736C1169.25 292.177 1171.05 291.898 1173.12 291.898C1176.28 291.898 1178.76 292.551 1180.58 293.858C1182.41 295.165 1183.37 296.973 1183.46 299.284ZM1193.12 314.341C1191.72 314.341 1190.49 314.114 1189.42 313.659C1188.36 313.195 1187.53 312.494 1186.92 311.557C1186.32 310.619 1186.01 309.426 1186.01 307.977C1186.01 306.784 1186.22 305.766 1186.62 304.923C1187.03 304.071 1187.6 303.375 1188.33 302.835C1189.06 302.295 1189.9 301.884 1190.87 301.599C1191.85 301.315 1192.9 301.131 1194.02 301.045C1195.25 300.951 1196.23 300.837 1196.96 300.705C1197.71 300.562 1198.25 300.368 1198.58 300.122C1198.92 299.866 1199.08 299.53 1199.08 299.114V299.057C1199.08 298.489 1198.86 298.053 1198.43 297.75C1197.99 297.447 1197.43 297.295 1196.75 297.295C1196 297.295 1195.39 297.461 1194.92 297.793C1194.46 298.115 1194.18 298.612 1194.08 299.284H1186.87C1186.96 297.958 1187.38 296.737 1188.13 295.619C1188.89 294.492 1189.99 293.593 1191.44 292.92C1192.89 292.239 1194.7 291.898 1196.87 291.898C1198.43 291.898 1199.83 292.082 1201.07 292.452C1202.31 292.812 1203.37 293.318 1204.24 293.972C1205.11 294.616 1205.77 295.373 1206.23 296.244C1206.69 297.106 1206.92 298.044 1206.92 299.057V314H1199.59V310.932H1199.42C1198.99 311.746 1198.46 312.404 1197.83 312.906C1197.22 313.408 1196.51 313.773 1195.71 314C1194.93 314.227 1194.06 314.341 1193.12 314.341ZM1195.67 309.398C1196.27 309.398 1196.83 309.275 1197.35 309.028C1197.88 308.782 1198.31 308.427 1198.64 307.963C1198.97 307.499 1199.14 306.936 1199.14 306.273V304.455C1198.93 304.54 1198.71 304.62 1198.47 304.696C1198.24 304.772 1198 304.843 1197.73 304.909C1197.48 304.975 1197.2 305.037 1196.91 305.094C1196.62 305.151 1196.33 305.203 1196.01 305.25C1195.41 305.345 1194.91 305.501 1194.52 305.719C1194.14 305.927 1193.86 306.188 1193.67 306.5C1193.49 306.803 1193.4 307.144 1193.4 307.523C1193.4 308.129 1193.61 308.593 1194.04 308.915C1194.46 309.237 1195.01 309.398 1195.67 309.398ZM1231.65 292.182V297.864H1217.27V292.182H1231.65ZM1220.06 286.955H1227.9V306.983C1227.9 307.286 1227.95 307.542 1228.05 307.75C1228.16 307.949 1228.32 308.1 1228.54 308.205C1228.76 308.299 1229.03 308.347 1229.38 308.347C1229.61 308.347 1229.89 308.318 1230.2 308.261C1230.52 308.205 1230.76 308.157 1230.91 308.119L1232.05 313.631C1231.7 313.735 1231.19 313.863 1230.54 314.014C1229.9 314.166 1229.13 314.265 1228.24 314.312C1226.44 314.407 1224.93 314.223 1223.71 313.759C1222.49 313.285 1221.57 312.542 1220.95 311.528C1220.34 310.515 1220.04 309.246 1220.06 307.722V286.955ZM1245.07 314.398C1242.74 314.398 1240.73 313.953 1239.05 313.062C1237.37 312.163 1236.08 310.875 1235.17 309.199C1234.27 307.513 1233.82 305.496 1233.82 303.148C1233.82 300.894 1234.27 298.924 1235.18 297.239C1236.09 295.553 1237.37 294.241 1239.03 293.304C1240.69 292.366 1242.64 291.898 1244.9 291.898C1246.55 291.898 1248.04 292.153 1249.37 292.665C1250.71 293.176 1251.85 293.92 1252.8 294.895C1253.74 295.861 1254.47 297.035 1254.98 298.418C1255.49 299.8 1255.75 301.358 1255.75 303.091V304.909H1236.26V300.591H1248.53C1248.52 299.966 1248.36 299.417 1248.05 298.943C1247.75 298.46 1247.34 298.086 1246.82 297.821C1246.3 297.546 1245.72 297.409 1245.07 297.409C1244.43 297.409 1243.85 297.546 1243.32 297.821C1242.79 298.086 1242.36 298.455 1242.04 298.929C1241.73 299.402 1241.56 299.956 1241.55 300.591V305.25C1241.55 305.951 1241.69 306.576 1241.99 307.125C1242.28 307.674 1242.7 308.105 1243.25 308.418C1243.8 308.73 1244.46 308.886 1245.24 308.886C1245.78 308.886 1246.27 308.811 1246.72 308.659C1247.17 308.508 1247.56 308.29 1247.88 308.006C1248.2 307.712 1248.44 307.362 1248.59 306.955H1255.75C1255.5 308.47 1254.92 309.786 1254 310.903C1253.08 312.011 1251.87 312.873 1250.35 313.489C1248.85 314.095 1247.09 314.398 1245.07 314.398ZM1266.79 284.909V314H1258.95V284.909H1266.79ZM1276.87 314.341C1275.47 314.341 1274.24 314.114 1273.17 313.659C1272.11 313.195 1271.28 312.494 1270.67 311.557C1270.07 310.619 1269.76 309.426 1269.76 307.977C1269.76 306.784 1269.97 305.766 1270.37 304.923C1270.78 304.071 1271.35 303.375 1272.08 302.835C1272.81 302.295 1273.65 301.884 1274.62 301.599C1275.6 301.315 1276.65 301.131 1277.77 301.045C1279 300.951 1279.98 300.837 1280.71 300.705C1281.46 300.562 1282 300.368 1282.33 300.122C1282.67 299.866 1282.83 299.53 1282.83 299.114V299.057C1282.83 298.489 1282.61 298.053 1282.18 297.75C1281.74 297.447 1281.18 297.295 1280.5 297.295C1279.75 297.295 1279.14 297.461 1278.67 297.793C1278.21 298.115 1277.93 298.612 1277.83 299.284H1270.62C1270.71 297.958 1271.13 296.737 1271.88 295.619C1272.64 294.492 1273.74 293.593 1275.19 292.92C1276.64 292.239 1278.45 291.898 1280.62 291.898C1282.18 291.898 1283.58 292.082 1284.82 292.452C1286.06 292.812 1287.12 293.318 1287.99 293.972C1288.86 294.616 1289.52 295.373 1289.98 296.244C1290.44 297.106 1290.67 298.044 1290.67 299.057V314H1283.34V310.932H1283.17C1282.74 311.746 1282.21 312.404 1281.58 312.906C1280.97 313.408 1280.26 313.773 1279.46 314C1278.68 314.227 1277.81 314.341 1276.87 314.341ZM1279.42 309.398C1280.02 309.398 1280.58 309.275 1281.1 309.028C1281.63 308.782 1282.06 308.427 1282.39 307.963C1282.72 307.499 1282.89 306.936 1282.89 306.273V304.455C1282.68 304.54 1282.46 304.62 1282.22 304.696C1281.99 304.772 1281.75 304.843 1281.48 304.909C1281.23 304.975 1280.95 305.037 1280.66 305.094C1280.37 305.151 1280.08 305.203 1279.76 305.25C1279.16 305.345 1278.66 305.501 1278.27 305.719C1277.89 305.927 1277.61 306.188 1277.42 306.5C1277.24 306.803 1277.15 307.144 1277.15 307.523C1277.15 308.129 1277.36 308.593 1277.79 308.915C1278.21 309.237 1278.76 309.398 1279.42 309.398ZM669.443 364.398C667.114 364.398 665.106 363.953 663.42 363.062C661.744 362.163 660.452 360.875 659.543 359.199C658.643 357.513 658.193 355.496 658.193 353.148C658.193 350.894 658.648 348.924 659.557 347.239C660.466 345.553 661.749 344.241 663.406 343.304C665.063 342.366 667.019 341.898 669.273 341.898C670.92 341.898 672.412 342.153 673.747 342.665C675.082 343.176 676.223 343.92 677.17 344.895C678.117 345.861 678.847 347.035 679.358 348.418C679.869 349.8 680.125 351.358 680.125 353.091V354.909H660.636V350.591H672.909C672.9 349.966 672.739 349.417 672.426 348.943C672.123 348.46 671.711 348.086 671.19 347.821C670.679 347.546 670.097 347.409 669.443 347.409C668.809 347.409 668.226 347.546 667.696 347.821C667.166 348.086 666.74 348.455 666.418 348.929C666.105 349.402 665.939 349.956 665.92 350.591V355.25C665.92 355.951 666.067 356.576 666.361 357.125C666.654 357.674 667.076 358.105 667.625 358.418C668.174 358.73 668.837 358.886 669.614 358.886C670.153 358.886 670.646 358.811 671.091 358.659C671.545 358.508 671.934 358.29 672.256 358.006C672.578 357.712 672.814 357.362 672.966 356.955H680.125C679.879 358.47 679.296 359.786 678.378 360.903C677.459 362.011 676.242 362.873 674.727 363.489C673.222 364.095 671.46 364.398 669.443 364.398ZM683.325 364V342.182H690.768V346.33H690.995C691.45 344.966 692.226 343.886 693.325 343.091C694.423 342.295 695.73 341.898 697.245 341.898C698.779 341.898 700.1 342.305 701.208 343.119C702.316 343.924 702.984 344.994 703.211 346.33H703.438C703.808 344.994 704.594 343.924 705.796 343.119C706.999 342.305 708.41 341.898 710.029 341.898C712.122 341.898 713.817 342.57 715.114 343.915C716.421 345.259 717.075 347.049 717.075 349.284V364H709.234V351.273C709.234 350.316 708.992 349.568 708.509 349.028C708.026 348.479 707.378 348.205 706.563 348.205C705.758 348.205 705.119 348.479 704.646 349.028C704.182 349.568 703.95 350.316 703.95 351.273V364H696.45V351.273C696.45 350.316 696.208 349.568 695.725 349.028C695.242 348.479 694.594 348.205 693.779 348.205C693.239 348.205 692.775 348.328 692.387 348.574C691.999 348.82 691.696 349.175 691.478 349.639C691.27 350.094 691.165 350.638 691.165 351.273V364H683.325ZM728.797 364V334.909H736.638V345.989H736.751C737.036 345.25 737.452 344.573 738.001 343.957C738.551 343.332 739.232 342.835 740.047 342.466C740.861 342.087 741.808 341.898 742.888 341.898C744.327 341.898 745.696 342.281 746.993 343.048C748.3 343.815 749.36 345.023 750.175 346.67C750.999 348.318 751.411 350.458 751.411 353.091C751.411 355.61 751.018 357.698 750.232 359.355C749.455 361.012 748.413 362.248 747.107 363.062C745.809 363.877 744.384 364.284 742.831 364.284C741.808 364.284 740.894 364.118 740.089 363.787C739.294 363.446 738.612 362.987 738.044 362.409C737.485 361.822 737.054 361.159 736.751 360.42H736.581V364H728.797ZM736.467 353.091C736.467 354.152 736.605 355.07 736.879 355.847C737.163 356.614 737.561 357.21 738.072 357.636C738.593 358.053 739.214 358.261 739.933 358.261C740.653 358.261 741.264 358.058 741.766 357.651C742.277 357.234 742.665 356.642 742.93 355.875C743.205 355.098 743.342 354.17 743.342 353.091C743.342 352.011 743.205 351.088 742.93 350.321C742.665 349.545 742.277 348.953 741.766 348.545C741.264 348.129 740.653 347.92 739.933 347.92C739.214 347.92 738.593 348.129 738.072 348.545C737.561 348.953 737.163 349.545 736.879 350.321C736.605 351.088 736.467 352.011 736.467 353.091ZM754.692 364V342.182H762.305V346.33H762.533C762.93 344.795 763.56 343.673 764.422 342.963C765.293 342.253 766.311 341.898 767.476 341.898C767.817 341.898 768.153 341.926 768.484 341.983C768.825 342.03 769.152 342.101 769.464 342.196V348.886C769.076 348.754 768.598 348.654 768.03 348.588C767.462 348.522 766.974 348.489 766.567 348.489C765.8 348.489 765.108 348.664 764.493 349.014C763.887 349.355 763.409 349.838 763.058 350.463C762.708 351.079 762.533 351.803 762.533 352.636V364H754.692ZM777.099 364.341C775.707 364.341 774.476 364.114 773.406 363.659C772.346 363.195 771.512 362.494 770.906 361.557C770.3 360.619 769.997 359.426 769.997 357.977C769.997 356.784 770.201 355.766 770.608 354.923C771.015 354.071 771.583 353.375 772.312 352.835C773.042 352.295 773.889 351.884 774.855 351.599C775.83 351.315 776.882 351.131 778.009 351.045C779.23 350.951 780.21 350.837 780.949 350.705C781.697 350.562 782.237 350.368 782.568 350.122C782.9 349.866 783.065 349.53 783.065 349.114V349.057C783.065 348.489 782.848 348.053 782.412 347.75C781.976 347.447 781.418 347.295 780.736 347.295C779.988 347.295 779.377 347.461 778.903 347.793C778.439 348.115 778.16 348.612 778.065 349.284H770.849C770.944 347.958 771.366 346.737 772.114 345.619C772.871 344.492 773.974 343.593 775.423 342.92C776.872 342.239 778.681 341.898 780.849 341.898C782.412 341.898 783.813 342.082 785.054 342.452C786.295 342.812 787.35 343.318 788.222 343.972C789.093 344.616 789.756 345.373 790.21 346.244C790.674 347.106 790.906 348.044 790.906 349.057V364H783.577V360.932H783.406C782.971 361.746 782.44 362.404 781.815 362.906C781.2 363.408 780.494 363.773 779.699 364C778.913 364.227 778.046 364.341 777.099 364.341ZM779.656 359.398C780.253 359.398 780.812 359.275 781.332 359.028C781.863 358.782 782.294 358.427 782.625 357.963C782.956 357.499 783.122 356.936 783.122 356.273V354.455C782.914 354.54 782.691 354.62 782.455 354.696C782.227 354.772 781.981 354.843 781.716 354.909C781.46 354.975 781.186 355.037 780.892 355.094C780.608 355.151 780.31 355.203 779.997 355.25C779.391 355.345 778.894 355.501 778.506 355.719C778.127 355.927 777.843 356.188 777.653 356.5C777.473 356.803 777.384 357.144 777.384 357.523C777.384 358.129 777.597 358.593 778.023 358.915C778.449 359.237 778.993 359.398 779.656 359.398ZM802.494 351.727V364H794.653V342.182H802.096V346.33H802.323C802.797 344.947 803.63 343.863 804.823 343.077C806.026 342.291 807.427 341.898 809.028 341.898C810.571 341.898 811.911 342.253 813.048 342.963C814.193 343.664 815.079 344.63 815.704 345.861C816.338 347.092 816.651 348.498 816.641 350.08V364H808.8V351.727C808.81 350.648 808.535 349.8 807.977 349.185C807.427 348.569 806.66 348.261 805.675 348.261C805.031 348.261 804.468 348.403 803.985 348.688C803.512 348.962 803.147 349.36 802.891 349.881C802.636 350.392 802.503 351.008 802.494 351.727ZM831.023 364.398C828.656 364.398 826.629 363.929 824.944 362.991C823.258 362.045 821.966 360.728 821.066 359.043C820.166 357.348 819.717 355.383 819.717 353.148C819.717 350.913 820.166 348.953 821.066 347.267C821.966 345.572 823.258 344.256 824.944 343.318C826.629 342.371 828.656 341.898 831.023 341.898C833.164 341.898 835.015 342.286 836.577 343.062C838.149 343.83 839.366 344.919 840.228 346.33C841.09 347.731 841.525 349.379 841.535 351.273H834.262C834.158 350.127 833.826 349.256 833.268 348.659C832.719 348.053 832.008 347.75 831.137 347.75C830.455 347.75 829.859 347.949 829.347 348.347C828.836 348.735 828.438 349.327 828.154 350.122C827.87 350.908 827.728 351.898 827.728 353.091C827.728 354.284 827.87 355.278 828.154 356.074C828.438 356.86 828.836 357.452 829.347 357.849C829.859 358.238 830.455 358.432 831.137 358.432C831.715 358.432 832.226 358.299 832.671 358.034C833.116 357.759 833.476 357.362 833.751 356.841C834.035 356.311 834.205 355.667 834.262 354.909H841.535C841.506 356.831 841.066 358.508 840.214 359.938C839.362 361.358 838.154 362.456 836.592 363.233C835.039 364.009 833.183 364.398 831.023 364.398ZM855.281 364.398C852.914 364.398 850.887 363.929 849.202 362.991C847.516 362.045 846.223 360.728 845.324 359.043C844.424 357.348 843.974 355.383 843.974 353.148C843.974 350.913 844.424 348.953 845.324 347.267C846.223 345.572 847.516 344.256 849.202 343.318C850.887 342.371 852.914 341.898 855.281 341.898C857.649 341.898 859.675 342.371 861.361 343.318C863.046 344.256 864.339 345.572 865.239 347.267C866.138 348.953 866.588 350.913 866.588 353.148C866.588 355.383 866.138 357.348 865.239 359.043C864.339 360.728 863.046 362.045 861.361 362.991C859.675 363.929 857.649 364.398 855.281 364.398ZM855.338 358.602C856.001 358.602 856.574 358.38 857.057 357.935C857.54 357.49 857.914 356.855 858.179 356.031C858.444 355.207 858.577 354.227 858.577 353.091C858.577 351.945 858.444 350.965 858.179 350.151C857.914 349.327 857.54 348.692 857.057 348.247C856.574 347.802 856.001 347.58 855.338 347.58C854.637 347.58 854.036 347.802 853.534 348.247C853.032 348.692 852.649 349.327 852.384 350.151C852.118 350.965 851.986 351.945 851.986 353.091C851.986 354.227 852.118 355.207 852.384 356.031C852.649 356.855 853.032 357.49 853.534 357.935C854.036 358.38 854.637 358.602 855.338 358.602ZM874.031 364.455C872.933 364.455 871.991 364.071 871.205 363.304C870.428 362.527 870.045 361.585 870.054 360.477C870.045 359.398 870.428 358.474 871.205 357.707C871.991 356.94 872.933 356.557 874.031 356.557C875.073 356.557 875.991 356.94 876.787 357.707C877.592 358.474 877.999 359.398 878.009 360.477C877.999 361.216 877.805 361.888 877.426 362.494C877.057 363.091 876.574 363.569 875.977 363.929C875.381 364.279 874.732 364.455 874.031 364.455Z" fill="black"/>
<path d="M997.096 199.284H989.88C989.842 198.839 989.686 198.455 989.411 198.134C989.137 197.812 988.781 197.565 988.346 197.395C987.92 197.215 987.446 197.125 986.925 197.125C986.253 197.125 985.675 197.248 985.192 197.494C984.71 197.741 984.473 198.091 984.482 198.545C984.473 198.867 984.61 199.166 984.894 199.44C985.188 199.715 985.751 199.928 986.585 200.08L991.016 200.875C993.251 201.282 994.913 201.969 996.002 202.935C997.101 203.891 997.655 205.174 997.664 206.784C997.655 208.337 997.191 209.687 996.272 210.832C995.363 211.969 994.118 212.849 992.536 213.474C990.964 214.09 989.17 214.398 987.153 214.398C983.819 214.398 981.21 213.716 979.326 212.352C977.451 210.989 976.405 209.189 976.187 206.955H983.971C984.075 207.646 984.416 208.181 984.994 208.56C985.581 208.929 986.319 209.114 987.21 209.114C987.929 209.114 988.521 208.991 988.985 208.744C989.459 208.498 989.7 208.148 989.71 207.693C989.7 207.277 989.492 206.945 989.085 206.699C988.687 206.453 988.062 206.254 987.21 206.102L983.346 205.42C981.121 205.032 979.454 204.294 978.346 203.205C977.238 202.116 976.689 200.714 976.698 199C976.689 197.485 977.086 196.202 977.891 195.151C978.706 194.09 979.866 193.285 981.371 192.736C982.887 192.177 984.681 191.898 986.755 191.898C989.908 191.898 992.394 192.551 994.212 193.858C996.04 195.165 997.001 196.973 997.096 199.284ZM1011.18 214.398C1008.81 214.398 1006.79 213.929 1005.1 212.991C1003.41 212.045 1002.12 210.728 1001.22 209.043C1000.32 207.348 999.873 205.383 999.873 203.148C999.873 200.913 1000.32 198.953 1001.22 197.267C1002.12 195.572 1003.41 194.256 1005.1 193.318C1006.79 192.371 1008.81 191.898 1011.18 191.898C1013.55 191.898 1015.57 192.371 1017.26 193.318C1018.94 194.256 1020.24 195.572 1021.14 197.267C1022.04 198.953 1022.49 200.913 1022.49 203.148C1022.49 205.383 1022.04 207.348 1021.14 209.043C1020.24 210.728 1018.94 212.045 1017.26 212.991C1015.57 213.929 1013.55 214.398 1011.18 214.398ZM1011.24 208.602C1011.9 208.602 1012.47 208.38 1012.96 207.935C1013.44 207.49 1013.81 206.855 1014.08 206.031C1014.34 205.207 1014.48 204.227 1014.48 203.091C1014.48 201.945 1014.34 200.965 1014.08 200.151C1013.81 199.327 1013.44 198.692 1012.96 198.247C1012.47 197.802 1011.9 197.58 1011.24 197.58C1010.54 197.58 1009.93 197.802 1009.43 198.247C1008.93 198.692 1008.55 199.327 1008.28 200.151C1008.02 200.965 1007.88 201.945 1007.88 203.091C1007.88 204.227 1008.02 205.207 1008.28 206.031C1008.55 206.855 1008.93 207.49 1009.43 207.935C1009.93 208.38 1010.54 208.602 1011.24 208.602ZM1033.51 201.727V214H1025.67V192.182H1033.11V196.33H1033.34C1033.81 194.947 1034.65 193.863 1035.84 193.077C1037.04 192.291 1038.44 191.898 1040.04 191.898C1041.59 191.898 1042.93 192.253 1044.06 192.963C1045.21 193.664 1046.09 194.63 1046.72 195.861C1047.35 197.092 1047.67 198.498 1047.66 200.08V214H1039.82V201.727C1039.83 200.648 1039.55 199.8 1038.99 199.185C1038.44 198.569 1037.68 198.261 1036.69 198.261C1036.05 198.261 1035.48 198.403 1035 198.688C1034.53 198.962 1034.16 199.36 1033.91 199.881C1033.65 200.392 1033.52 201.008 1033.51 201.727ZM1059.37 201.727V214H1051.53V184.909H1059.08V196.33H1059.31C1059.8 194.937 1060.62 193.853 1061.77 193.077C1062.92 192.291 1064.29 191.898 1065.9 191.898C1067.45 191.898 1068.79 192.248 1069.92 192.949C1071.07 193.65 1071.95 194.616 1072.58 195.847C1073.21 197.078 1073.53 198.489 1073.52 200.08V214H1065.68V201.727C1065.68 200.648 1065.42 199.8 1064.87 199.185C1064.33 198.569 1063.55 198.261 1062.55 198.261C1061.92 198.261 1061.36 198.403 1060.87 198.688C1060.4 198.962 1060.03 199.36 1059.77 199.881C1059.51 200.392 1059.38 201.008 1059.37 201.727ZM1087.9 214.398C1085.53 214.398 1083.5 213.929 1081.82 212.991C1080.13 212.045 1078.84 210.728 1077.94 209.043C1077.04 207.348 1076.59 205.383 1076.59 203.148C1076.59 200.913 1077.04 198.953 1077.94 197.267C1078.84 195.572 1080.13 194.256 1081.82 193.318C1083.5 192.371 1085.53 191.898 1087.9 191.898C1090.27 191.898 1092.29 192.371 1093.98 193.318C1095.66 194.256 1096.96 195.572 1097.86 197.267C1098.76 198.953 1099.21 200.913 1099.21 203.148C1099.21 205.383 1098.76 207.348 1097.86 209.043C1096.96 210.728 1095.66 212.045 1093.98 212.991C1092.29 213.929 1090.27 214.398 1087.9 214.398ZM1087.96 208.602C1088.62 208.602 1089.19 208.38 1089.67 207.935C1090.16 207.49 1090.53 206.855 1090.8 206.031C1091.06 205.207 1091.19 204.227 1091.19 203.091C1091.19 201.945 1091.06 200.965 1090.8 200.151C1090.53 199.327 1090.16 198.692 1089.67 198.247C1089.19 197.802 1088.62 197.58 1087.96 197.58C1087.25 197.58 1086.65 197.802 1086.15 198.247C1085.65 198.692 1085.27 199.327 1085 200.151C1084.74 200.965 1084.6 201.945 1084.6 203.091C1084.6 204.227 1084.74 205.207 1085 206.031C1085.27 206.855 1085.65 207.49 1086.15 207.935C1086.65 208.38 1087.25 208.602 1087.96 208.602ZM1122.33 199.284H1115.11C1115.08 198.839 1114.92 198.455 1114.65 198.134C1114.37 197.812 1114.02 197.565 1113.58 197.395C1113.15 197.215 1112.68 197.125 1112.16 197.125C1111.49 197.125 1110.91 197.248 1110.43 197.494C1109.94 197.741 1109.71 198.091 1109.72 198.545C1109.71 198.867 1109.84 199.166 1110.13 199.44C1110.42 199.715 1110.99 199.928 1111.82 200.08L1116.25 200.875C1118.49 201.282 1120.15 201.969 1121.24 202.935C1122.33 203.891 1122.89 205.174 1122.9 206.784C1122.89 208.337 1122.42 209.687 1121.51 210.832C1120.6 211.969 1119.35 212.849 1117.77 213.474C1116.2 214.09 1114.4 214.398 1112.39 214.398C1109.05 214.398 1106.44 213.716 1104.56 212.352C1102.69 210.989 1101.64 209.189 1101.42 206.955H1109.21C1109.31 207.646 1109.65 208.181 1110.23 208.56C1110.82 208.929 1111.55 209.114 1112.44 209.114C1113.16 209.114 1113.76 208.991 1114.22 208.744C1114.69 208.498 1114.93 208.148 1114.94 207.693C1114.93 207.277 1114.73 206.945 1114.32 206.699C1113.92 206.453 1113.3 206.254 1112.44 206.102L1108.58 205.42C1106.35 205.032 1104.69 204.294 1103.58 203.205C1102.47 202.116 1101.92 200.714 1101.93 199C1101.92 197.485 1102.32 196.202 1103.13 195.151C1103.94 194.09 1105.1 193.285 1106.61 192.736C1108.12 192.177 1109.92 191.898 1111.99 191.898C1115.14 191.898 1117.63 192.551 1119.45 193.858C1121.27 195.165 1122.24 196.973 1122.33 199.284ZM1144.33 214.398C1142 214.398 1139.99 213.953 1138.3 213.062C1136.63 212.163 1135.33 210.875 1134.43 209.199C1133.53 207.513 1133.08 205.496 1133.08 203.148C1133.08 200.894 1133.53 198.924 1134.44 197.239C1135.35 195.553 1136.63 194.241 1138.29 193.304C1139.95 192.366 1141.9 191.898 1144.16 191.898C1145.8 191.898 1147.29 192.153 1148.63 192.665C1149.97 193.176 1151.11 193.92 1152.05 194.895C1153 195.861 1153.73 197.035 1154.24 198.418C1154.75 199.8 1155.01 201.358 1155.01 203.091V204.909H1135.52V200.591H1147.79C1147.78 199.966 1147.62 199.417 1147.31 198.943C1147.01 198.46 1146.59 198.086 1146.07 197.821C1145.56 197.546 1144.98 197.409 1144.33 197.409C1143.69 197.409 1143.11 197.546 1142.58 197.821C1142.05 198.086 1141.62 198.455 1141.3 198.929C1140.99 199.402 1140.82 199.956 1140.8 200.591V205.25C1140.8 205.951 1140.95 206.576 1141.24 207.125C1141.54 207.674 1141.96 208.105 1142.51 208.418C1143.06 208.73 1143.72 208.886 1144.5 208.886C1145.04 208.886 1145.53 208.811 1145.97 208.659C1146.43 208.508 1146.82 208.29 1147.14 208.006C1147.46 207.712 1147.7 207.362 1147.85 206.955H1155.01C1154.76 208.47 1154.18 209.786 1153.26 210.903C1152.34 212.011 1151.13 212.873 1149.61 213.489C1148.1 214.095 1146.34 214.398 1144.33 214.398ZM1158.21 214V192.182H1165.65V196.33H1165.88C1166.33 194.966 1167.11 193.886 1168.21 193.091C1169.31 192.295 1170.61 191.898 1172.13 191.898C1173.66 191.898 1174.98 192.305 1176.09 193.119C1177.2 193.924 1177.87 194.994 1178.09 196.33H1178.32C1178.69 194.994 1179.48 193.924 1180.68 193.119C1181.88 192.305 1183.29 191.898 1184.91 191.898C1187 191.898 1188.7 192.57 1190 193.915C1191.3 195.259 1191.96 197.049 1191.96 199.284V214H1184.12V201.273C1184.12 200.316 1183.88 199.568 1183.39 199.028C1182.91 198.479 1182.26 198.205 1181.45 198.205C1180.64 198.205 1180 198.479 1179.53 199.028C1179.06 199.568 1178.83 200.316 1178.83 201.273V214H1171.33V201.273C1171.33 200.316 1171.09 199.568 1170.61 199.028C1170.13 198.479 1169.48 198.205 1168.66 198.205C1168.12 198.205 1167.66 198.328 1167.27 198.574C1166.88 198.82 1166.58 199.175 1166.36 199.639C1166.15 200.094 1166.05 200.638 1166.05 201.273V214H1158.21ZM1214.3 214.398C1211.94 214.398 1209.91 213.929 1208.23 212.991C1206.54 212.045 1205.25 210.728 1204.35 209.043C1203.45 207.348 1203 205.383 1203 203.148C1203 200.913 1203.45 198.953 1204.35 197.267C1205.25 195.572 1206.54 194.256 1208.23 193.318C1209.91 192.371 1211.94 191.898 1214.3 191.898C1216.67 191.898 1218.7 192.371 1220.38 193.318C1222.07 194.256 1223.36 195.572 1224.26 197.267C1225.16 198.953 1225.61 200.913 1225.61 203.148C1225.61 205.383 1225.16 207.348 1224.26 209.043C1223.36 210.728 1222.07 212.045 1220.38 212.991C1218.7 213.929 1216.67 214.398 1214.3 214.398ZM1214.36 208.602C1215.02 208.602 1215.6 208.38 1216.08 207.935C1216.56 207.49 1216.94 206.855 1217.2 206.031C1217.47 205.207 1217.6 204.227 1217.6 203.091C1217.6 201.945 1217.47 200.965 1217.2 200.151C1216.94 199.327 1216.56 198.692 1216.08 198.247C1215.6 197.802 1215.02 197.58 1214.36 197.58C1213.66 197.58 1213.06 197.802 1212.56 198.247C1212.06 198.692 1211.67 199.327 1211.41 200.151C1211.14 200.965 1211.01 201.945 1211.01 203.091C1211.01 204.227 1211.14 205.207 1211.41 206.031C1211.67 206.855 1212.06 207.49 1212.56 207.935C1213.06 208.38 1213.66 208.602 1214.36 208.602ZM1228.68 214V184.909H1236.52V195.989H1236.63C1236.92 195.25 1237.33 194.573 1237.88 193.957C1238.43 193.332 1239.12 192.835 1239.93 192.466C1240.74 192.087 1241.69 191.898 1242.77 191.898C1244.21 191.898 1245.58 192.281 1246.88 193.048C1248.18 193.815 1249.24 195.023 1250.06 196.67C1250.88 198.318 1251.29 200.458 1251.29 203.091C1251.29 205.61 1250.9 207.698 1250.11 209.355C1249.34 211.012 1248.3 212.248 1246.99 213.062C1245.69 213.877 1244.27 214.284 1242.71 214.284C1241.69 214.284 1240.78 214.118 1239.97 213.787C1239.18 213.446 1238.5 212.987 1237.93 212.409C1237.37 211.822 1236.94 211.159 1236.63 210.42H1236.46V214H1228.68ZM1236.35 203.091C1236.35 204.152 1236.49 205.07 1236.76 205.847C1237.05 206.614 1237.44 207.21 1237.96 207.636C1238.48 208.053 1239.1 208.261 1239.82 208.261C1240.54 208.261 1241.15 208.058 1241.65 207.651C1242.16 207.234 1242.55 206.642 1242.81 205.875C1243.09 205.098 1243.23 204.17 1243.23 203.091C1243.23 202.011 1243.09 201.088 1242.81 200.321C1242.55 199.545 1242.16 198.953 1241.65 198.545C1241.15 198.129 1240.54 197.92 1239.82 197.92C1239.1 197.92 1238.48 198.129 1237.96 198.545C1237.44 198.953 1237.05 199.545 1236.76 200.321C1236.49 201.088 1236.35 202.011 1236.35 203.091ZM1254.57 214V192.182H1262.19V196.33H1262.42C1262.81 194.795 1263.44 193.673 1264.3 192.963C1265.18 192.253 1266.19 191.898 1267.36 191.898C1267.7 191.898 1268.04 191.926 1268.37 191.983C1268.71 192.03 1269.03 192.101 1269.35 192.196V198.886C1268.96 198.754 1268.48 198.654 1267.91 198.588C1267.34 198.522 1266.86 198.489 1266.45 198.489C1265.68 198.489 1264.99 198.664 1264.38 199.014C1263.77 199.355 1263.29 199.838 1262.94 200.463C1262.59 201.079 1262.42 201.803 1262.42 202.636V214H1254.57ZM1276.98 214.341C1275.59 214.341 1274.36 214.114 1273.29 213.659C1272.23 213.195 1271.4 212.494 1270.79 211.557C1270.18 210.619 1269.88 209.426 1269.88 207.977C1269.88 206.784 1270.08 205.766 1270.49 204.923C1270.9 204.071 1271.47 203.375 1272.2 202.835C1272.92 202.295 1273.77 201.884 1274.74 201.599C1275.71 201.315 1276.76 201.131 1277.89 201.045C1279.11 200.951 1280.09 200.837 1280.83 200.705C1281.58 200.562 1282.12 200.368 1282.45 200.122C1282.78 199.866 1282.95 199.53 1282.95 199.114V199.057C1282.95 198.489 1282.73 198.053 1282.29 197.75C1281.86 197.447 1281.3 197.295 1280.62 197.295C1279.87 197.295 1279.26 197.461 1278.79 197.793C1278.32 198.115 1278.04 198.612 1277.95 199.284H1270.73C1270.83 197.958 1271.25 196.737 1272 195.619C1272.75 194.492 1273.86 193.593 1275.31 192.92C1276.75 192.239 1278.56 191.898 1280.73 191.898C1282.29 191.898 1283.7 192.082 1284.94 192.452C1286.18 192.812 1287.23 193.318 1288.1 193.972C1288.98 194.616 1289.64 195.373 1290.09 196.244C1290.56 197.106 1290.79 198.044 1290.79 199.057V214H1283.46V210.932H1283.29C1282.85 211.746 1282.32 212.404 1281.7 212.906C1281.08 213.408 1280.38 213.773 1279.58 214C1278.8 214.227 1277.93 214.341 1276.98 214.341ZM1279.54 209.398C1280.14 209.398 1280.69 209.275 1281.22 209.028C1281.75 208.782 1282.18 208.427 1282.51 207.963C1282.84 207.499 1283 206.936 1283 206.273V204.455C1282.8 204.54 1282.57 204.62 1282.34 204.696C1282.11 204.772 1281.86 204.843 1281.6 204.909C1281.34 204.975 1281.07 205.037 1280.77 205.094C1280.49 205.151 1280.19 205.203 1279.88 205.25C1279.27 205.345 1278.78 205.501 1278.39 205.719C1278.01 205.927 1277.73 206.188 1277.54 206.5C1277.36 206.803 1277.27 207.144 1277.27 207.523C1277.27 208.129 1277.48 208.593 1277.91 208.915C1278.33 209.237 1278.88 209.398 1279.54 209.398ZM1314.48 199.284H1307.26C1307.22 198.839 1307.07 198.455 1306.79 198.134C1306.52 197.812 1306.16 197.565 1305.73 197.395C1305.3 197.215 1304.83 197.125 1304.31 197.125C1303.64 197.125 1303.06 197.248 1302.58 197.494C1302.09 197.741 1301.86 198.091 1301.87 198.545C1301.86 198.867 1301.99 199.166 1302.28 199.44C1302.57 199.715 1303.13 199.928 1303.97 200.08L1308.4 200.875C1310.63 201.282 1312.3 201.969 1313.38 202.935C1314.48 203.891 1315.04 205.174 1315.05 206.784C1315.04 208.337 1314.57 209.687 1313.65 210.832C1312.75 211.969 1311.5 212.849 1309.92 213.474C1308.35 214.09 1306.55 214.398 1304.54 214.398C1301.2 214.398 1298.59 213.716 1296.71 212.352C1294.83 210.989 1293.79 209.189 1293.57 206.955H1301.35C1301.46 207.646 1301.8 208.181 1302.38 208.56C1302.96 208.929 1303.7 209.114 1304.59 209.114C1305.31 209.114 1305.9 208.991 1306.37 208.744C1306.84 208.498 1307.08 208.148 1307.09 207.693C1307.08 207.277 1306.87 206.945 1306.47 206.699C1306.07 206.453 1305.44 206.254 1304.59 206.102L1300.73 205.42C1298.5 205.032 1296.84 204.294 1295.73 203.205C1294.62 202.116 1294.07 200.714 1294.08 199C1294.07 197.485 1294.47 196.202 1295.27 195.151C1296.09 194.09 1297.25 193.285 1298.75 192.736C1300.27 192.177 1302.06 191.898 1304.14 191.898C1307.29 191.898 1309.78 192.551 1311.6 193.858C1313.42 195.165 1314.38 196.973 1314.48 199.284ZM666.886 264.284C665.333 264.284 663.903 263.877 662.597 263.062C661.299 262.248 660.258 261.012 659.472 259.355C658.695 257.698 658.307 255.61 658.307 253.091C658.307 250.458 658.714 248.318 659.528 246.67C660.352 245.023 661.413 243.815 662.71 243.048C664.017 242.281 665.39 241.898 666.83 241.898C667.909 241.898 668.856 242.087 669.67 242.466C670.485 242.835 671.167 243.332 671.716 243.957C672.265 244.573 672.682 245.25 672.966 245.989H673.08V234.909H680.92V264H673.136V260.42H672.966C672.663 261.159 672.227 261.822 671.659 262.409C671.1 262.987 670.419 263.446 669.614 263.787C668.818 264.118 667.909 264.284 666.886 264.284ZM669.784 258.261C670.504 258.261 671.119 258.053 671.631 257.636C672.152 257.21 672.549 256.614 672.824 255.847C673.108 255.07 673.25 254.152 673.25 253.091C673.25 252.011 673.108 251.088 672.824 250.321C672.549 249.545 672.152 248.953 671.631 248.545C671.119 248.129 670.504 247.92 669.784 247.92C669.064 247.92 668.449 248.129 667.938 248.545C667.436 248.953 667.047 249.545 666.773 250.321C666.508 251.088 666.375 252.011 666.375 253.091C666.375 254.17 666.508 255.098 666.773 255.875C667.047 256.642 667.436 257.234 667.938 257.651C668.449 258.058 669.064 258.261 669.784 258.261ZM695.224 264.398C692.895 264.398 690.887 263.953 689.202 263.062C687.526 262.163 686.233 260.875 685.324 259.199C684.424 257.513 683.974 255.496 683.974 253.148C683.974 250.894 684.429 248.924 685.338 247.239C686.247 245.553 687.53 244.241 689.188 243.304C690.845 242.366 692.8 241.898 695.054 241.898C696.702 241.898 698.193 242.153 699.528 242.665C700.864 243.176 702.005 243.92 702.952 244.895C703.899 245.861 704.628 247.035 705.139 248.418C705.651 249.8 705.906 251.358 705.906 253.091V254.909H686.418V250.591H698.69C698.681 249.966 698.52 249.417 698.207 248.943C697.904 248.46 697.492 248.086 696.972 247.821C696.46 247.546 695.878 247.409 695.224 247.409C694.59 247.409 694.008 247.546 693.477 247.821C692.947 248.086 692.521 248.455 692.199 248.929C691.886 249.402 691.721 249.956 691.702 250.591V255.25C691.702 255.951 691.848 256.576 692.142 257.125C692.436 257.674 692.857 258.105 693.406 258.418C693.955 258.73 694.618 258.886 695.395 258.886C695.935 258.886 696.427 258.811 696.872 258.659C697.327 258.508 697.715 258.29 698.037 258.006C698.359 257.712 698.596 257.362 698.747 256.955H705.906C705.66 258.47 705.078 259.786 704.159 260.903C703.241 262.011 702.024 262.873 700.509 263.489C699.003 264.095 697.241 264.398 695.224 264.398ZM723.154 264.341C721.762 264.341 720.531 264.114 719.461 263.659C718.4 263.195 717.567 262.494 716.961 261.557C716.355 260.619 716.052 259.426 716.052 257.977C716.052 256.784 716.255 255.766 716.663 254.923C717.07 254.071 717.638 253.375 718.367 252.835C719.096 252.295 719.944 251.884 720.91 251.599C721.885 251.315 722.936 251.131 724.063 251.045C725.285 250.951 726.265 250.837 727.004 250.705C727.752 250.562 728.291 250.368 728.623 250.122C728.954 249.866 729.12 249.53 729.12 249.114V249.057C729.12 248.489 728.902 248.053 728.467 247.75C728.031 247.447 727.472 247.295 726.79 247.295C726.042 247.295 725.432 247.461 724.958 247.793C724.494 248.115 724.215 248.612 724.12 249.284H716.904C716.999 247.958 717.42 246.737 718.168 245.619C718.926 244.492 720.029 243.593 721.478 242.92C722.927 242.239 724.736 241.898 726.904 241.898C728.467 241.898 729.868 242.082 731.109 242.452C732.349 242.812 733.405 243.318 734.276 243.972C735.147 244.616 735.81 245.373 736.265 246.244C736.729 247.106 736.961 248.044 736.961 249.057V264H729.631V260.932H729.461C729.025 261.746 728.495 262.404 727.87 262.906C727.254 263.408 726.549 263.773 725.754 264C724.968 264.227 724.101 264.341 723.154 264.341ZM725.711 259.398C726.308 259.398 726.866 259.275 727.387 259.028C727.917 258.782 728.348 258.427 728.68 257.963C729.011 257.499 729.177 256.936 729.177 256.273V254.455C728.969 254.54 728.746 254.62 728.509 254.696C728.282 254.772 728.036 254.843 727.771 254.909C727.515 254.975 727.24 255.037 726.947 255.094C726.663 255.151 726.364 255.203 726.052 255.25C725.446 255.345 724.949 255.501 724.56 255.719C724.182 255.927 723.897 256.188 723.708 256.5C723.528 256.803 723.438 257.144 723.438 257.523C723.438 258.129 723.651 258.593 724.077 258.915C724.504 259.237 725.048 259.398 725.711 259.398ZM740.707 264V242.182H748.321V246.33H748.548C748.946 244.795 749.576 243.673 750.438 242.963C751.309 242.253 752.327 241.898 753.491 241.898C753.832 241.898 754.169 241.926 754.5 241.983C754.841 242.03 755.168 242.101 755.48 242.196V248.886C755.092 248.754 754.614 248.654 754.045 248.588C753.477 248.522 752.99 248.489 752.582 248.489C751.815 248.489 751.124 248.664 750.509 249.014C749.902 249.355 749.424 249.838 749.074 250.463C748.723 251.079 748.548 251.803 748.548 252.636V264H740.707ZM771.961 242.182V247.864H757.586V242.182H771.961ZM760.37 236.955H768.211V256.983C768.211 257.286 768.263 257.542 768.367 257.75C768.471 257.949 768.632 258.1 768.85 258.205C769.068 258.299 769.347 258.347 769.688 258.347C769.925 258.347 770.2 258.318 770.512 258.261C770.834 258.205 771.071 258.157 771.222 258.119L772.359 263.631C772.008 263.735 771.506 263.863 770.853 264.014C770.209 264.166 769.442 264.265 768.552 264.312C766.753 264.407 765.242 264.223 764.021 263.759C762.799 263.285 761.88 262.542 761.265 261.528C760.649 260.515 760.351 259.246 760.37 257.722V236.955ZM785.381 264.398C783.051 264.398 781.044 263.953 779.358 263.062C777.682 262.163 776.389 260.875 775.48 259.199C774.58 257.513 774.131 255.496 774.131 253.148C774.131 250.894 774.585 248.924 775.494 247.239C776.403 245.553 777.687 244.241 779.344 243.304C781.001 242.366 782.956 241.898 785.21 241.898C786.858 241.898 788.349 242.153 789.685 242.665C791.02 243.176 792.161 243.92 793.108 244.895C794.055 245.861 794.784 247.035 795.295 248.418C795.807 249.8 796.062 251.358 796.062 253.091V254.909H776.574V250.591H788.847C788.837 249.966 788.676 249.417 788.364 248.943C788.061 248.46 787.649 248.086 787.128 247.821C786.616 247.546 786.034 247.409 785.381 247.409C784.746 247.409 784.164 247.546 783.634 247.821C783.103 248.086 782.677 248.455 782.355 248.929C782.043 249.402 781.877 249.956 781.858 250.591V255.25C781.858 255.951 782.005 256.576 782.298 257.125C782.592 257.674 783.013 258.105 783.562 258.418C784.112 258.73 784.775 258.886 785.551 258.886C786.091 258.886 786.583 258.811 787.028 258.659C787.483 258.508 787.871 258.29 788.193 258.006C788.515 257.712 788.752 257.362 788.903 256.955H796.062C795.816 258.47 795.234 259.786 794.315 260.903C793.397 262.011 792.18 262.873 790.665 263.489C789.159 264.095 787.398 264.398 785.381 264.398Z" fill="#9D3207"/>
</svg>
