<svg width="1372" height="750" viewBox="0 0 1372 750" fill="none" xmlns="http://www.w3.org/2000/svg">
<g clip-path="url(#clip0_1253_458)">
<rect width="1372" height="750" fill="#F3F3DC"/>
<path d="M688.988 40.3038C686.388 46.9418 693.32 53.2911 703.14 53.2911C737.221 53.2911 786.609 76.957 817.801 108.127C910.801 201.058 882.208 353.732 761.482 410.01C734.044 422.709 711.805 426.461 675.702 425.018C625.447 422.709 587.323 405.97 552.087 370.76C522.05 340.456 502.988 301.782 498.367 261.377C496.345 241.752 491.435 235.114 483.926 241.175C474.106 249.256 487.969 307.843 507.898 341.61C534.469 386.344 572.305 416.36 625.736 434.542C643.354 440.603 651.152 441.468 684.944 441.18C718.736 441.18 726.823 440.025 746.174 433.676C779.966 422.42 805.093 407.124 829.643 382.592C905.892 306.4 909.935 186.916 839.463 104.375C824.155 86.7696 794.696 64.5468 772.457 54.157C737.221 37.9949 692.742 30.4911 688.988 40.3038Z" fill="#9D3207"/>
<path d="M690.721 72.0506C685.233 78.6885 689.566 84.4607 701.407 86.4809C741.553 93.4075 766.681 105.529 792.097 130.927C871.233 210.005 844.951 337.858 740.687 381.727C709.783 394.714 667.326 395.003 632.09 382.592C617.361 377.686 597.143 365.565 577.215 349.98C569.994 344.208 568.839 343.919 564.795 348.248C559.019 354.02 561.33 358.349 577.792 372.203C607.83 397.023 644.221 409.433 686.389 409.144C736.066 408.856 778.233 390.673 811.736 354.886C847.839 316.213 863.724 262.243 854.193 210.005C843.218 147.666 795.563 93.6961 736.932 76.3797C708.628 68.2987 695.053 66.8556 690.721 72.0506Z" fill="#9D3207"/>
<path d="M691.01 106.395C684.656 113.899 689.277 118.516 706.317 121.98C744.441 129.772 775.056 152.861 791.519 186.339C827.333 259.357 782.566 344.785 702.274 357.195C681.767 360.37 675.413 365.276 682.634 372.78C688.41 378.263 719.314 372.491 744.153 360.947C833.109 319.965 846.684 193.266 768.702 132.081C742.42 111.59 698.808 97.1595 691.01 106.395Z" fill="#9D3207"/>
<path d="M671.081 154.881C642.777 159.21 621.982 174.506 607.541 201.924C601.187 214.046 599.743 220.106 599.743 239.443C599.743 258.78 601.187 264.841 607.541 277.251C624.292 308.997 654.618 326.025 690.143 324.005C762.348 319.965 797.295 236.557 749.64 183.453C727.69 159.21 703.14 150.263 671.081 154.881Z" fill="#9D3207"/>
<path d="M410.636 562H390.182L413.227 492.182H439.136L462.182 562H441.727L426.455 511.409H425.909L410.636 562ZM406.818 534.455H445.273V548.636H406.818V534.455ZM468.906 562V492.182H499.043C504.224 492.182 508.759 493.125 512.645 495.011C516.531 496.898 519.554 499.614 521.713 503.159C523.872 506.705 524.952 510.955 524.952 515.909C524.952 520.909 523.838 525.125 521.611 528.557C519.406 531.989 516.304 534.58 512.304 536.33C508.327 538.08 503.679 538.955 498.361 538.955H480.361V524.227H494.543C496.77 524.227 498.668 523.955 500.236 523.409C501.827 522.841 503.043 521.943 503.884 520.716C504.747 519.489 505.179 517.886 505.179 515.909C505.179 513.909 504.747 512.284 503.884 511.034C503.043 509.761 501.827 508.83 500.236 508.239C498.668 507.625 496.77 507.318 494.543 507.318H487.861V562H468.906ZM509.815 529.955L527.27 562H506.679L489.634 529.955H509.815ZM531.122 507.455V492.182H591.804V507.455H570.804V562H552.122V507.455H531.122ZM598.938 562V492.182H649.256V507.455H617.892V519.455H646.665V534.727H617.892V546.727H649.119V562H598.938ZM696.293 514C696.111 511.727 695.259 509.955 693.736 508.682C692.236 507.409 689.952 506.773 686.884 506.773C684.929 506.773 683.327 507.011 682.077 507.489C680.849 507.943 679.94 508.568 679.349 509.364C678.759 510.159 678.452 511.068 678.429 512.091C678.384 512.932 678.531 513.693 678.872 514.375C679.236 515.034 679.804 515.636 680.577 516.182C681.349 516.705 682.338 517.182 683.543 517.614C684.747 518.045 686.179 518.432 687.838 518.773L693.565 520C697.429 520.818 700.736 521.898 703.486 523.239C706.236 524.58 708.486 526.159 710.236 527.977C711.986 529.773 713.27 531.795 714.088 534.045C714.929 536.295 715.361 538.75 715.384 541.409C715.361 546 714.213 549.886 711.94 553.068C709.668 556.25 706.418 558.67 702.19 560.33C697.986 561.989 692.929 562.818 687.02 562.818C680.952 562.818 675.656 561.92 671.134 560.125C666.634 558.33 663.134 555.568 660.634 551.841C658.156 548.091 656.906 543.295 656.884 537.455H674.884C674.997 539.591 675.531 541.386 676.486 542.841C677.44 544.295 678.781 545.398 680.509 546.148C682.259 546.898 684.338 547.273 686.747 547.273C688.77 547.273 690.463 547.023 691.827 546.523C693.19 546.023 694.224 545.33 694.929 544.443C695.634 543.557 695.997 542.545 696.02 541.409C695.997 540.341 695.645 539.409 694.963 538.614C694.304 537.795 693.213 537.068 691.69 536.432C690.168 535.773 688.111 535.159 685.52 534.591L678.565 533.091C672.384 531.75 667.509 529.511 663.94 526.375C660.395 523.216 658.634 518.909 658.656 513.455C658.634 509.023 659.815 505.148 662.202 501.83C664.611 498.489 667.94 495.886 672.19 494.023C676.463 492.159 681.361 491.227 686.884 491.227C692.52 491.227 697.395 492.17 701.509 494.057C705.622 495.943 708.793 498.602 711.02 502.034C713.27 505.443 714.406 509.432 714.429 514H696.293ZM738.011 562H717.557L740.602 492.182H766.511L789.557 562H769.102L753.83 511.409H753.284L738.011 562ZM734.193 534.455H772.648V548.636H734.193V534.455ZM856.69 492.182V562H840.872L815.645 525.318H815.236V562H796.281V492.182H812.372L837.19 528.727H837.736V492.182H856.69ZM884.611 492.182V562H865.656V492.182H884.611ZM911.73 562H891.276L914.321 492.182H940.23L963.276 562H942.821L927.548 511.409H927.003L911.73 562ZM907.912 534.455H946.366V548.636H907.912V534.455Z" fill="#9D3207"/>
<path d="M46.396 621.273V614.909H71.68V621.273H62.93V644H55.146V621.273H46.396ZM72.5004 644V622.182H80.114V626.33H80.3413C80.739 624.795 81.3687 623.673 82.2305 622.963C83.1017 622.253 84.1197 621.898 85.2844 621.898C85.6254 621.898 85.9615 621.926 86.293 621.983C86.6339 622.03 86.9606 622.101 87.2731 622.196V628.886C86.8848 628.754 86.4066 628.654 85.8384 628.588C85.2702 628.522 84.7826 628.489 84.3754 628.489C83.6083 628.489 82.917 628.664 82.3015 629.014C81.6954 629.355 81.2172 629.838 80.8668 630.463C80.5165 631.079 80.3413 631.803 80.3413 632.636V644H72.5004ZM94.908 644.341C93.516 644.341 92.2849 644.114 91.2148 643.659C90.1542 643.195 89.3209 642.494 88.7148 641.557C88.1088 640.619 87.8058 639.426 87.8058 637.977C87.8058 636.784 88.0094 635.766 88.4165 634.923C88.8237 634.071 89.3919 633.375 90.1211 632.835C90.8503 632.295 91.6978 631.884 92.6637 631.599C93.6391 631.315 94.6902 631.131 95.8171 631.045C97.0387 630.951 98.0188 630.837 98.7575 630.705C99.5056 630.562 100.045 630.368 100.377 630.122C100.708 629.866 100.874 629.53 100.874 629.114V629.057C100.874 628.489 100.656 628.053 100.221 627.75C99.7849 627.447 99.2262 627.295 98.5444 627.295C97.7963 627.295 97.1855 627.461 96.712 627.793C96.248 628.115 95.9686 628.612 95.8739 629.284H88.658C88.7527 627.958 89.1741 626.737 89.9222 625.619C90.6798 624.492 91.783 623.593 93.2319 622.92C94.6808 622.239 96.4895 621.898 98.658 621.898C100.221 621.898 101.622 622.082 102.863 622.452C104.103 622.812 105.159 623.318 106.03 623.972C106.901 624.616 107.564 625.373 108.019 626.244C108.483 627.106 108.715 628.044 108.715 629.057V644H101.385V640.932H101.215C100.779 641.746 100.249 642.404 99.6239 642.906C99.0084 643.408 98.3029 643.773 97.5075 644C96.7215 644.227 95.855 644.341 94.908 644.341ZM97.4648 639.398C98.0614 639.398 98.6201 639.275 99.141 639.028C99.6713 638.782 100.102 638.427 100.434 637.963C100.765 637.499 100.931 636.936 100.931 636.273V634.455C100.722 634.54 100.5 634.62 100.263 634.696C100.036 634.772 99.7897 634.843 99.5245 634.909C99.2688 634.975 98.9942 635.037 98.7006 635.094C98.4165 635.151 98.1183 635.203 97.8058 635.25C97.1997 635.345 96.7025 635.501 96.3143 635.719C95.9355 635.927 95.6514 636.188 95.462 636.5C95.2821 636.803 95.1921 637.144 95.1921 637.523C95.1921 638.129 95.4052 638.593 95.8313 638.915C96.2575 639.237 96.802 639.398 97.4648 639.398ZM120.302 631.727V644H112.461V622.182H119.904V626.33H120.132C120.605 624.947 121.439 623.863 122.632 623.077C123.834 622.291 125.236 621.898 126.836 621.898C128.38 621.898 129.72 622.253 130.856 622.963C132.002 623.664 132.887 624.63 133.512 625.861C134.147 627.092 134.459 628.498 134.45 630.08V644H126.609V631.727C126.618 630.648 126.344 629.8 125.785 629.185C125.236 628.569 124.469 628.261 123.484 628.261C122.84 628.261 122.277 628.403 121.794 628.688C121.32 628.962 120.956 629.36 120.7 629.881C120.444 630.392 120.312 631.008 120.302 631.727ZM158.264 629.284H151.048C151.01 628.839 150.854 628.455 150.579 628.134C150.305 627.812 149.949 627.565 149.514 627.395C149.088 627.215 148.614 627.125 148.093 627.125C147.421 627.125 146.843 627.248 146.36 627.494C145.877 627.741 145.641 628.091 145.65 628.545C145.641 628.867 145.778 629.166 146.062 629.44C146.356 629.715 146.919 629.928 147.752 630.08L152.184 630.875C154.419 631.282 156.081 631.969 157.17 632.935C158.269 633.891 158.823 635.174 158.832 636.784C158.823 638.337 158.359 639.687 157.44 640.832C156.531 641.969 155.286 642.849 153.704 643.474C152.132 644.09 150.338 644.398 148.321 644.398C144.987 644.398 142.378 643.716 140.494 642.352C138.619 640.989 137.573 639.189 137.355 636.955H145.139C145.243 637.646 145.584 638.181 146.162 638.56C146.749 638.929 147.487 639.114 148.377 639.114C149.097 639.114 149.689 638.991 150.153 638.744C150.627 638.498 150.868 638.148 150.877 637.693C150.868 637.277 150.66 636.945 150.252 636.699C149.855 636.453 149.23 636.254 148.377 636.102L144.514 635.42C142.288 635.032 140.622 634.294 139.514 633.205C138.406 632.116 137.857 630.714 137.866 629C137.857 627.485 138.254 626.202 139.059 625.151C139.874 624.09 141.034 623.285 142.539 622.736C144.055 622.177 145.849 621.898 147.923 621.898C151.076 621.898 153.562 622.551 155.38 623.858C157.208 625.165 158.169 626.973 158.264 629.284ZM174.904 622.182V627.864H160.302V622.182H174.904ZM163.086 644V621.557C163.086 619.758 163.408 618.266 164.052 617.082C164.696 615.899 165.605 615.013 166.779 614.426C167.954 613.839 169.336 613.545 170.927 613.545C171.922 613.545 172.887 613.621 173.825 613.773C174.772 613.924 175.473 614.057 175.927 614.17L174.791 619.795C174.507 619.71 174.175 619.644 173.797 619.597C173.418 619.54 173.086 619.511 172.802 619.511C172.064 619.511 171.566 619.668 171.311 619.98C171.055 620.293 170.927 620.705 170.927 621.216V644H163.086ZM187.777 644.398C185.41 644.398 183.383 643.929 181.698 642.991C180.012 642.045 178.72 640.728 177.82 639.043C176.92 637.348 176.471 635.383 176.471 633.148C176.471 630.913 176.92 628.953 177.82 627.267C178.72 625.572 180.012 624.256 181.698 623.318C183.383 622.371 185.41 621.898 187.777 621.898C190.145 621.898 192.171 622.371 193.857 623.318C195.542 624.256 196.835 625.572 197.735 627.267C198.634 628.953 199.084 630.913 199.084 633.148C199.084 635.383 198.634 637.348 197.735 639.043C196.835 640.728 195.542 642.045 193.857 642.991C192.171 643.929 190.145 644.398 187.777 644.398ZM187.834 638.602C188.497 638.602 189.07 638.38 189.553 637.935C190.036 637.49 190.41 636.855 190.675 636.031C190.94 635.207 191.073 634.227 191.073 633.091C191.073 631.945 190.94 630.965 190.675 630.151C190.41 629.327 190.036 628.692 189.553 628.247C189.07 627.802 188.497 627.58 187.834 627.58C187.133 627.58 186.532 627.802 186.03 628.247C185.528 628.692 185.145 629.327 184.88 630.151C184.614 630.965 184.482 631.945 184.482 633.091C184.482 634.227 184.614 635.207 184.88 636.031C185.145 636.855 185.528 637.49 186.03 637.935C186.532 638.38 187.133 638.602 187.834 638.602ZM202.266 644V622.182H209.88V626.33H210.107C210.505 624.795 211.134 623.673 211.996 622.963C212.867 622.253 213.885 621.898 215.05 621.898C215.391 621.898 215.727 621.926 216.059 621.983C216.4 622.03 216.726 622.101 217.039 622.196V628.886C216.65 628.754 216.172 628.654 215.604 628.588C215.036 628.522 214.548 628.489 214.141 628.489C213.374 628.489 212.683 628.664 212.067 629.014C211.461 629.355 210.983 629.838 210.632 630.463C210.282 631.079 210.107 631.803 210.107 632.636V644H202.266ZM219.61 644V622.182H227.053V626.33H227.28C227.735 624.966 228.511 623.886 229.61 623.091C230.708 622.295 232.015 621.898 233.53 621.898C235.064 621.898 236.385 622.305 237.493 623.119C238.601 623.924 239.269 624.994 239.496 626.33H239.723C240.093 624.994 240.879 623.924 242.081 623.119C243.284 622.305 244.695 621.898 246.314 621.898C248.407 621.898 250.102 622.57 251.4 623.915C252.706 625.259 253.36 627.049 253.36 629.284V644H245.519V631.273C245.519 630.316 245.277 629.568 244.794 629.028C244.311 628.479 243.663 628.205 242.848 628.205C242.043 628.205 241.404 628.479 240.931 629.028C240.467 629.568 240.235 630.316 240.235 631.273V644H232.735V631.273C232.735 630.316 232.493 629.568 232.01 629.028C231.527 628.479 230.879 628.205 230.064 628.205C229.525 628.205 229.06 628.328 228.672 628.574C228.284 628.82 227.981 629.175 227.763 629.639C227.555 630.094 227.451 630.638 227.451 631.273V644H219.61ZM263.306 644.341C261.914 644.341 260.683 644.114 259.613 643.659C258.553 643.195 257.719 642.494 257.113 641.557C256.507 640.619 256.204 639.426 256.204 637.977C256.204 636.784 256.408 635.766 256.815 634.923C257.222 634.071 257.79 633.375 258.52 632.835C259.249 632.295 260.096 631.884 261.062 631.599C262.038 631.315 263.089 631.131 264.216 631.045C265.437 630.951 266.417 630.837 267.156 630.705C267.904 630.562 268.444 630.368 268.775 630.122C269.107 629.866 269.272 629.53 269.272 629.114V629.057C269.272 628.489 269.055 628.053 268.619 627.75C268.183 627.447 267.625 627.295 266.943 627.295C266.195 627.295 265.584 627.461 265.11 627.793C264.646 628.115 264.367 628.612 264.272 629.284H257.056C257.151 627.958 257.573 626.737 258.321 625.619C259.078 624.492 260.181 623.593 261.63 622.92C263.079 622.239 264.888 621.898 267.056 621.898C268.619 621.898 270.02 622.082 271.261 622.452C272.502 622.812 273.557 623.318 274.429 623.972C275.3 624.616 275.963 625.373 276.417 626.244C276.881 627.106 277.113 628.044 277.113 629.057V644H269.784V640.932H269.613C269.178 641.746 268.647 642.404 268.022 642.906C267.407 643.408 266.701 643.773 265.906 644C265.12 644.227 264.253 644.341 263.306 644.341ZM265.863 639.398C266.46 639.398 267.019 639.275 267.539 639.028C268.07 638.782 268.501 638.427 268.832 637.963C269.163 637.499 269.329 636.936 269.329 636.273V634.455C269.121 634.54 268.898 634.62 268.662 634.696C268.434 634.772 268.188 634.843 267.923 634.909C267.667 634.975 267.393 635.037 267.099 635.094C266.815 635.151 266.517 635.203 266.204 635.25C265.598 635.345 265.101 635.501 264.713 635.719C264.334 635.927 264.05 636.188 263.86 636.5C263.681 636.803 263.591 637.144 263.591 637.523C263.591 638.129 263.804 638.593 264.23 638.915C264.656 639.237 265.2 639.398 265.863 639.398ZM288.701 631.727V644H280.86V622.182H288.303V626.33H288.53C289.004 624.947 289.837 623.863 291.03 623.077C292.233 622.291 293.634 621.898 295.235 621.898C296.778 621.898 298.118 622.253 299.255 622.963C300.4 623.664 301.286 624.63 301.911 625.861C302.545 627.092 302.858 628.498 302.848 630.08V644H295.007V631.727C295.017 630.648 294.742 629.8 294.184 629.185C293.634 628.569 292.867 628.261 291.882 628.261C291.239 628.261 290.675 628.403 290.192 628.688C289.719 628.962 289.354 629.36 289.098 629.881C288.843 630.392 288.71 631.008 288.701 631.727ZM314.617 644.284C313.064 644.284 311.634 643.877 310.327 643.062C309.03 642.248 307.988 641.012 307.202 639.355C306.426 637.698 306.037 635.61 306.037 633.091C306.037 630.458 306.444 628.318 307.259 626.67C308.083 625.023 309.143 623.815 310.441 623.048C311.748 622.281 313.121 621.898 314.56 621.898C315.64 621.898 316.587 622.087 317.401 622.466C318.215 622.835 318.897 623.332 319.446 623.957C319.996 624.573 320.412 625.25 320.696 625.989H320.81V614.909H328.651V644H320.867V640.42H320.696C320.393 641.159 319.958 641.822 319.39 642.409C318.831 642.987 318.149 643.446 317.344 643.787C316.549 644.118 315.64 644.284 314.617 644.284ZM317.515 638.261C318.234 638.261 318.85 638.053 319.361 637.636C319.882 637.21 320.28 636.614 320.554 635.847C320.838 635.07 320.98 634.152 320.98 633.091C320.98 632.011 320.838 631.088 320.554 630.321C320.28 629.545 319.882 628.953 319.361 628.545C318.85 628.129 318.234 627.92 317.515 627.92C316.795 627.92 316.179 628.129 315.668 628.545C315.166 628.953 314.778 629.545 314.503 630.321C314.238 631.088 314.105 632.011 314.105 633.091C314.105 634.17 314.238 635.098 314.503 635.875C314.778 636.642 315.166 637.234 315.668 637.651C316.179 638.058 316.795 638.261 317.515 638.261ZM343.012 644.398C340.644 644.398 338.618 643.929 336.932 642.991C335.247 642.045 333.954 640.728 333.054 639.043C332.155 637.348 331.705 635.383 331.705 633.148C331.705 630.913 332.155 628.953 333.054 627.267C333.954 625.572 335.247 624.256 336.932 623.318C338.618 622.371 340.644 621.898 343.012 621.898C345.379 621.898 347.406 622.371 349.091 623.318C350.777 624.256 352.069 625.572 352.969 627.267C353.869 628.953 354.319 630.913 354.319 633.148C354.319 635.383 353.869 637.348 352.969 639.043C352.069 640.728 350.777 642.045 349.091 642.991C347.406 643.929 345.379 644.398 343.012 644.398ZM343.069 638.602C343.731 638.602 344.304 638.38 344.787 637.935C345.27 637.49 345.644 636.855 345.909 636.031C346.175 635.207 346.307 634.227 346.307 633.091C346.307 631.945 346.175 630.965 345.909 630.151C345.644 629.327 345.27 628.692 344.787 628.247C344.304 627.802 343.731 627.58 343.069 627.58C342.368 627.58 341.766 627.802 341.265 628.247C340.763 628.692 340.379 629.327 340.114 630.151C339.849 630.965 339.716 631.945 339.716 633.091C339.716 634.227 339.849 635.207 340.114 636.031C340.379 636.855 340.763 637.49 341.265 637.935C341.766 638.38 342.368 638.602 343.069 638.602ZM862.223 640.023L862.11 641.614C862.015 642.977 861.788 644.284 861.428 645.534C861.078 646.784 860.703 647.892 860.306 648.858C859.917 649.824 859.61 650.572 859.382 651.102H854.553C854.704 650.572 854.917 649.805 855.192 648.801C855.476 647.807 855.732 646.68 855.959 645.42C856.196 644.17 856.314 642.902 856.314 641.614V640.023H862.223ZM887.195 634.455V622.182H895.036V644H887.593V639.852H887.365C886.892 641.244 886.063 642.333 884.88 643.119C883.696 643.896 882.29 644.284 880.661 644.284C879.136 644.284 877.801 643.934 876.655 643.233C875.519 642.532 874.633 641.566 873.999 640.335C873.374 639.104 873.057 637.693 873.047 636.102V622.182H880.888V634.455C880.898 635.534 881.172 636.382 881.712 636.997C882.261 637.613 883.028 637.92 884.013 637.92C884.667 637.92 885.23 637.783 885.703 637.509C886.186 637.224 886.556 636.827 886.811 636.315C887.077 635.795 887.204 635.174 887.195 634.455ZM899.024 644V622.182H906.467V626.33H906.694C907.149 624.966 907.925 623.886 909.024 623.091C910.122 622.295 911.429 621.898 912.944 621.898C914.478 621.898 915.799 622.305 916.907 623.119C918.015 623.924 918.683 624.994 918.91 626.33H919.137C919.507 624.994 920.293 623.924 921.495 623.119C922.698 622.305 924.109 621.898 925.728 621.898C927.821 621.898 929.516 622.57 930.814 623.915C932.12 625.259 932.774 627.049 932.774 629.284V644H924.933V631.273C924.933 630.316 924.691 629.568 924.208 629.028C923.725 628.479 923.077 628.205 922.262 628.205C921.458 628.205 920.818 628.479 920.345 629.028C919.881 629.568 919.649 630.316 919.649 631.273V644H912.149V631.273C912.149 630.316 911.907 629.568 911.424 629.028C910.941 628.479 910.293 628.205 909.478 628.205C908.939 628.205 908.475 628.328 908.086 628.574C907.698 628.82 907.395 629.175 907.177 629.639C906.969 630.094 906.865 630.638 906.865 631.273V644H899.024ZM942.721 644.341C941.328 644.341 940.097 644.114 939.027 643.659C937.967 643.195 937.133 642.494 936.527 641.557C935.921 640.619 935.618 639.426 935.618 637.977C935.618 636.784 935.822 635.766 936.229 634.923C936.636 634.071 937.204 633.375 937.934 632.835C938.663 632.295 939.51 631.884 940.476 631.599C941.452 631.315 942.503 631.131 943.63 631.045C944.851 630.951 945.831 630.837 946.57 630.705C947.318 630.562 947.858 630.368 948.189 630.122C948.521 629.866 948.686 629.53 948.686 629.114V629.057C948.686 628.489 948.469 628.053 948.033 627.75C947.597 627.447 947.039 627.295 946.357 627.295C945.609 627.295 944.998 627.461 944.525 627.793C944.06 628.115 943.781 628.612 943.686 629.284H936.471C936.565 627.958 936.987 626.737 937.735 625.619C938.492 624.492 939.596 623.593 941.044 622.92C942.493 622.239 944.302 621.898 946.471 621.898C948.033 621.898 949.435 622.082 950.675 622.452C951.916 622.812 952.971 623.318 953.843 623.972C954.714 624.616 955.377 625.373 955.831 626.244C956.295 627.106 956.527 628.044 956.527 629.057V644H949.198V640.932H949.027C948.592 641.746 948.061 642.404 947.436 642.906C946.821 643.408 946.115 643.773 945.32 644C944.534 644.227 943.667 644.341 942.721 644.341ZM945.277 639.398C945.874 639.398 946.433 639.275 946.953 639.028C947.484 638.782 947.915 638.427 948.246 637.963C948.578 637.499 948.743 636.936 948.743 636.273V634.455C948.535 634.54 948.312 634.62 948.076 634.696C947.848 634.772 947.602 634.843 947.337 634.909C947.081 634.975 946.807 635.037 946.513 635.094C946.229 635.151 945.931 635.203 945.618 635.25C945.012 635.345 944.515 635.501 944.127 635.719C943.748 635.927 943.464 636.188 943.275 636.5C943.095 636.803 943.005 637.144 943.005 637.523C943.005 638.129 943.218 638.593 943.644 638.915C944.07 639.237 944.614 639.398 945.277 639.398ZM968.243 652.182V622.182H976.027V625.989H976.197C976.481 625.25 976.898 624.573 977.447 623.957C977.996 623.332 978.678 622.835 979.493 622.466C980.307 622.087 981.254 621.898 982.333 621.898C983.773 621.898 985.141 622.281 986.439 623.048C987.745 623.815 988.806 625.023 989.62 626.67C990.444 628.318 990.856 630.458 990.856 633.091C990.856 635.61 990.463 637.698 989.677 639.355C988.901 641.012 987.859 642.248 986.552 643.062C985.255 643.877 983.83 644.284 982.277 644.284C981.254 644.284 980.34 644.118 979.535 643.787C978.74 643.446 978.058 642.987 977.49 642.409C976.931 641.822 976.5 641.159 976.197 640.42H976.083V652.182H968.243ZM975.913 633.091C975.913 634.152 976.05 635.07 976.325 635.847C976.609 636.614 977.007 637.21 977.518 637.636C978.039 638.053 978.659 638.261 979.379 638.261C980.099 638.261 980.709 638.058 981.211 637.651C981.723 637.234 982.111 636.642 982.376 635.875C982.651 635.098 982.788 634.17 982.788 633.091C982.788 632.011 982.651 631.088 982.376 630.321C982.111 629.545 981.723 628.953 981.211 628.545C980.709 628.129 980.099 627.92 979.379 627.92C978.659 627.92 978.039 628.129 977.518 628.545C977.007 628.953 976.609 629.545 976.325 630.321C976.05 631.088 975.913 632.011 975.913 633.091ZM994.141 644V622.182H1001.98V644H994.141ZM998.061 619.909C997.001 619.909 996.092 619.559 995.334 618.858C994.577 618.157 994.198 617.314 994.198 616.33C994.198 615.345 994.577 614.502 995.334 613.801C996.092 613.1 997.001 612.75 998.061 612.75C999.132 612.75 1000.04 613.1 1000.79 613.801C1001.55 614.502 1001.93 615.345 1001.93 616.33C1001.93 617.314 1001.55 618.157 1000.79 618.858C1000.04 619.559 999.132 619.909 998.061 619.909ZM1013.82 631.727V644H1005.98V622.182H1013.42V626.33H1013.65C1014.12 624.947 1014.95 623.863 1016.15 623.077C1017.35 622.291 1018.75 621.898 1020.35 621.898C1021.9 621.898 1023.24 622.253 1024.37 622.963C1025.52 623.664 1026.4 624.63 1027.03 625.861C1027.66 627.092 1027.98 628.498 1027.97 630.08V644H1020.12V631.727C1020.13 630.648 1019.86 629.8 1019.3 629.185C1018.75 628.569 1017.98 628.261 1017 628.261C1016.36 628.261 1015.79 628.403 1015.31 628.688C1014.84 628.962 1014.47 629.36 1014.22 629.881C1013.96 630.392 1013.83 631.008 1013.82 631.727ZM1042.35 644.398C1039.98 644.398 1037.95 643.929 1036.27 642.991C1034.58 642.045 1033.29 640.728 1032.39 639.043C1031.49 637.348 1031.04 635.383 1031.04 633.148C1031.04 630.913 1031.49 628.953 1032.39 627.267C1033.29 625.572 1034.58 624.256 1036.27 623.318C1037.95 622.371 1039.98 621.898 1042.35 621.898C1044.49 621.898 1046.34 622.286 1047.9 623.062C1049.47 623.83 1050.69 624.919 1051.55 626.33C1052.41 627.731 1052.85 629.379 1052.86 631.273H1045.59C1045.48 630.127 1045.15 629.256 1044.59 628.659C1044.04 628.053 1043.33 627.75 1042.46 627.75C1041.78 627.75 1041.18 627.949 1040.67 628.347C1040.16 628.735 1039.76 629.327 1039.48 630.122C1039.19 630.908 1039.05 631.898 1039.05 633.091C1039.05 634.284 1039.19 635.278 1039.48 636.074C1039.76 636.86 1040.16 637.452 1040.67 637.849C1041.18 638.238 1041.78 638.432 1042.46 638.432C1043.04 638.432 1043.55 638.299 1044 638.034C1044.44 637.759 1044.8 637.362 1045.07 636.841C1045.36 636.311 1045.53 635.667 1045.59 634.909H1052.86C1052.83 636.831 1052.39 638.508 1051.54 639.938C1050.69 641.358 1049.48 642.456 1047.92 643.233C1046.36 644.009 1044.51 644.398 1042.35 644.398ZM1066.55 644.398C1064.22 644.398 1062.21 643.953 1060.53 643.062C1058.85 642.163 1057.56 640.875 1056.65 639.199C1055.75 637.513 1055.3 635.496 1055.3 633.148C1055.3 630.894 1055.75 628.924 1056.66 627.239C1057.57 625.553 1058.85 624.241 1060.51 623.304C1062.17 622.366 1064.12 621.898 1066.38 621.898C1068.03 621.898 1069.52 622.153 1070.85 622.665C1072.19 623.176 1073.33 623.92 1074.28 624.895C1075.22 625.861 1075.95 627.035 1076.46 628.418C1076.97 629.8 1077.23 631.358 1077.23 633.091V634.909H1057.74V630.591H1070.01C1070.01 629.966 1069.84 629.417 1069.53 628.943C1069.23 628.46 1068.82 628.086 1068.3 627.821C1067.78 627.546 1067.2 627.409 1066.55 627.409C1065.91 627.409 1065.33 627.546 1064.8 627.821C1064.27 628.086 1063.85 628.455 1063.52 628.929C1063.21 629.402 1063.04 629.956 1063.03 630.591V635.25C1063.03 635.951 1063.17 636.576 1063.47 637.125C1063.76 637.674 1064.18 638.105 1064.73 638.418C1065.28 638.73 1065.94 638.886 1066.72 638.886C1067.26 638.886 1067.75 638.811 1068.2 638.659C1068.65 638.508 1069.04 638.29 1069.36 638.006C1069.68 637.712 1069.92 637.362 1070.07 636.955H1077.23C1076.98 638.47 1076.4 639.786 1075.48 640.903C1074.56 642.011 1073.35 642.873 1071.83 643.489C1070.33 644.095 1068.57 644.398 1066.55 644.398ZM1088.27 614.909V644H1080.43V614.909H1088.27ZM1098.35 644.341C1096.95 644.341 1095.72 644.114 1094.65 643.659C1093.59 643.195 1092.76 642.494 1092.15 641.557C1091.55 640.619 1091.24 639.426 1091.24 637.977C1091.24 636.784 1091.45 635.766 1091.85 634.923C1092.26 634.071 1092.83 633.375 1093.56 632.835C1094.29 632.295 1095.14 631.884 1096.1 631.599C1097.08 631.315 1098.13 631.131 1099.25 631.045C1100.48 630.951 1101.46 630.837 1102.19 630.705C1102.94 630.562 1103.48 630.368 1103.81 630.122C1104.15 629.866 1104.31 629.53 1104.31 629.114V629.057C1104.31 628.489 1104.09 628.053 1103.66 627.75C1103.22 627.447 1102.66 627.295 1101.98 627.295C1101.23 627.295 1100.62 627.461 1100.15 627.793C1099.69 628.115 1099.41 628.612 1099.31 629.284H1092.1C1092.19 627.958 1092.61 626.737 1093.36 625.619C1094.12 624.492 1095.22 623.593 1096.67 622.92C1098.12 622.239 1099.93 621.898 1102.1 621.898C1103.66 621.898 1105.06 622.082 1106.3 622.452C1107.54 622.812 1108.6 623.318 1109.47 623.972C1110.34 624.616 1111 625.373 1111.46 626.244C1111.92 627.106 1112.15 628.044 1112.15 629.057V644H1104.82V640.932H1104.65C1104.22 641.746 1103.69 642.404 1103.06 642.906C1102.45 643.408 1101.74 643.773 1100.94 644C1100.16 644.227 1099.29 644.341 1098.35 644.341ZM1100.9 639.398C1101.5 639.398 1102.06 639.275 1102.58 639.028C1103.11 638.782 1103.54 638.427 1103.87 637.963C1104.2 637.499 1104.37 636.936 1104.37 636.273V634.455C1104.16 634.54 1103.94 634.62 1103.7 634.696C1103.47 634.772 1103.23 634.843 1102.96 634.909C1102.71 634.975 1102.43 635.037 1102.14 635.094C1101.85 635.151 1101.56 635.203 1101.24 635.25C1100.64 635.345 1100.14 635.501 1099.75 635.719C1099.37 635.927 1099.09 636.188 1098.9 636.5C1098.72 636.803 1098.63 637.144 1098.63 637.523C1098.63 638.129 1098.84 638.593 1099.27 638.915C1099.69 639.237 1100.24 639.398 1100.9 639.398ZM1123.8 644.284C1122.24 644.284 1120.81 643.877 1119.51 643.062C1118.21 642.248 1117.17 641.012 1116.38 639.355C1115.61 637.698 1115.22 635.61 1115.22 633.091C1115.22 630.458 1115.62 628.318 1116.44 626.67C1117.26 625.023 1118.32 623.815 1119.62 623.048C1120.93 622.281 1122.3 621.898 1123.74 621.898C1124.82 621.898 1125.77 622.087 1126.58 622.466C1127.4 622.835 1128.08 623.332 1128.63 623.957C1129.18 624.573 1129.59 625.25 1129.88 625.989H1129.99V614.909H1137.83V644H1130.05V640.42H1129.88C1129.57 641.159 1129.14 641.822 1128.57 642.409C1128.01 642.987 1127.33 643.446 1126.52 643.787C1125.73 644.118 1124.82 644.284 1123.8 644.284ZM1126.69 638.261C1127.41 638.261 1128.03 638.053 1128.54 637.636C1129.06 637.21 1129.46 636.614 1129.73 635.847C1130.02 635.07 1130.16 634.152 1130.16 633.091C1130.16 632.011 1130.02 631.088 1129.73 630.321C1129.46 629.545 1129.06 628.953 1128.54 628.545C1128.03 628.129 1127.41 627.92 1126.69 627.92C1125.97 627.92 1125.36 628.129 1124.85 628.545C1124.35 628.953 1123.96 629.545 1123.68 630.321C1123.42 631.088 1123.29 632.011 1123.29 633.091C1123.29 634.17 1123.42 635.098 1123.68 635.875C1123.96 636.642 1124.35 637.234 1124.85 637.651C1125.36 638.058 1125.97 638.261 1126.69 638.261ZM1147.76 644.341C1146.37 644.341 1145.14 644.114 1144.07 643.659C1143.01 643.195 1142.17 642.494 1141.57 641.557C1140.96 640.619 1140.66 639.426 1140.66 637.977C1140.66 636.784 1140.86 635.766 1141.27 634.923C1141.68 634.071 1142.24 633.375 1142.97 632.835C1143.7 632.295 1144.55 631.884 1145.52 631.599C1146.49 631.315 1147.54 631.131 1148.67 631.045C1149.89 630.951 1150.87 630.837 1151.61 630.705C1152.36 630.562 1152.9 630.368 1153.23 630.122C1153.56 629.866 1153.73 629.53 1153.73 629.114V629.057C1153.73 628.489 1153.51 628.053 1153.07 627.75C1152.64 627.447 1152.08 627.295 1151.4 627.295C1150.65 627.295 1150.04 627.461 1149.56 627.793C1149.1 628.115 1148.82 628.612 1148.73 629.284H1141.51C1141.6 627.958 1142.03 626.737 1142.77 625.619C1143.53 624.492 1144.63 623.593 1146.08 622.92C1147.53 622.239 1149.34 621.898 1151.51 621.898C1153.07 621.898 1154.47 622.082 1155.71 622.452C1156.95 622.812 1158.01 623.318 1158.88 623.972C1159.75 624.616 1160.42 625.373 1160.87 626.244C1161.33 627.106 1161.57 628.044 1161.57 629.057V644H1154.24V640.932H1154.07C1153.63 641.746 1153.1 642.404 1152.48 642.906C1151.86 643.408 1151.15 643.773 1150.36 644C1149.57 644.227 1148.71 644.341 1147.76 644.341ZM1150.32 639.398C1150.91 639.398 1151.47 639.275 1151.99 639.028C1152.52 638.782 1152.95 638.427 1153.29 637.963C1153.62 637.499 1153.78 636.936 1153.78 636.273V634.455C1153.57 634.54 1153.35 634.62 1153.11 634.696C1152.89 634.772 1152.64 634.843 1152.38 634.909C1152.12 634.975 1151.85 635.037 1151.55 635.094C1151.27 635.151 1150.97 635.203 1150.66 635.25C1150.05 635.345 1149.55 635.501 1149.17 635.719C1148.79 635.927 1148.5 636.188 1148.31 636.5C1148.13 636.803 1148.04 637.144 1148.04 637.523C1148.04 638.129 1148.26 638.593 1148.68 638.915C1149.11 639.237 1149.65 639.398 1150.32 639.398ZM1181.18 644.284C1179.63 644.284 1178.2 643.877 1176.89 643.062C1175.59 642.248 1174.55 641.012 1173.76 639.355C1172.99 637.698 1172.6 635.61 1172.6 633.091C1172.6 630.458 1173.01 628.318 1173.82 626.67C1174.65 625.023 1175.71 623.815 1177 623.048C1178.31 622.281 1179.68 621.898 1181.12 621.898C1182.2 621.898 1183.15 622.087 1183.96 622.466C1184.78 622.835 1185.46 623.332 1186.01 623.957C1186.56 624.573 1186.97 625.25 1187.26 625.989H1187.37V614.909H1195.21V644H1187.43V640.42H1187.26C1186.96 641.159 1186.52 641.822 1185.95 642.409C1185.39 642.987 1184.71 643.446 1183.91 643.787C1183.11 644.118 1182.2 644.284 1181.18 644.284ZM1184.08 638.261C1184.8 638.261 1185.41 638.053 1185.92 637.636C1186.44 637.21 1186.84 636.614 1187.12 635.847C1187.4 635.07 1187.54 634.152 1187.54 633.091C1187.54 632.011 1187.4 631.088 1187.12 630.321C1186.84 629.545 1186.44 628.953 1185.92 628.545C1185.41 628.129 1184.8 627.92 1184.08 627.92C1183.36 627.92 1182.74 628.129 1182.23 628.545C1181.73 628.953 1181.34 629.545 1181.07 630.321C1180.8 631.088 1180.67 632.011 1180.67 633.091C1180.67 634.17 1180.8 635.098 1181.07 635.875C1181.34 636.642 1181.73 637.234 1182.23 637.651C1182.74 638.058 1183.36 638.261 1184.08 638.261ZM1209.52 644.398C1207.19 644.398 1205.18 643.953 1203.49 643.062C1201.82 642.163 1200.53 640.875 1199.62 639.199C1198.72 637.513 1198.27 635.496 1198.27 633.148C1198.27 630.894 1198.72 628.924 1199.63 627.239C1200.54 625.553 1201.82 624.241 1203.48 623.304C1205.14 622.366 1207.09 621.898 1209.35 621.898C1210.99 621.898 1212.49 622.153 1213.82 622.665C1215.16 623.176 1216.3 623.92 1217.24 624.895C1218.19 625.861 1218.92 627.035 1219.43 628.418C1219.94 629.8 1220.2 631.358 1220.2 633.091V634.909H1200.71V630.591H1212.98C1212.97 629.966 1212.81 629.417 1212.5 628.943C1212.2 628.46 1211.79 628.086 1211.26 627.821C1210.75 627.546 1210.17 627.409 1209.52 627.409C1208.88 627.409 1208.3 627.546 1207.77 627.821C1207.24 628.086 1206.81 628.455 1206.49 628.929C1206.18 629.402 1206.01 629.956 1205.99 630.591V635.25C1205.99 635.951 1206.14 636.576 1206.44 637.125C1206.73 637.674 1207.15 638.105 1207.7 638.418C1208.25 638.73 1208.91 638.886 1209.69 638.886C1210.23 638.886 1210.72 638.811 1211.17 638.659C1211.62 638.508 1212.01 638.29 1212.33 638.006C1212.65 637.712 1212.89 637.362 1213.04 636.955H1220.2C1219.95 638.47 1219.37 639.786 1218.45 640.903C1217.53 642.011 1216.32 642.873 1214.8 643.489C1213.3 644.095 1211.53 644.398 1209.52 644.398ZM1241.88 644.398C1239.51 644.398 1237.48 643.929 1235.8 642.991C1234.11 642.045 1232.82 640.728 1231.92 639.043C1231.02 637.348 1230.57 635.383 1230.57 633.148C1230.57 630.913 1231.02 628.953 1231.92 627.267C1232.82 625.572 1234.11 624.256 1235.8 623.318C1237.48 622.371 1239.51 621.898 1241.88 621.898C1244.02 621.898 1245.87 622.286 1247.43 623.062C1249 623.83 1250.22 624.919 1251.08 626.33C1251.95 627.731 1252.38 629.379 1252.39 631.273H1245.12C1245.01 630.127 1244.68 629.256 1244.12 628.659C1243.57 628.053 1242.86 627.75 1241.99 627.75C1241.31 627.75 1240.71 627.949 1240.2 628.347C1239.69 628.735 1239.29 629.327 1239.01 630.122C1238.73 630.908 1238.58 631.898 1238.58 633.091C1238.58 634.284 1238.73 635.278 1239.01 636.074C1239.29 636.86 1239.69 637.452 1240.2 637.849C1240.71 638.238 1241.31 638.432 1241.99 638.432C1242.57 638.432 1243.08 638.299 1243.53 638.034C1243.97 637.759 1244.33 637.362 1244.61 636.841C1244.89 636.311 1245.06 635.667 1245.12 634.909H1252.39C1252.36 636.831 1251.92 638.508 1251.07 639.938C1250.22 641.358 1249.01 642.456 1247.45 643.233C1245.89 644.009 1244.04 644.398 1241.88 644.398ZM1261.7 644.341C1260.31 644.341 1259.08 644.114 1258.01 643.659C1256.95 643.195 1256.12 642.494 1255.51 641.557C1254.91 640.619 1254.6 639.426 1254.6 637.977C1254.6 636.784 1254.81 635.766 1255.21 634.923C1255.62 634.071 1256.19 633.375 1256.92 632.835C1257.65 632.295 1258.49 631.884 1259.46 631.599C1260.44 631.315 1261.49 631.131 1262.61 631.045C1263.84 630.951 1264.82 630.837 1265.55 630.705C1266.3 630.562 1266.84 630.368 1267.17 630.122C1267.51 629.866 1267.67 629.53 1267.67 629.114V629.057C1267.67 628.489 1267.45 628.053 1267.02 627.75C1266.58 627.447 1266.02 627.295 1265.34 627.295C1264.59 627.295 1263.98 627.461 1263.51 627.793C1263.04 628.115 1262.77 628.612 1262.67 629.284H1255.45C1255.55 627.958 1255.97 626.737 1256.72 625.619C1257.48 624.492 1258.58 623.593 1260.03 622.92C1261.48 622.239 1263.29 621.898 1265.45 621.898C1267.02 621.898 1268.42 622.082 1269.66 622.452C1270.9 622.812 1271.96 623.318 1272.83 623.972C1273.7 624.616 1274.36 625.373 1274.82 626.244C1275.28 627.106 1275.51 628.044 1275.51 629.057V644H1268.18V640.932H1268.01C1267.58 641.746 1267.05 642.404 1266.42 642.906C1265.81 643.408 1265.1 643.773 1264.3 644C1263.52 644.227 1262.65 644.341 1261.7 644.341ZM1264.26 639.398C1264.86 639.398 1265.42 639.275 1265.94 639.028C1266.47 638.782 1266.9 638.427 1267.23 637.963C1267.56 637.499 1267.73 636.936 1267.73 636.273V634.455C1267.52 634.54 1267.3 634.62 1267.06 634.696C1266.83 634.772 1266.59 634.843 1266.32 634.909C1266.07 634.975 1265.79 635.037 1265.5 635.094C1265.21 635.151 1264.92 635.203 1264.6 635.25C1264 635.345 1263.5 635.501 1263.11 635.719C1262.73 635.927 1262.45 636.188 1262.26 636.5C1262.08 636.803 1261.99 637.144 1261.99 637.523C1261.99 638.129 1262.2 638.593 1262.63 638.915C1263.05 639.237 1263.6 639.398 1264.26 639.398ZM1287.16 644.284C1285.6 644.284 1284.17 643.877 1282.87 643.062C1281.57 642.248 1280.53 641.012 1279.74 639.355C1278.96 637.698 1278.58 635.61 1278.58 633.091C1278.58 630.458 1278.98 628.318 1279.8 626.67C1280.62 625.023 1281.68 623.815 1282.98 623.048C1284.29 622.281 1285.66 621.898 1287.1 621.898C1288.18 621.898 1289.13 622.087 1289.94 622.466C1290.75 622.835 1291.44 623.332 1291.99 623.957C1292.53 624.573 1292.95 625.25 1293.24 625.989H1293.35V614.909H1301.19V644H1293.41V640.42H1293.24C1292.93 641.159 1292.5 641.822 1291.93 642.409C1291.37 642.987 1290.69 643.446 1289.88 643.787C1289.09 644.118 1288.18 644.284 1287.16 644.284ZM1290.05 638.261C1290.77 638.261 1291.39 638.053 1291.9 637.636C1292.42 637.21 1292.82 636.614 1293.09 635.847C1293.38 635.07 1293.52 634.152 1293.52 633.091C1293.52 632.011 1293.38 631.088 1293.09 630.321C1292.82 629.545 1292.42 628.953 1291.9 628.545C1291.39 628.129 1290.77 627.92 1290.05 627.92C1289.33 627.92 1288.72 628.129 1288.21 628.545C1287.71 628.953 1287.32 629.545 1287.04 630.321C1286.78 631.088 1286.64 632.011 1286.64 633.091C1286.64 634.17 1286.78 635.098 1287.04 635.875C1287.32 636.642 1287.71 637.234 1288.21 637.651C1288.72 638.058 1289.33 638.261 1290.05 638.261ZM1311.12 644.341C1309.73 644.341 1308.5 644.114 1307.43 643.659C1306.37 643.195 1305.53 642.494 1304.93 641.557C1304.32 640.619 1304.02 639.426 1304.02 637.977C1304.02 636.784 1304.22 635.766 1304.63 634.923C1305.03 634.071 1305.6 633.375 1306.33 632.835C1307.06 632.295 1307.91 631.884 1308.87 631.599C1309.85 631.315 1310.9 631.131 1312.03 631.045C1313.25 630.951 1314.23 630.837 1314.97 630.705C1315.72 630.562 1316.26 630.368 1316.59 630.122C1316.92 629.866 1317.08 629.53 1317.08 629.114V629.057C1317.08 628.489 1316.87 628.053 1316.43 627.75C1316 627.447 1315.44 627.295 1314.76 627.295C1314.01 627.295 1313.4 627.461 1312.92 627.793C1312.46 628.115 1312.18 628.612 1312.08 629.284H1304.87C1304.96 627.958 1305.39 626.737 1306.13 625.619C1306.89 624.492 1307.99 623.593 1309.44 622.92C1310.89 622.239 1312.7 621.898 1314.87 621.898C1316.43 621.898 1317.83 622.082 1319.07 622.452C1320.31 622.812 1321.37 623.318 1322.24 623.972C1323.11 624.616 1323.78 625.373 1324.23 626.244C1324.69 627.106 1324.93 628.044 1324.93 629.057V644H1317.6V640.932H1317.43C1316.99 641.746 1316.46 642.404 1315.83 642.906C1315.22 643.408 1314.51 643.773 1313.72 644C1312.93 644.227 1312.07 644.341 1311.12 644.341ZM1313.68 639.398C1314.27 639.398 1314.83 639.275 1315.35 639.028C1315.88 638.782 1316.31 638.427 1316.64 637.963C1316.98 637.499 1317.14 636.936 1317.14 636.273V634.455C1316.93 634.54 1316.71 634.62 1316.47 634.696C1316.25 634.772 1316 634.843 1315.74 634.909C1315.48 634.975 1315.21 635.037 1314.91 635.094C1314.63 635.151 1314.33 635.203 1314.02 635.25C1313.41 635.345 1312.91 635.501 1312.53 635.719C1312.15 635.927 1311.86 636.188 1311.67 636.5C1311.49 636.803 1311.4 637.144 1311.4 637.523C1311.4 638.129 1311.62 638.593 1312.04 638.915C1312.47 639.237 1313.01 639.398 1313.68 639.398ZM276.637 672.182L269.308 694H260.217L252.887 672.182H261.126L264.649 686.614H264.876L268.399 672.182H276.637ZM288.658 694.398C286.328 694.398 284.321 693.953 282.635 693.062C280.959 692.163 279.667 690.875 278.757 689.199C277.858 687.513 277.408 685.496 277.408 683.148C277.408 680.894 277.863 678.924 278.772 677.239C279.681 675.553 280.964 674.241 282.621 673.304C284.278 672.366 286.234 671.898 288.488 671.898C290.135 671.898 291.627 672.153 292.962 672.665C294.297 673.176 295.438 673.92 296.385 674.895C297.332 675.861 298.061 677.035 298.573 678.418C299.084 679.8 299.34 681.358 299.34 683.091V684.909H279.851V680.591H292.124C292.114 679.966 291.953 679.417 291.641 678.943C291.338 678.46 290.926 678.086 290.405 677.821C289.894 677.546 289.311 677.409 288.658 677.409C288.024 677.409 287.441 677.546 286.911 677.821C286.381 678.086 285.954 678.455 285.632 678.929C285.32 679.402 285.154 679.956 285.135 680.591V685.25C285.135 685.951 285.282 686.576 285.576 687.125C285.869 687.674 286.291 688.105 286.84 688.418C287.389 688.73 288.052 688.886 288.828 688.886C289.368 688.886 289.861 688.811 290.306 688.659C290.76 688.508 291.149 688.29 291.471 688.006C291.792 687.712 292.029 687.362 292.181 686.955H299.34C299.094 688.47 298.511 689.786 297.593 690.903C296.674 692.011 295.457 692.873 293.942 693.489C292.436 694.095 290.675 694.398 288.658 694.398ZM302.767 694V689.682L312.312 678.261V678.148H303.108V672.182H321.574V676.955L312.88 687.92V688.034H321.914V694H302.767ZM333.864 690.023L333.75 691.614C333.656 692.977 333.428 694.284 333.069 695.534C332.718 696.784 332.344 697.892 331.946 698.858C331.558 699.824 331.25 700.572 331.023 701.102H326.194C326.345 700.572 326.558 699.805 326.833 698.801C327.117 697.807 327.373 696.68 327.6 695.42C327.837 694.17 327.955 692.902 327.955 691.614V690.023H333.864ZM344.688 702.182V672.182H352.472V675.989H352.642C352.926 675.25 353.343 674.573 353.892 673.957C354.442 673.332 355.123 672.835 355.938 672.466C356.752 672.087 357.699 671.898 358.779 671.898C360.218 671.898 361.587 672.281 362.884 673.048C364.191 673.815 365.251 675.023 366.066 676.67C366.89 678.318 367.301 680.458 367.301 683.091C367.301 685.61 366.908 687.698 366.123 689.355C365.346 691.012 364.304 692.248 362.998 693.062C361.7 693.877 360.275 694.284 358.722 694.284C357.699 694.284 356.785 694.118 355.98 693.787C355.185 693.446 354.503 692.987 353.935 692.409C353.376 691.822 352.945 691.159 352.642 690.42H352.529V702.182H344.688ZM352.358 683.091C352.358 684.152 352.496 685.07 352.77 685.847C353.054 686.614 353.452 687.21 353.963 687.636C354.484 688.053 355.105 688.261 355.824 688.261C356.544 688.261 357.155 688.058 357.657 687.651C358.168 687.234 358.556 686.642 358.821 685.875C359.096 685.098 359.233 684.17 359.233 683.091C359.233 682.011 359.096 681.088 358.821 680.321C358.556 679.545 358.168 678.953 357.657 678.545C357.155 678.129 356.544 677.92 355.824 677.92C355.105 677.92 354.484 678.129 353.963 678.545C353.452 678.953 353.054 679.545 352.77 680.321C352.496 681.088 352.358 682.011 352.358 683.091ZM381.098 694.398C378.73 694.398 376.704 693.929 375.018 692.991C373.333 692.045 372.04 690.728 371.14 689.043C370.241 687.348 369.791 685.383 369.791 683.148C369.791 680.913 370.241 678.953 371.14 677.267C372.04 675.572 373.333 674.256 375.018 673.318C376.704 672.371 378.73 671.898 381.098 671.898C383.465 671.898 385.492 672.371 387.177 673.318C388.863 674.256 390.155 675.572 391.055 677.267C391.955 678.953 392.404 680.913 392.404 683.148C392.404 685.383 391.955 687.348 391.055 689.043C390.155 690.728 388.863 692.045 387.177 692.991C385.492 693.929 383.465 694.398 381.098 694.398ZM381.154 688.602C381.817 688.602 382.39 688.38 382.873 687.935C383.356 687.49 383.73 686.855 383.995 686.031C384.261 685.207 384.393 684.227 384.393 683.091C384.393 681.945 384.261 680.965 383.995 680.151C383.73 679.327 383.356 678.692 382.873 678.247C382.39 677.802 381.817 677.58 381.154 677.58C380.454 677.58 379.852 677.802 379.35 678.247C378.849 678.692 378.465 679.327 378.2 680.151C377.935 680.965 377.802 681.945 377.802 683.091C377.802 684.227 377.935 685.207 378.2 686.031C378.465 686.855 378.849 687.49 379.35 687.935C379.852 688.38 380.454 688.602 381.154 688.602ZM395.586 694V672.182H403.2V676.33H403.427C403.825 674.795 404.455 673.673 405.316 672.963C406.188 672.253 407.206 671.898 408.37 671.898C408.711 671.898 409.047 671.926 409.379 671.983C409.72 672.03 410.047 672.101 410.359 672.196V678.886C409.971 678.754 409.493 678.654 408.924 678.588C408.356 678.522 407.868 678.489 407.461 678.489C406.694 678.489 406.003 678.664 405.387 679.014C404.781 679.355 404.303 679.838 403.953 680.463C403.602 681.079 403.427 681.803 403.427 682.636V694H395.586ZM425.771 702.182V690.42H425.657C425.354 691.159 424.919 691.822 424.35 692.409C423.792 692.987 423.11 693.446 422.305 693.787C421.51 694.118 420.6 694.284 419.578 694.284C418.025 694.284 416.595 693.877 415.288 693.062C413.991 692.248 412.949 691.012 412.163 689.355C411.386 687.698 410.998 685.61 410.998 683.091C410.998 680.458 411.405 678.318 412.22 676.67C413.044 675.023 414.104 673.815 415.402 673.048C416.708 672.281 418.082 671.898 419.521 671.898C420.6 671.898 421.547 672.087 422.362 672.466C423.176 672.835 423.858 673.332 424.407 673.957C424.957 674.573 425.373 675.25 425.657 675.989H425.828V672.182H433.612V702.182H425.771ZM422.475 688.261C423.195 688.261 423.811 688.053 424.322 687.636C424.843 687.21 425.241 686.614 425.515 685.847C425.799 685.07 425.941 684.152 425.941 683.091C425.941 682.011 425.799 681.088 425.515 680.321C425.241 679.545 424.843 678.953 424.322 678.545C423.811 678.129 423.195 677.92 422.475 677.92C421.756 677.92 421.14 678.129 420.629 678.545C420.127 678.953 419.739 679.545 419.464 680.321C419.199 681.088 419.066 682.011 419.066 683.091C419.066 684.17 419.199 685.098 419.464 685.875C419.739 686.642 420.127 687.234 420.629 687.651C421.14 688.058 421.756 688.261 422.475 688.261ZM451.726 684.455V672.182H459.567V694H452.124V689.852H451.897C451.423 691.244 450.595 692.333 449.411 693.119C448.227 693.896 446.821 694.284 445.192 694.284C443.667 694.284 442.332 693.934 441.186 693.233C440.05 692.532 439.165 691.566 438.53 690.335C437.905 689.104 437.588 687.693 437.578 686.102V672.182H445.419V684.455C445.429 685.534 445.703 686.382 446.243 686.997C446.792 687.613 447.56 687.92 448.544 687.92C449.198 687.92 449.761 687.783 450.235 687.509C450.718 687.224 451.087 686.827 451.343 686.315C451.608 685.795 451.736 685.174 451.726 684.455ZM474.01 694.398C471.68 694.398 469.672 693.953 467.987 693.062C466.311 692.163 465.018 690.875 464.109 689.199C463.209 687.513 462.76 685.496 462.76 683.148C462.76 680.894 463.214 678.924 464.123 677.239C465.032 675.553 466.315 674.241 467.973 673.304C469.63 672.366 471.585 671.898 473.839 671.898C475.487 671.898 476.978 672.153 478.314 672.665C479.649 673.176 480.79 673.92 481.737 674.895C482.684 675.861 483.413 677.035 483.924 678.418C484.436 679.8 484.691 681.358 484.691 683.091V684.909H465.203V680.591H477.475C477.466 679.966 477.305 679.417 476.993 678.943C476.69 678.46 476.278 678.086 475.757 677.821C475.245 677.546 474.663 677.409 474.01 677.409C473.375 677.409 472.793 677.546 472.262 677.821C471.732 678.086 471.306 678.455 470.984 678.929C470.672 679.402 470.506 679.956 470.487 680.591V685.25C470.487 685.951 470.634 686.576 470.927 687.125C471.221 687.674 471.642 688.105 472.191 688.418C472.741 688.73 473.404 688.886 474.18 688.886C474.72 688.886 475.212 688.811 475.657 688.659C476.112 688.508 476.5 688.29 476.822 688.006C477.144 687.712 477.381 687.362 477.532 686.955H484.691C484.445 688.47 483.863 689.786 482.944 690.903C482.026 692.011 480.809 692.873 479.294 693.489C477.788 694.095 476.027 694.398 474.01 694.398ZM501.939 694.341C500.547 694.341 499.316 694.114 498.246 693.659C497.185 693.195 496.352 692.494 495.746 691.557C495.14 690.619 494.837 689.426 494.837 687.977C494.837 686.784 495.041 685.766 495.448 684.923C495.855 684.071 496.423 683.375 497.152 682.835C497.882 682.295 498.729 681.884 499.695 681.599C500.67 681.315 501.721 681.131 502.848 681.045C504.07 680.951 505.05 680.837 505.789 680.705C506.537 680.562 507.077 680.368 507.408 680.122C507.739 679.866 507.905 679.53 507.905 679.114V679.057C507.905 678.489 507.687 678.053 507.252 677.75C506.816 677.447 506.257 677.295 505.576 677.295C504.828 677.295 504.217 677.461 503.743 677.793C503.279 678.115 503 678.612 502.905 679.284H495.689C495.784 677.958 496.205 676.737 496.953 675.619C497.711 674.492 498.814 673.593 500.263 672.92C501.712 672.239 503.521 671.898 505.689 671.898C507.252 671.898 508.653 672.082 509.894 672.452C511.134 672.812 512.19 673.318 513.061 673.972C513.933 674.616 514.596 675.373 515.05 676.244C515.514 677.106 515.746 678.044 515.746 679.057V694H508.417V690.932H508.246C507.81 691.746 507.28 692.404 506.655 692.906C506.04 693.408 505.334 693.773 504.539 694C503.753 694.227 502.886 694.341 501.939 694.341ZM504.496 689.398C505.093 689.398 505.651 689.275 506.172 689.028C506.703 688.782 507.133 688.427 507.465 687.963C507.796 687.499 507.962 686.936 507.962 686.273V684.455C507.754 684.54 507.531 684.62 507.294 684.696C507.067 684.772 506.821 684.843 506.556 684.909C506.3 684.975 506.025 685.037 505.732 685.094C505.448 685.151 505.15 685.203 504.837 685.25C504.231 685.345 503.734 685.501 503.346 685.719C502.967 685.927 502.683 686.188 502.493 686.5C502.313 686.803 502.223 687.144 502.223 687.523C502.223 688.129 502.436 688.593 502.863 688.915C503.289 689.237 503.833 689.398 504.496 689.398ZM549.45 672.182L542.12 694H533.029L525.7 672.182H533.939L537.461 686.614H537.689L541.211 672.182H549.45ZM551.68 694V672.182H559.521V694H551.68ZM555.6 669.909C554.54 669.909 553.631 669.559 552.873 668.858C552.116 668.157 551.737 667.314 551.737 666.33C551.737 665.345 552.116 664.502 552.873 663.801C553.631 663.1 554.54 662.75 555.6 662.75C556.671 662.75 557.58 663.1 558.328 663.801C559.085 664.502 559.464 665.345 559.464 666.33C559.464 667.314 559.085 668.157 558.328 668.858C557.58 669.559 556.671 669.909 555.6 669.909ZM571.414 694.284C569.861 694.284 568.431 693.877 567.124 693.062C565.827 692.248 564.785 691.012 563.999 689.355C563.222 687.698 562.834 685.61 562.834 683.091C562.834 680.458 563.241 678.318 564.056 676.67C564.88 675.023 565.94 673.815 567.238 673.048C568.544 672.281 569.917 671.898 571.357 671.898C572.436 671.898 573.383 672.087 574.198 672.466C575.012 672.835 575.694 673.332 576.243 673.957C576.792 674.573 577.209 675.25 577.493 675.989H577.607V664.909H585.448V694H577.664V690.42H577.493C577.19 691.159 576.755 691.822 576.186 692.409C575.628 692.987 574.946 693.446 574.141 693.787C573.346 694.118 572.436 694.284 571.414 694.284ZM574.311 688.261C575.031 688.261 575.647 688.053 576.158 687.636C576.679 687.21 577.077 686.614 577.351 685.847C577.635 685.07 577.777 684.152 577.777 683.091C577.777 682.011 577.635 681.088 577.351 680.321C577.077 679.545 576.679 678.953 576.158 678.545C575.647 678.129 575.031 677.92 574.311 677.92C573.592 677.92 572.976 678.129 572.465 678.545C571.963 678.953 571.575 679.545 571.3 680.321C571.035 681.088 570.902 682.011 570.902 683.091C570.902 684.17 571.035 685.098 571.3 685.875C571.575 686.642 571.963 687.234 572.465 687.651C572.976 688.058 573.592 688.261 574.311 688.261ZM595.377 694.341C593.985 694.341 592.754 694.114 591.684 693.659C590.623 693.195 589.79 692.494 589.184 691.557C588.578 690.619 588.275 689.426 588.275 687.977C588.275 686.784 588.478 685.766 588.885 684.923C589.292 684.071 589.861 683.375 590.59 682.835C591.319 682.295 592.167 681.884 593.132 681.599C594.108 681.315 595.159 681.131 596.286 681.045C597.507 680.951 598.488 680.837 599.226 680.705C599.974 680.562 600.514 680.368 600.846 680.122C601.177 679.866 601.343 679.53 601.343 679.114V679.057C601.343 678.489 601.125 678.053 600.689 677.75C600.254 677.447 599.695 677.295 599.013 677.295C598.265 677.295 597.654 677.461 597.181 677.793C596.717 678.115 596.437 678.612 596.343 679.284H589.127C589.221 677.958 589.643 676.737 590.391 675.619C591.149 674.492 592.252 673.593 593.701 672.92C595.15 672.239 596.958 671.898 599.127 671.898C600.689 671.898 602.091 672.082 603.331 672.452C604.572 672.812 605.628 673.318 606.499 673.972C607.37 674.616 608.033 675.373 608.488 676.244C608.952 677.106 609.184 678.044 609.184 679.057V694H601.854V690.932H601.684C601.248 691.746 600.718 692.404 600.093 692.906C599.477 693.408 598.772 693.773 597.976 694C597.19 694.227 596.324 694.341 595.377 694.341ZM597.934 689.398C598.53 689.398 599.089 689.275 599.61 689.028C600.14 688.782 600.571 688.427 600.902 687.963C601.234 687.499 601.4 686.936 601.4 686.273V684.455C601.191 684.54 600.969 684.62 600.732 684.696C600.505 684.772 600.258 684.843 599.993 684.909C599.738 684.975 599.463 685.037 599.169 685.094C598.885 685.151 598.587 685.203 598.275 685.25C597.668 685.345 597.171 685.501 596.783 685.719C596.404 685.927 596.12 686.188 595.931 686.5C595.751 686.803 595.661 687.144 595.661 687.523C595.661 688.129 595.874 688.593 596.3 688.915C596.726 689.237 597.271 689.398 597.934 689.398ZM631.353 694.398C629.024 694.398 627.016 693.953 625.331 693.062C623.654 692.163 622.362 690.875 621.453 689.199C620.553 687.513 620.103 685.496 620.103 683.148C620.103 680.894 620.558 678.924 621.467 677.239C622.376 675.553 623.659 674.241 625.316 673.304C626.974 672.366 628.929 671.898 631.183 671.898C632.831 671.898 634.322 672.153 635.657 672.665C636.993 673.176 638.134 673.92 639.081 674.895C640.028 675.861 640.757 677.035 641.268 678.418C641.779 679.8 642.035 681.358 642.035 683.091V684.909H622.547V680.591H634.819C634.81 679.966 634.649 679.417 634.336 678.943C634.033 678.46 633.621 678.086 633.1 677.821C632.589 677.546 632.007 677.409 631.353 677.409C630.719 677.409 630.136 677.546 629.606 677.821C629.076 678.086 628.65 678.455 628.328 678.929C628.015 679.402 627.85 679.956 627.831 680.591V685.25C627.831 685.951 627.977 686.576 628.271 687.125C628.565 687.674 628.986 688.105 629.535 688.418C630.084 688.73 630.747 688.886 631.524 688.886C632.064 688.886 632.556 688.811 633.001 688.659C633.456 688.508 633.844 688.29 634.166 688.006C634.488 687.712 634.725 687.362 634.876 686.955H642.035C641.789 688.47 641.207 689.786 640.288 690.903C639.369 692.011 638.153 692.873 636.637 693.489C635.132 694.095 633.37 694.398 631.353 694.398ZM628.456 669.455L631.183 663.091H637.887L633.626 669.455H628.456ZM659.283 694.341C657.891 694.341 656.66 694.114 655.59 693.659C654.529 693.195 653.696 692.494 653.09 691.557C652.484 690.619 652.181 689.426 652.181 687.977C652.181 686.784 652.384 685.766 652.792 684.923C653.199 684.071 653.767 683.375 654.496 682.835C655.225 682.295 656.073 681.884 657.039 681.599C658.014 681.315 659.065 681.131 660.192 681.045C661.414 680.951 662.394 680.837 663.132 680.705C663.881 680.562 664.42 680.368 664.752 680.122C665.083 679.866 665.249 679.53 665.249 679.114V679.057C665.249 678.489 665.031 678.053 664.596 677.75C664.16 677.447 663.601 677.295 662.919 677.295C662.171 677.295 661.56 677.461 661.087 677.793C660.623 678.115 660.344 678.612 660.249 679.284H653.033C653.128 677.958 653.549 676.737 654.297 675.619C655.055 674.492 656.158 673.593 657.607 672.92C659.056 672.239 660.864 671.898 663.033 671.898C664.596 671.898 665.997 672.082 667.238 672.452C668.478 672.812 669.534 673.318 670.405 673.972C671.276 674.616 671.939 675.373 672.394 676.244C672.858 677.106 673.09 678.044 673.09 679.057V694H665.76V690.932H665.59C665.154 691.746 664.624 692.404 663.999 692.906C663.383 693.408 662.678 693.773 661.882 694C661.096 694.227 660.23 694.341 659.283 694.341ZM661.84 689.398C662.436 689.398 662.995 689.275 663.516 689.028C664.046 688.782 664.477 688.427 664.809 687.963C665.14 687.499 665.306 686.936 665.306 686.273V684.455C665.097 684.54 664.875 684.62 664.638 684.696C664.411 684.772 664.165 684.843 663.9 684.909C663.644 684.975 663.369 685.037 663.076 685.094C662.792 685.151 662.493 685.203 662.181 685.25C661.575 685.345 661.078 685.501 660.689 685.719C660.31 685.927 660.026 686.188 659.837 686.5C659.657 686.803 659.567 687.144 659.567 687.523C659.567 688.129 659.78 688.593 660.206 688.915C660.632 689.237 661.177 689.398 661.84 689.398ZM692.646 681.727V694H684.805V672.182H692.248V676.33H692.475C692.949 674.947 693.782 673.863 694.975 673.077C696.178 672.291 697.58 671.898 699.18 671.898C700.724 671.898 702.064 672.253 703.2 672.963C704.346 673.664 705.231 674.63 705.856 675.861C706.491 677.092 706.803 678.498 706.794 680.08V694H698.953V681.727C698.962 680.648 698.688 679.8 698.129 679.185C697.58 678.569 696.813 678.261 695.828 678.261C695.184 678.261 694.62 678.403 694.137 678.688C693.664 678.962 693.299 679.36 693.044 679.881C692.788 680.392 692.655 681.008 692.646 681.727ZM721.176 694.398C718.808 694.398 716.782 693.929 715.096 692.991C713.411 692.045 712.118 690.728 711.218 689.043C710.319 687.348 709.869 685.383 709.869 683.148C709.869 680.913 710.319 678.953 711.218 677.267C712.118 675.572 713.411 674.256 715.096 673.318C716.782 672.371 718.808 671.898 721.176 671.898C723.543 671.898 725.57 672.371 727.255 673.318C728.941 674.256 730.234 675.572 731.133 677.267C732.033 678.953 732.483 680.913 732.483 683.148C732.483 685.383 732.033 687.348 731.133 689.043C730.234 690.728 728.941 692.045 727.255 692.991C725.57 693.929 723.543 694.398 721.176 694.398ZM721.233 688.602C721.895 688.602 722.468 688.38 722.951 687.935C723.434 687.49 723.808 686.855 724.074 686.031C724.339 685.207 724.471 684.227 724.471 683.091C724.471 681.945 724.339 680.965 724.074 680.151C723.808 679.327 723.434 678.692 722.951 678.247C722.468 677.802 721.895 677.58 721.233 677.58C720.532 677.58 719.931 677.802 719.429 678.247C718.927 678.692 718.543 679.327 718.278 680.151C718.013 680.965 717.88 681.945 717.88 683.091C717.88 684.227 718.013 685.207 718.278 686.031C718.543 686.855 718.927 687.49 719.429 687.935C719.931 688.38 720.532 688.602 721.233 688.602ZM755.608 679.284H748.392C748.354 678.839 748.198 678.455 747.923 678.134C747.648 677.812 747.293 677.565 746.858 677.395C746.431 677.215 745.958 677.125 745.437 677.125C744.765 677.125 744.187 677.248 743.704 677.494C743.221 677.741 742.984 678.091 742.994 678.545C742.984 678.867 743.122 679.166 743.406 679.44C743.699 679.715 744.263 679.928 745.096 680.08L749.528 680.875C751.763 681.282 753.425 681.969 754.514 682.935C755.612 683.891 756.166 685.174 756.176 686.784C756.166 688.337 755.702 689.687 754.784 690.832C753.875 691.969 752.629 692.849 751.048 693.474C749.476 694.09 747.681 694.398 745.664 694.398C742.331 694.398 739.722 693.716 737.838 692.352C735.963 690.989 734.916 689.189 734.699 686.955H742.483C742.587 687.646 742.928 688.181 743.505 688.56C744.092 688.929 744.831 689.114 745.721 689.114C746.441 689.114 747.033 688.991 747.497 688.744C747.97 688.498 748.212 688.148 748.221 687.693C748.212 687.277 748.003 686.945 747.596 686.699C747.199 686.453 746.574 686.254 745.721 686.102L741.858 685.42C739.632 685.032 737.966 684.294 736.858 683.205C735.75 682.116 735.2 680.714 735.21 679C735.2 677.485 735.598 676.202 736.403 675.151C737.217 674.09 738.377 673.285 739.883 672.736C741.398 672.177 743.193 671.898 745.267 671.898C748.42 671.898 750.906 672.551 752.724 673.858C754.552 675.165 755.513 676.973 755.608 679.284ZM779.123 679.284H771.907C771.869 678.839 771.713 678.455 771.439 678.134C771.164 677.812 770.809 677.565 770.373 677.395C769.947 677.215 769.474 677.125 768.953 677.125C768.28 677.125 767.703 677.248 767.22 677.494C766.737 677.741 766.5 678.091 766.51 678.545C766.5 678.867 766.637 679.166 766.922 679.44C767.215 679.715 767.779 679.928 768.612 680.08L773.044 680.875C775.279 681.282 776.94 681.969 778.029 682.935C779.128 683.891 779.682 685.174 779.691 686.784C779.682 688.337 779.218 689.687 778.299 690.832C777.39 691.969 776.145 692.849 774.564 693.474C772.992 694.09 771.197 694.398 769.18 694.398C765.847 694.398 763.238 693.716 761.353 692.352C759.478 690.989 758.432 689.189 758.214 686.955H765.998C766.102 687.646 766.443 688.181 767.021 688.56C767.608 688.929 768.347 689.114 769.237 689.114C769.957 689.114 770.548 688.991 771.012 688.744C771.486 688.498 771.727 688.148 771.737 687.693C771.727 687.277 771.519 686.945 771.112 686.699C770.714 686.453 770.089 686.254 769.237 686.102L765.373 685.42C763.148 685.032 761.481 684.294 760.373 683.205C759.265 682.116 758.716 680.714 758.725 679C758.716 677.485 759.114 676.202 759.919 675.151C760.733 674.09 761.893 673.285 763.399 672.736C764.914 672.177 766.708 671.898 768.782 671.898C771.936 671.898 774.422 672.551 776.24 673.858C778.067 675.165 779.029 676.973 779.123 679.284ZM788.775 694.341C787.383 694.341 786.152 694.114 785.082 693.659C784.021 693.195 783.188 692.494 782.582 691.557C781.976 690.619 781.673 689.426 781.673 687.977C781.673 686.784 781.877 685.766 782.284 684.923C782.691 684.071 783.259 683.375 783.988 682.835C784.717 682.295 785.565 681.884 786.531 681.599C787.506 681.315 788.557 681.131 789.684 681.045C790.906 680.951 791.886 680.837 792.625 680.705C793.373 680.562 793.913 680.368 794.244 680.122C794.575 679.866 794.741 679.53 794.741 679.114V679.057C794.741 678.489 794.523 678.053 794.088 677.75C793.652 677.447 793.093 677.295 792.412 677.295C791.663 677.295 791.053 677.461 790.579 677.793C790.115 678.115 789.836 678.612 789.741 679.284H782.525C782.62 677.958 783.041 676.737 783.789 675.619C784.547 674.492 785.65 673.593 787.099 672.92C788.548 672.239 790.357 671.898 792.525 671.898C794.088 671.898 795.489 672.082 796.73 672.452C797.97 672.812 799.026 673.318 799.897 673.972C800.769 674.616 801.431 675.373 801.886 676.244C802.35 677.106 802.582 678.044 802.582 679.057V694H795.252V690.932H795.082C794.646 691.746 794.116 692.404 793.491 692.906C792.876 693.408 792.17 693.773 791.375 694C790.589 694.227 789.722 694.341 788.775 694.341ZM791.332 689.398C791.929 689.398 792.487 689.275 793.008 689.028C793.538 688.782 793.969 688.427 794.301 687.963C794.632 687.499 794.798 686.936 794.798 686.273V684.455C794.59 684.54 794.367 684.62 794.13 684.696C793.903 684.772 793.657 684.843 793.392 684.909C793.136 684.975 792.861 685.037 792.568 685.094C792.284 685.151 791.985 685.203 791.673 685.25C791.067 685.345 790.57 685.501 790.181 685.719C789.803 685.927 789.519 686.188 789.329 686.5C789.149 686.803 789.059 687.144 789.059 687.523C789.059 688.129 789.272 688.593 789.699 688.915C790.125 689.237 790.669 689.398 791.332 689.398ZM827.309 672.182V677.864H812.934V672.182H827.309ZM815.718 666.955H823.559V686.983C823.559 687.286 823.611 687.542 823.715 687.75C823.819 687.949 823.98 688.1 824.198 688.205C824.416 688.299 824.695 688.347 825.036 688.347C825.273 688.347 825.547 688.318 825.86 688.261C826.182 688.205 826.418 688.157 826.57 688.119L827.706 693.631C827.356 693.735 826.854 693.863 826.201 694.014C825.557 694.166 824.79 694.265 823.9 694.312C822.1 694.407 820.59 694.223 819.368 693.759C818.147 693.285 817.228 692.542 816.613 691.528C815.997 690.515 815.699 689.246 815.718 687.722V666.955ZM840.728 694.398C838.399 694.398 836.391 693.953 834.706 693.062C833.029 692.163 831.737 690.875 830.828 689.199C829.928 687.513 829.478 685.496 829.478 683.148C829.478 680.894 829.933 678.924 830.842 677.239C831.751 675.553 833.034 674.241 834.691 673.304C836.349 672.366 838.304 671.898 840.558 671.898C842.206 671.898 843.697 672.153 845.032 672.665C846.368 673.176 847.509 673.92 848.456 674.895C849.403 675.861 850.132 677.035 850.643 678.418C851.154 679.8 851.41 681.358 851.41 683.091V684.909H831.922V680.591H844.194C844.185 679.966 844.024 679.417 843.711 678.943C843.408 678.46 842.996 678.086 842.475 677.821C841.964 677.546 841.382 677.409 840.728 677.409C840.094 677.409 839.511 677.546 838.981 677.821C838.451 678.086 838.025 678.455 837.703 678.929C837.39 679.402 837.225 679.956 837.206 680.591V685.25C837.206 685.951 837.352 686.576 837.646 687.125C837.94 687.674 838.361 688.105 838.91 688.418C839.459 688.73 840.122 688.886 840.899 688.886C841.439 688.886 841.931 688.811 842.376 688.659C842.831 688.508 843.219 688.29 843.541 688.006C843.863 687.712 844.1 687.362 844.251 686.955H851.41C851.164 688.47 850.582 689.786 849.663 690.903C848.744 692.011 847.528 692.873 846.012 693.489C844.507 694.095 842.745 694.398 840.728 694.398ZM862.451 664.909V694H854.61V664.909H862.451ZM872.525 694.341C871.133 694.341 869.902 694.114 868.832 693.659C867.771 693.195 866.938 692.494 866.332 691.557C865.726 690.619 865.423 689.426 865.423 687.977C865.423 686.784 865.627 685.766 866.034 684.923C866.441 684.071 867.009 683.375 867.738 682.835C868.467 682.295 869.315 681.884 870.281 681.599C871.256 681.315 872.307 681.131 873.434 681.045C874.656 680.951 875.636 680.837 876.375 680.705C877.123 680.562 877.663 680.368 877.994 680.122C878.325 679.866 878.491 679.53 878.491 679.114V679.057C878.491 678.489 878.273 678.053 877.838 677.75C877.402 677.447 876.843 677.295 876.162 677.295C875.413 677.295 874.803 677.461 874.329 677.793C873.865 678.115 873.586 678.612 873.491 679.284H866.275C866.37 677.958 866.791 676.737 867.539 675.619C868.297 674.492 869.4 673.593 870.849 672.92C872.298 672.239 874.107 671.898 876.275 671.898C877.838 671.898 879.239 672.082 880.48 672.452C881.72 672.812 882.776 673.318 883.647 673.972C884.519 674.616 885.181 675.373 885.636 676.244C886.1 677.106 886.332 678.044 886.332 679.057V694H879.002V690.932H878.832C878.396 691.746 877.866 692.404 877.241 692.906C876.626 693.408 875.92 693.773 875.125 694C874.339 694.227 873.472 694.341 872.525 694.341ZM875.082 689.398C875.679 689.398 876.237 689.275 876.758 689.028C877.288 688.782 877.719 688.427 878.051 687.963C878.382 687.499 878.548 686.936 878.548 686.273V684.455C878.34 684.54 878.117 684.62 877.88 684.696C877.653 684.772 877.407 684.843 877.142 684.909C876.886 684.975 876.611 685.037 876.318 685.094C876.034 685.151 875.735 685.203 875.423 685.25C874.817 685.345 874.32 685.501 873.931 685.719C873.553 685.927 873.269 686.188 873.079 686.5C872.899 686.803 872.809 687.144 872.809 687.523C872.809 688.129 873.022 688.593 873.449 688.915C873.875 689.237 874.419 689.398 875.082 689.398ZM908.502 694.398C906.172 694.398 904.165 693.953 902.479 693.062C900.803 692.163 899.51 690.875 898.601 689.199C897.702 687.513 897.252 685.496 897.252 683.148C897.252 680.894 897.706 678.924 898.615 677.239C899.525 675.553 900.808 674.241 902.465 673.304C904.122 672.366 906.078 671.898 908.331 671.898C909.979 671.898 911.471 672.153 912.806 672.665C914.141 673.176 915.282 673.92 916.229 674.895C917.176 675.861 917.905 677.035 918.417 678.418C918.928 679.8 919.184 681.358 919.184 683.091V684.909H899.695V680.591H911.968C911.958 679.966 911.797 679.417 911.485 678.943C911.182 678.46 910.77 678.086 910.249 677.821C909.738 677.546 909.155 677.409 908.502 677.409C907.867 677.409 907.285 677.546 906.755 677.821C906.224 678.086 905.798 678.455 905.476 678.929C905.164 679.402 904.998 679.956 904.979 680.591V685.25C904.979 685.951 905.126 686.576 905.419 687.125C905.713 687.674 906.134 688.105 906.684 688.418C907.233 688.73 907.896 688.886 908.672 688.886C909.212 688.886 909.704 688.811 910.15 688.659C910.604 688.508 910.992 688.29 911.314 688.006C911.636 687.712 911.873 687.362 912.025 686.955H919.184C918.937 688.47 918.355 689.786 917.436 690.903C916.518 692.011 915.301 692.873 913.786 693.489C912.28 694.095 910.519 694.398 908.502 694.398ZM922.383 694V672.182H929.826V676.33H930.054C930.508 674.966 931.285 673.886 932.383 673.091C933.482 672.295 934.788 671.898 936.304 671.898C937.838 671.898 939.159 672.305 940.267 673.119C941.375 673.924 942.042 674.994 942.27 676.33H942.497C942.866 674.994 943.652 673.924 944.855 673.119C946.057 672.305 947.468 671.898 949.088 671.898C951.181 671.898 952.876 672.57 954.173 673.915C955.48 675.259 956.133 677.049 956.133 679.284V694H948.292V681.273C948.292 680.316 948.051 679.568 947.568 679.028C947.085 678.479 946.436 678.205 945.622 678.205C944.817 678.205 944.178 678.479 943.704 679.028C943.24 679.568 943.008 680.316 943.008 681.273V694H935.508V681.273C935.508 680.316 935.267 679.568 934.784 679.028C934.301 678.479 933.652 678.205 932.838 678.205C932.298 678.205 931.834 678.328 931.446 678.574C931.057 678.82 930.754 679.175 930.537 679.639C930.328 680.094 930.224 680.638 930.224 681.273V694H922.383ZM967.855 694V664.909H975.696V675.989H975.81C976.094 675.25 976.511 674.573 977.06 673.957C977.609 673.332 978.291 672.835 979.105 672.466C979.92 672.087 980.867 671.898 981.946 671.898C983.386 671.898 984.754 672.281 986.051 673.048C987.358 673.815 988.419 675.023 989.233 676.67C990.057 678.318 990.469 680.458 990.469 683.091C990.469 685.61 990.076 687.698 989.29 689.355C988.514 691.012 987.472 692.248 986.165 693.062C984.868 693.877 983.443 694.284 981.89 694.284C980.867 694.284 979.953 694.118 979.148 693.787C978.353 693.446 977.671 692.987 977.103 692.409C976.544 691.822 976.113 691.159 975.81 690.42H975.64V694H967.855ZM975.526 683.091C975.526 684.152 975.663 685.07 975.938 685.847C976.222 686.614 976.62 687.21 977.131 687.636C977.652 688.053 978.272 688.261 978.992 688.261C979.712 688.261 980.322 688.058 980.824 687.651C981.336 687.234 981.724 686.642 981.989 685.875C982.264 685.098 982.401 684.17 982.401 683.091C982.401 682.011 982.264 681.088 981.989 680.321C981.724 679.545 981.336 678.953 980.824 678.545C980.322 678.129 979.712 677.92 978.992 677.92C978.272 677.92 977.652 678.129 977.131 678.545C976.62 678.953 976.222 679.545 975.938 680.321C975.663 681.088 975.526 682.011 975.526 683.091ZM993.75 694V672.182H1001.36V676.33H1001.59C1001.99 674.795 1002.62 673.673 1003.48 672.963C1004.35 672.253 1005.37 671.898 1006.53 671.898C1006.88 671.898 1007.21 671.926 1007.54 671.983C1007.88 672.03 1008.21 672.101 1008.52 672.196V678.886C1008.13 678.754 1007.66 678.654 1007.09 678.588C1006.52 678.522 1006.03 678.489 1005.63 678.489C1004.86 678.489 1004.17 678.664 1003.55 679.014C1002.95 679.355 1002.47 679.838 1002.12 680.463C1001.77 681.079 1001.59 681.803 1001.59 682.636V694H993.75ZM1016.16 694.341C1014.77 694.341 1013.53 694.114 1012.46 693.659C1011.4 693.195 1010.57 692.494 1009.96 691.557C1009.36 690.619 1009.06 689.426 1009.06 687.977C1009.06 686.784 1009.26 685.766 1009.67 684.923C1010.07 684.071 1010.64 683.375 1011.37 682.835C1012.1 682.295 1012.95 681.884 1013.91 681.599C1014.89 681.315 1015.94 681.131 1017.07 681.045C1018.29 680.951 1019.27 680.837 1020.01 680.705C1020.76 680.562 1021.3 680.368 1021.63 680.122C1021.96 679.866 1022.12 679.53 1022.12 679.114V679.057C1022.12 678.489 1021.91 678.053 1021.47 677.75C1021.03 677.447 1020.48 677.295 1019.79 677.295C1019.05 677.295 1018.44 677.461 1017.96 677.793C1017.5 678.115 1017.22 678.612 1017.12 679.284H1009.91C1010 677.958 1010.42 676.737 1011.17 675.619C1011.93 674.492 1013.03 673.593 1014.48 672.92C1015.93 672.239 1017.74 671.898 1019.91 671.898C1021.47 671.898 1022.87 672.082 1024.11 672.452C1025.35 672.812 1026.41 673.318 1027.28 673.972C1028.15 674.616 1028.81 675.373 1029.27 676.244C1029.73 677.106 1029.96 678.044 1029.96 679.057V694H1022.64V690.932H1022.46C1022.03 691.746 1021.5 692.404 1020.87 692.906C1020.26 693.408 1019.55 693.773 1018.76 694C1017.97 694.227 1017.1 694.341 1016.16 694.341ZM1018.71 689.398C1019.31 689.398 1019.87 689.275 1020.39 689.028C1020.92 688.782 1021.35 688.427 1021.68 687.963C1022.02 687.499 1022.18 686.936 1022.18 686.273V684.455C1021.97 684.54 1021.75 684.62 1021.51 684.696C1021.29 684.772 1021.04 684.843 1020.77 684.909C1020.52 684.975 1020.24 685.037 1019.95 685.094C1019.67 685.151 1019.37 685.203 1019.06 685.25C1018.45 685.345 1017.95 685.501 1017.56 685.719C1017.19 685.927 1016.9 686.188 1016.71 686.5C1016.53 686.803 1016.44 687.144 1016.44 687.523C1016.44 688.129 1016.66 688.593 1017.08 688.915C1017.51 689.237 1018.05 689.398 1018.71 689.398ZM1041.55 681.727V694H1033.71V672.182H1041.15V676.33H1041.38C1041.86 674.947 1042.69 673.863 1043.88 673.077C1045.08 672.291 1046.49 671.898 1048.09 671.898C1049.63 671.898 1050.97 672.253 1052.11 672.963C1053.25 673.664 1054.14 674.63 1054.76 675.861C1055.4 677.092 1055.71 678.498 1055.7 680.08V694H1047.86V681.727C1047.87 680.648 1047.59 679.8 1047.04 679.185C1046.49 678.569 1045.72 678.261 1044.73 678.261C1044.09 678.261 1043.53 678.403 1043.04 678.688C1042.57 678.962 1042.21 679.36 1041.95 679.881C1041.69 680.392 1041.56 681.008 1041.55 681.727ZM1070.08 694.398C1067.71 694.398 1065.69 693.929 1064 692.991C1062.32 692.045 1061.02 690.728 1060.12 689.043C1059.23 687.348 1058.78 685.383 1058.78 683.148C1058.78 680.913 1059.23 678.953 1060.12 677.267C1061.02 675.572 1062.32 674.256 1064 673.318C1065.69 672.371 1067.71 671.898 1070.08 671.898C1072.22 671.898 1074.07 672.286 1075.64 673.062C1077.21 673.83 1078.42 674.919 1079.29 676.33C1080.15 677.731 1080.58 679.379 1080.59 681.273H1073.32C1073.22 680.127 1072.89 679.256 1072.33 678.659C1071.78 678.053 1071.07 677.75 1070.2 677.75C1069.51 677.75 1068.92 677.949 1068.41 678.347C1067.89 678.735 1067.5 679.327 1067.21 680.122C1066.93 680.908 1066.79 681.898 1066.79 683.091C1066.79 684.284 1066.93 685.278 1067.21 686.074C1067.5 686.86 1067.89 687.452 1068.41 687.849C1068.92 688.238 1069.51 688.432 1070.2 688.432C1070.77 688.432 1071.28 688.299 1071.73 688.034C1072.17 687.759 1072.53 687.362 1072.81 686.841C1073.09 686.311 1073.26 685.667 1073.32 684.909H1080.59C1080.56 686.831 1080.12 688.508 1079.27 689.938C1078.42 691.358 1077.21 692.456 1075.65 693.233C1074.1 694.009 1072.24 694.398 1070.08 694.398ZM1094.34 694.398C1091.97 694.398 1089.95 693.929 1088.26 692.991C1086.57 692.045 1085.28 690.728 1084.38 689.043C1083.48 687.348 1083.03 685.383 1083.03 683.148C1083.03 680.913 1083.48 678.953 1084.38 677.267C1085.28 675.572 1086.57 674.256 1088.26 673.318C1089.95 672.371 1091.97 671.898 1094.34 671.898C1096.71 671.898 1098.73 672.371 1100.42 673.318C1102.1 674.256 1103.4 675.572 1104.3 677.267C1105.2 678.953 1105.65 680.913 1105.65 683.148C1105.65 685.383 1105.2 687.348 1104.3 689.043C1103.4 690.728 1102.1 692.045 1100.42 692.991C1098.73 693.929 1096.71 694.398 1094.34 694.398ZM1094.4 688.602C1095.06 688.602 1095.63 688.38 1096.12 687.935C1096.6 687.49 1096.97 686.855 1097.24 686.031C1097.5 685.207 1097.64 684.227 1097.64 683.091C1097.64 681.945 1097.5 680.965 1097.24 680.151C1096.97 679.327 1096.6 678.692 1096.12 678.247C1095.63 677.802 1095.06 677.58 1094.4 677.58C1093.7 677.58 1093.09 677.802 1092.59 678.247C1092.09 678.692 1091.71 679.327 1091.44 680.151C1091.18 680.965 1091.04 681.945 1091.04 683.091C1091.04 684.227 1091.18 685.207 1091.44 686.031C1091.71 686.855 1092.09 687.49 1092.59 687.935C1093.09 688.38 1093.7 688.602 1094.4 688.602ZM1113.09 694.455C1111.99 694.455 1111.05 694.071 1110.26 693.304C1109.49 692.527 1109.1 691.585 1109.11 690.477C1109.1 689.398 1109.49 688.474 1110.26 687.707C1111.05 686.94 1111.99 686.557 1113.09 686.557C1114.13 686.557 1115.05 686.94 1115.85 687.707C1116.65 688.474 1117.06 689.398 1117.07 690.477C1117.06 691.216 1116.86 691.888 1116.48 692.494C1116.12 693.091 1115.63 693.569 1115.04 693.929C1114.44 694.279 1113.79 694.455 1113.09 694.455Z" fill="black"/>
<path d="M385.412 629.284H378.196C378.158 628.839 378.002 628.455 377.728 628.134C377.453 627.812 377.098 627.565 376.662 627.395C376.236 627.215 375.763 627.125 375.242 627.125C374.569 627.125 373.992 627.248 373.509 627.494C373.026 627.741 372.789 628.091 372.799 628.545C372.789 628.867 372.926 629.166 373.211 629.44C373.504 629.715 374.068 629.928 374.901 630.08L379.333 630.875C381.568 631.282 383.23 631.969 384.319 632.935C385.417 633.891 385.971 635.174 385.98 636.784C385.971 638.337 385.507 639.687 384.588 640.832C383.679 641.969 382.434 642.849 380.853 643.474C379.281 644.09 377.486 644.398 375.469 644.398C372.136 644.398 369.527 643.716 367.642 642.352C365.767 640.989 364.721 639.189 364.503 636.955H372.287C372.391 637.646 372.732 638.181 373.31 638.56C373.897 638.929 374.636 639.114 375.526 639.114C376.246 639.114 376.837 638.991 377.301 638.744C377.775 638.498 378.016 638.148 378.026 637.693C378.016 637.277 377.808 636.945 377.401 636.699C377.003 636.453 376.378 636.254 375.526 636.102L371.662 635.42C369.437 635.032 367.77 634.294 366.662 633.205C365.554 632.116 365.005 630.714 365.015 629C365.005 627.485 365.403 626.202 366.208 625.151C367.022 624.09 368.182 623.285 369.688 622.736C371.203 622.177 372.998 621.898 375.071 621.898C378.225 621.898 380.711 622.551 382.529 623.858C384.356 625.165 385.318 626.973 385.412 629.284ZM399.496 644.398C397.129 644.398 395.102 643.929 393.417 642.991C391.731 642.045 390.438 640.728 389.539 639.043C388.639 637.348 388.189 635.383 388.189 633.148C388.189 630.913 388.639 628.953 389.539 627.267C390.438 625.572 391.731 624.256 393.417 623.318C395.102 622.371 397.129 621.898 399.496 621.898C401.864 621.898 403.89 622.371 405.576 623.318C407.261 624.256 408.554 625.572 409.453 627.267C410.353 628.953 410.803 630.913 410.803 633.148C410.803 635.383 410.353 637.348 409.453 639.043C408.554 640.728 407.261 642.045 405.576 642.991C403.89 643.929 401.864 644.398 399.496 644.398ZM399.553 638.602C400.216 638.602 400.789 638.38 401.272 637.935C401.755 637.49 402.129 636.855 402.394 636.031C402.659 635.207 402.792 634.227 402.792 633.091C402.792 631.945 402.659 630.965 402.394 630.151C402.129 629.327 401.755 628.692 401.272 628.247C400.789 627.802 400.216 627.58 399.553 627.58C398.852 627.58 398.251 627.802 397.749 628.247C397.247 628.692 396.864 629.327 396.598 630.151C396.333 630.965 396.201 631.945 396.201 633.091C396.201 634.227 396.333 635.207 396.598 636.031C396.864 636.855 397.247 637.49 397.749 637.935C398.251 638.38 398.852 638.602 399.553 638.602ZM421.826 631.727V644H413.985V622.182H421.428V626.33H421.655C422.129 624.947 422.962 623.863 424.155 623.077C425.358 622.291 426.759 621.898 428.36 621.898C429.903 621.898 431.243 622.253 432.38 622.963C433.525 623.664 434.411 624.63 435.036 625.861C435.67 627.092 435.983 628.498 435.973 630.08V644H428.132V631.727C428.142 630.648 427.867 629.8 427.309 629.185C426.759 628.569 425.992 628.261 425.007 628.261C424.364 628.261 423.8 628.403 423.317 628.688C422.844 628.962 422.479 629.36 422.223 629.881C421.968 630.392 421.835 631.008 421.826 631.727ZM447.685 631.727V644H439.844V614.909H447.401V626.33H447.628C448.121 624.937 448.94 623.853 450.086 623.077C451.231 622.291 452.609 621.898 454.219 621.898C455.763 621.898 457.103 622.248 458.239 622.949C459.385 623.65 460.27 624.616 460.895 625.847C461.53 627.078 461.842 628.489 461.833 630.08V644H453.992V631.727C454.001 630.648 453.731 629.8 453.182 629.185C452.642 628.569 451.871 628.261 450.867 628.261C450.232 628.261 449.674 628.403 449.191 628.688C448.717 628.962 448.348 629.36 448.083 629.881C447.827 630.392 447.694 631.008 447.685 631.727ZM476.215 644.398C473.847 644.398 471.821 643.929 470.135 642.991C468.45 642.045 467.157 640.728 466.257 639.043C465.358 637.348 464.908 635.383 464.908 633.148C464.908 630.913 465.358 628.953 466.257 627.267C467.157 625.572 468.45 624.256 470.135 623.318C471.821 622.371 473.847 621.898 476.215 621.898C478.582 621.898 480.609 622.371 482.294 623.318C483.98 624.256 485.273 625.572 486.172 627.267C487.072 628.953 487.522 630.913 487.522 633.148C487.522 635.383 487.072 637.348 486.172 639.043C485.273 640.728 483.98 642.045 482.294 642.991C480.609 643.929 478.582 644.398 476.215 644.398ZM476.272 638.602C476.935 638.602 477.507 638.38 477.99 637.935C478.473 637.49 478.847 636.855 479.113 636.031C479.378 635.207 479.51 634.227 479.51 633.091C479.51 631.945 479.378 630.965 479.113 630.151C478.847 629.327 478.473 628.692 477.99 628.247C477.507 627.802 476.935 627.58 476.272 627.58C475.571 627.58 474.97 627.802 474.468 628.247C473.966 628.692 473.582 629.327 473.317 630.151C473.052 630.965 472.919 631.945 472.919 633.091C472.919 634.227 473.052 635.207 473.317 636.031C473.582 636.855 473.966 637.49 474.468 637.935C474.97 638.38 475.571 638.602 476.272 638.602ZM510.647 629.284H503.431C503.393 628.839 503.237 628.455 502.962 628.134C502.687 627.812 502.332 627.565 501.897 627.395C501.471 627.215 500.997 627.125 500.476 627.125C499.804 627.125 499.226 627.248 498.743 627.494C498.26 627.741 498.024 628.091 498.033 628.545C498.024 628.867 498.161 629.166 498.445 629.44C498.739 629.715 499.302 629.928 500.135 630.08L504.567 630.875C506.802 631.282 508.464 631.969 509.553 632.935C510.651 633.891 511.205 635.174 511.215 636.784C511.205 638.337 510.741 639.687 509.823 640.832C508.914 641.969 507.668 642.849 506.087 643.474C504.515 644.09 502.721 644.398 500.703 644.398C497.37 644.398 494.761 643.716 492.877 642.352C491.002 640.989 489.955 639.189 489.738 636.955H497.522C497.626 637.646 497.967 638.181 498.544 638.56C499.132 638.929 499.87 639.114 500.76 639.114C501.48 639.114 502.072 638.991 502.536 638.744C503.009 638.498 503.251 638.148 503.26 637.693C503.251 637.277 503.042 636.945 502.635 636.699C502.238 636.453 501.613 636.254 500.76 636.102L496.897 635.42C494.671 635.032 493.005 634.294 491.897 633.205C490.789 632.116 490.239 630.714 490.249 629C490.239 627.485 490.637 626.202 491.442 625.151C492.257 624.09 493.417 623.285 494.922 622.736C496.437 622.177 498.232 621.898 500.306 621.898C503.459 621.898 505.945 622.551 507.763 623.858C509.591 625.165 510.552 626.973 510.647 629.284ZM532.642 644.398C530.313 644.398 528.305 643.953 526.62 643.062C524.944 642.163 523.651 640.875 522.742 639.199C521.842 637.513 521.392 635.496 521.392 633.148C521.392 630.894 521.847 628.924 522.756 627.239C523.665 625.553 524.948 624.241 526.605 623.304C528.263 622.366 530.218 621.898 532.472 621.898C534.12 621.898 535.611 622.153 536.946 622.665C538.282 623.176 539.423 623.92 540.37 624.895C541.317 625.861 542.046 627.035 542.557 628.418C543.069 629.8 543.324 631.358 543.324 633.091V634.909H523.836V630.591H536.108C536.099 629.966 535.938 629.417 535.625 628.943C535.322 628.46 534.91 628.086 534.39 627.821C533.878 627.546 533.296 627.409 532.642 627.409C532.008 627.409 531.426 627.546 530.895 627.821C530.365 628.086 529.939 628.455 529.617 628.929C529.304 629.402 529.139 629.956 529.12 630.591V635.25C529.12 635.951 529.266 636.576 529.56 637.125C529.854 637.674 530.275 638.105 530.824 638.418C531.373 638.73 532.036 638.886 532.813 638.886C533.353 638.886 533.845 638.811 534.29 638.659C534.745 638.508 535.133 638.29 535.455 638.006C535.777 637.712 536.014 637.362 536.165 636.955H543.324C543.078 638.47 542.496 639.786 541.577 640.903C540.658 642.011 539.442 642.873 537.926 643.489C536.421 644.095 534.659 644.398 532.642 644.398ZM546.524 644V622.182H553.967V626.33H554.194C554.649 624.966 555.425 623.886 556.524 623.091C557.622 622.295 558.929 621.898 560.444 621.898C561.978 621.898 563.299 622.305 564.407 623.119C565.515 623.924 566.183 624.994 566.41 626.33H566.637C567.007 624.994 567.793 623.924 568.995 623.119C570.198 622.305 571.609 621.898 573.228 621.898C575.321 621.898 577.016 622.57 578.314 623.915C579.62 625.259 580.274 627.049 580.274 629.284V644H572.433V631.273C572.433 630.316 572.191 629.568 571.708 629.028C571.225 628.479 570.577 628.205 569.762 628.205C568.958 628.205 568.318 628.479 567.845 629.028C567.381 629.568 567.149 630.316 567.149 631.273V644H559.649V631.273C559.649 630.316 559.407 629.568 558.924 629.028C558.441 628.479 557.793 628.205 556.978 628.205C556.439 628.205 555.975 628.328 555.586 628.574C555.198 628.82 554.895 629.175 554.677 629.639C554.469 630.094 554.365 630.638 554.365 631.273V644H546.524ZM602.621 644.398C600.254 644.398 598.227 643.929 596.542 642.991C594.856 642.045 593.563 640.728 592.664 639.043C591.764 637.348 591.314 635.383 591.314 633.148C591.314 630.913 591.764 628.953 592.664 627.267C593.563 625.572 594.856 624.256 596.542 623.318C598.227 622.371 600.254 621.898 602.621 621.898C604.989 621.898 607.015 622.371 608.701 623.318C610.386 624.256 611.679 625.572 612.578 627.267C613.478 628.953 613.928 630.913 613.928 633.148C613.928 635.383 613.478 637.348 612.578 639.043C611.679 640.728 610.386 642.045 608.701 642.991C607.015 643.929 604.989 644.398 602.621 644.398ZM602.678 638.602C603.341 638.602 603.914 638.38 604.397 637.935C604.88 637.49 605.254 636.855 605.519 636.031C605.784 635.207 605.917 634.227 605.917 633.091C605.917 631.945 605.784 630.965 605.519 630.151C605.254 629.327 604.88 628.692 604.397 628.247C603.914 627.802 603.341 627.58 602.678 627.58C601.977 627.58 601.376 627.802 600.874 628.247C600.372 628.692 599.989 629.327 599.723 630.151C599.458 630.965 599.326 631.945 599.326 633.091C599.326 634.227 599.458 635.207 599.723 636.031C599.989 636.855 600.372 637.49 600.874 637.935C601.376 638.38 601.977 638.602 602.678 638.602ZM616.996 644V614.909H624.837V625.989H624.951C625.235 625.25 625.651 624.573 626.201 623.957C626.75 623.332 627.432 622.835 628.246 622.466C629.06 622.087 630.007 621.898 631.087 621.898C632.526 621.898 633.895 622.281 635.192 623.048C636.499 623.815 637.56 625.023 638.374 626.67C639.198 628.318 639.61 630.458 639.61 633.091C639.61 635.61 639.217 637.698 638.431 639.355C637.654 641.012 636.613 642.248 635.306 643.062C634.008 643.877 632.583 644.284 631.03 644.284C630.007 644.284 629.094 644.118 628.289 643.787C627.493 643.446 626.811 642.987 626.243 642.409C625.685 641.822 625.254 641.159 624.951 640.42H624.78V644H616.996ZM624.667 633.091C624.667 634.152 624.804 635.07 625.078 635.847C625.363 636.614 625.76 637.21 626.272 637.636C626.792 638.053 627.413 638.261 628.132 638.261C628.852 638.261 629.463 638.058 629.965 637.651C630.476 637.234 630.864 636.642 631.13 635.875C631.404 635.098 631.542 634.17 631.542 633.091C631.542 632.011 631.404 631.088 631.13 630.321C630.864 629.545 630.476 628.953 629.965 628.545C629.463 628.129 628.852 627.92 628.132 627.92C627.413 627.92 626.792 628.129 626.272 628.545C625.76 628.953 625.363 629.545 625.078 630.321C624.804 631.088 624.667 632.011 624.667 633.091ZM642.891 644V622.182H650.505V626.33H650.732C651.13 624.795 651.759 623.673 652.621 622.963C653.492 622.253 654.51 621.898 655.675 621.898C656.016 621.898 656.352 621.926 656.684 621.983C657.025 622.03 657.351 622.101 657.664 622.196V628.886C657.275 628.754 656.797 628.654 656.229 628.588C655.661 628.522 655.173 628.489 654.766 628.489C653.999 628.489 653.308 628.664 652.692 629.014C652.086 629.355 651.608 629.838 651.257 630.463C650.907 631.079 650.732 631.803 650.732 632.636V644H642.891ZM665.299 644.341C663.907 644.341 662.676 644.114 661.605 643.659C660.545 643.195 659.712 642.494 659.105 641.557C658.499 640.619 658.196 639.426 658.196 637.977C658.196 636.784 658.4 635.766 658.807 634.923C659.214 634.071 659.783 633.375 660.512 632.835C661.241 632.295 662.088 631.884 663.054 631.599C664.03 631.315 665.081 631.131 666.208 631.045C667.429 630.951 668.409 630.837 669.148 630.705C669.896 630.562 670.436 630.368 670.767 630.122C671.099 629.866 671.265 629.53 671.265 629.114V629.057C671.265 628.489 671.047 628.053 670.611 627.75C670.176 627.447 669.617 627.295 668.935 627.295C668.187 627.295 667.576 627.461 667.103 627.793C666.639 628.115 666.359 628.612 666.265 629.284H659.049C659.143 627.958 659.565 626.737 660.313 625.619C661.07 624.492 662.174 623.593 663.623 622.92C665.071 622.239 666.88 621.898 669.049 621.898C670.611 621.898 672.013 622.082 673.253 622.452C674.494 622.812 675.55 623.318 676.421 623.972C677.292 624.616 677.955 625.373 678.409 626.244C678.873 627.106 679.105 628.044 679.105 629.057V644H671.776V640.932H671.605C671.17 641.746 670.64 642.404 670.015 642.906C669.399 643.408 668.694 643.773 667.898 644C667.112 644.227 666.246 644.341 665.299 644.341ZM667.855 639.398C668.452 639.398 669.011 639.275 669.532 639.028C670.062 638.782 670.493 638.427 670.824 637.963C671.156 637.499 671.321 636.936 671.321 636.273V634.455C671.113 634.54 670.891 634.62 670.654 634.696C670.426 634.772 670.18 634.843 669.915 634.909C669.659 634.975 669.385 635.037 669.091 635.094C668.807 635.151 668.509 635.203 668.196 635.25C667.59 635.345 667.093 635.501 666.705 635.719C666.326 635.927 666.042 636.188 665.853 636.5C665.673 636.803 665.583 637.144 665.583 637.523C665.583 638.129 665.796 638.593 666.222 638.915C666.648 639.237 667.193 639.398 667.855 639.398ZM702.795 629.284H695.579C695.541 628.839 695.385 628.455 695.11 628.134C694.836 627.812 694.481 627.565 694.045 627.395C693.619 627.215 693.145 627.125 692.625 627.125C691.952 627.125 691.375 627.248 690.892 627.494C690.409 627.741 690.172 628.091 690.181 628.545C690.172 628.867 690.309 629.166 690.593 629.44C690.887 629.715 691.45 629.928 692.284 630.08L696.716 630.875C698.95 631.282 700.612 631.969 701.701 632.935C702.8 633.891 703.354 635.174 703.363 636.784C703.354 638.337 702.89 639.687 701.971 640.832C701.062 641.969 699.817 642.849 698.235 643.474C696.663 644.09 694.869 644.398 692.852 644.398C689.519 644.398 686.91 643.716 685.025 642.352C683.15 640.989 682.104 639.189 681.886 636.955H689.67C689.774 637.646 690.115 638.181 690.693 638.56C691.28 638.929 692.019 639.114 692.909 639.114C693.628 639.114 694.22 638.991 694.684 638.744C695.158 638.498 695.399 638.148 695.409 637.693C695.399 637.277 695.191 636.945 694.784 636.699C694.386 636.453 693.761 636.254 692.909 636.102L689.045 635.42C686.82 635.032 685.153 634.294 684.045 633.205C682.937 632.116 682.388 630.714 682.397 629C682.388 627.485 682.786 626.202 683.591 625.151C684.405 624.09 685.565 623.285 687.071 622.736C688.586 622.177 690.38 621.898 692.454 621.898C695.608 621.898 698.093 622.551 699.912 623.858C701.739 625.165 702.7 626.973 702.795 629.284ZM722.234 644.284C720.681 644.284 719.251 643.877 717.944 643.062C716.647 642.248 715.605 641.012 714.819 639.355C714.043 637.698 713.654 635.61 713.654 633.091C713.654 630.458 714.062 628.318 714.876 626.67C715.7 625.023 716.761 623.815 718.058 623.048C719.365 622.281 720.738 621.898 722.177 621.898C723.257 621.898 724.204 622.087 725.018 622.466C725.833 622.835 726.514 623.332 727.064 623.957C727.613 624.573 728.029 625.25 728.314 625.989H728.427V614.909H736.268V644H728.484V640.42H728.314C728.011 641.159 727.575 641.822 727.007 642.409C726.448 642.987 725.766 643.446 724.961 643.787C724.166 644.118 723.257 644.284 722.234 644.284ZM725.132 638.261C725.851 638.261 726.467 638.053 726.978 637.636C727.499 637.21 727.897 636.614 728.172 635.847C728.456 635.07 728.598 634.152 728.598 633.091C728.598 632.011 728.456 631.088 728.172 630.321C727.897 629.545 727.499 628.953 726.978 628.545C726.467 628.129 725.851 627.92 725.132 627.92C724.412 627.92 723.797 628.129 723.285 628.545C722.783 628.953 722.395 629.545 722.12 630.321C721.855 631.088 721.723 632.011 721.723 633.091C721.723 634.17 721.855 635.098 722.12 635.875C722.395 636.642 722.783 637.234 723.285 637.651C723.797 638.058 724.412 638.261 725.132 638.261ZM750.572 644.398C748.243 644.398 746.235 643.953 744.549 643.062C742.873 642.163 741.581 640.875 740.672 639.199C739.772 637.513 739.322 635.496 739.322 633.148C739.322 630.894 739.777 628.924 740.686 627.239C741.595 625.553 742.878 624.241 744.535 623.304C746.192 622.366 748.148 621.898 750.402 621.898C752.049 621.898 753.541 622.153 754.876 622.665C756.211 623.176 757.352 623.92 758.299 624.895C759.246 625.861 759.975 627.035 760.487 628.418C760.998 629.8 761.254 631.358 761.254 633.091V634.909H741.765V630.591H754.038C754.029 629.966 753.868 629.417 753.555 628.943C753.252 628.46 752.84 628.086 752.319 627.821C751.808 627.546 751.225 627.409 750.572 627.409C749.938 627.409 749.355 627.546 748.825 627.821C748.295 628.086 747.868 628.455 747.547 628.929C747.234 629.402 747.068 629.956 747.049 630.591V635.25C747.049 635.951 747.196 636.576 747.49 637.125C747.783 637.674 748.205 638.105 748.754 638.418C749.303 638.73 749.966 638.886 750.743 638.886C751.282 638.886 751.775 638.811 752.22 638.659C752.674 638.508 753.063 638.29 753.385 638.006C753.707 637.712 753.943 637.362 754.095 636.955H761.254C761.008 638.47 760.425 639.786 759.507 640.903C758.588 642.011 757.371 642.873 755.856 643.489C754.35 644.095 752.589 644.398 750.572 644.398ZM778.502 644.341C777.11 644.341 775.879 644.114 774.809 643.659C773.748 643.195 772.915 642.494 772.309 641.557C771.703 640.619 771.4 639.426 771.4 637.977C771.4 636.784 771.603 635.766 772.01 634.923C772.417 634.071 772.986 633.375 773.715 632.835C774.444 632.295 775.292 631.884 776.257 631.599C777.233 631.315 778.284 631.131 779.411 631.045C780.632 630.951 781.613 630.837 782.351 630.705C783.099 630.562 783.639 630.368 783.971 630.122C784.302 629.866 784.468 629.53 784.468 629.114V629.057C784.468 628.489 784.25 628.053 783.814 627.75C783.379 627.447 782.82 627.295 782.138 627.295C781.39 627.295 780.779 627.461 780.306 627.793C779.842 628.115 779.562 628.612 779.468 629.284H772.252C772.346 627.958 772.768 626.737 773.516 625.619C774.274 624.492 775.377 623.593 776.826 622.92C778.275 622.239 780.083 621.898 782.252 621.898C783.814 621.898 785.216 622.082 786.456 622.452C787.697 622.812 788.753 623.318 789.624 623.972C790.495 624.616 791.158 625.373 791.613 626.244C792.077 627.106 792.309 628.044 792.309 629.057V644H784.979V640.932H784.809C784.373 641.746 783.843 642.404 783.218 642.906C782.602 643.408 781.897 643.773 781.101 644C780.315 644.227 779.449 644.341 778.502 644.341ZM781.059 639.398C781.655 639.398 782.214 639.275 782.735 639.028C783.265 638.782 783.696 638.427 784.027 637.963C784.359 637.499 784.525 636.936 784.525 636.273V634.455C784.316 634.54 784.094 634.62 783.857 634.696C783.63 634.772 783.383 634.843 783.118 634.909C782.863 634.975 782.588 635.037 782.294 635.094C782.01 635.151 781.712 635.203 781.4 635.25C780.793 635.345 780.296 635.501 779.908 635.719C779.529 635.927 779.245 636.188 779.056 636.5C778.876 636.803 778.786 637.144 778.786 637.523C778.786 638.129 778.999 638.593 779.425 638.915C779.851 639.237 780.396 639.398 781.059 639.398ZM796.055 644V622.182H803.669V626.33H803.896C804.294 624.795 804.923 623.673 805.785 622.963C806.656 622.253 807.674 621.898 808.839 621.898C809.18 621.898 809.516 621.926 809.848 621.983C810.189 622.03 810.515 622.101 810.828 622.196V628.886C810.44 628.754 809.961 628.654 809.393 628.588C808.825 628.522 808.337 628.489 807.93 628.489C807.163 628.489 806.472 628.664 805.856 629.014C805.25 629.355 804.772 629.838 804.422 630.463C804.071 631.079 803.896 631.803 803.896 632.636V644H796.055ZM827.309 622.182V627.864H812.934V622.182H827.309ZM815.718 616.955H823.559V636.983C823.559 637.286 823.611 637.542 823.715 637.75C823.819 637.949 823.98 638.1 824.198 638.205C824.416 638.299 824.695 638.347 825.036 638.347C825.273 638.347 825.547 638.318 825.86 638.261C826.182 638.205 826.418 638.157 826.57 638.119L827.706 643.631C827.356 643.735 826.854 643.863 826.201 644.014C825.557 644.166 824.79 644.265 823.9 644.312C822.1 644.407 820.59 644.223 819.368 643.759C818.147 643.285 817.228 642.542 816.613 641.528C815.997 640.515 815.699 639.246 815.718 637.722V616.955ZM840.728 644.398C838.399 644.398 836.391 643.953 834.706 643.062C833.029 642.163 831.737 640.875 830.828 639.199C829.928 637.513 829.478 635.496 829.478 633.148C829.478 630.894 829.933 628.924 830.842 627.239C831.751 625.553 833.034 624.241 834.691 623.304C836.349 622.366 838.304 621.898 840.558 621.898C842.206 621.898 843.697 622.153 845.032 622.665C846.368 623.176 847.509 623.92 848.456 624.895C849.403 625.861 850.132 627.035 850.643 628.418C851.154 629.8 851.41 631.358 851.41 633.091V634.909H831.922V630.591H844.194C844.185 629.966 844.024 629.417 843.711 628.943C843.408 628.46 842.996 628.086 842.475 627.821C841.964 627.546 841.382 627.409 840.728 627.409C840.094 627.409 839.511 627.546 838.981 627.821C838.451 628.086 838.025 628.455 837.703 628.929C837.39 629.402 837.225 629.956 837.206 630.591V635.25C837.206 635.951 837.352 636.576 837.646 637.125C837.94 637.674 838.361 638.105 838.91 638.418C839.459 638.73 840.122 638.886 840.899 638.886C841.439 638.886 841.931 638.811 842.376 638.659C842.831 638.508 843.219 638.29 843.541 638.006C843.863 637.712 844.1 637.362 844.251 636.955H851.41C851.164 638.47 850.582 639.786 849.663 640.903C848.744 642.011 847.528 642.873 846.012 643.489C844.507 644.095 842.745 644.398 840.728 644.398Z" fill="#9D3207"/>
</g>
<defs>
<clipPath id="clip0_1253_458">
<rect width="1372" height="750" fill="white"/>
</clipPath>
</defs>
</svg>
