<svg width="268" height="60" viewBox="0 0 268 60" fill="none" xmlns="http://www.w3.org/2000/svg">
<path d="M80.5455 41.5H73.7273L81.4091 18.2273H90.0455L97.7273 41.5H90.9091L85.8182 24.6364H85.6364L80.5455 41.5ZM79.2727 32.3182H92.0909V37.0455H79.2727V32.3182ZM99.9688 41.5V18.2273H110.014C111.741 18.2273 113.253 18.5417 114.548 19.1705C115.844 19.7993 116.851 20.7046 117.571 21.8864C118.291 23.0682 118.651 24.4849 118.651 26.1364C118.651 27.803 118.279 29.2083 117.537 30.3523C116.802 31.4962 115.768 32.3599 114.435 32.9432C113.109 33.5265 111.56 33.8182 109.787 33.8182H103.787V28.9091H108.514C109.257 28.9091 109.889 28.8182 110.412 28.6364C110.942 28.447 111.348 28.1477 111.628 27.7387C111.916 27.3296 112.06 26.7955 112.06 26.1364C112.06 25.4697 111.916 24.928 111.628 24.5114C111.348 24.0871 110.942 23.7765 110.412 23.5796C109.889 23.375 109.257 23.2727 108.514 23.2727H106.287V41.5H99.9688ZM113.605 30.8182L119.423 41.5H112.56L106.878 30.8182H113.605ZM120.707 23.3182V18.2273H140.935V23.3182H133.935V41.5H127.707V23.3182H120.707ZM143.312 41.5V18.2273H160.085V23.3182H149.631V27.3182H159.222V32.4091H149.631V36.4091H160.04V41.5H143.312ZM175.764 25.5C175.704 24.7424 175.42 24.1515 174.912 23.7273C174.412 23.303 173.651 23.0909 172.628 23.0909C171.976 23.0909 171.442 23.1705 171.026 23.3296C170.616 23.4811 170.313 23.6894 170.116 23.9546C169.92 24.2197 169.817 24.5227 169.81 24.8637C169.795 25.144 169.844 25.3977 169.957 25.625C170.079 25.8447 170.268 26.0455 170.526 26.2273C170.783 26.4015 171.113 26.5606 171.514 26.7046C171.916 26.8485 172.393 26.9773 172.946 27.0909L174.855 27.5C176.143 27.7727 177.245 28.1326 178.162 28.5796C179.079 29.0265 179.829 29.553 180.412 30.1591C180.995 30.7576 181.423 31.4318 181.696 32.1818C181.976 32.9318 182.12 33.75 182.128 34.6364C182.12 36.1667 181.738 37.4621 180.98 38.5227C180.223 39.5833 179.139 40.3902 177.73 40.9432C176.329 41.4962 174.643 41.7727 172.673 41.7727C170.651 41.7727 168.885 41.4735 167.378 40.875C165.878 40.2765 164.711 39.3561 163.878 38.1137C163.052 36.8637 162.635 35.2652 162.628 33.3182H168.628C168.666 34.0303 168.844 34.6288 169.162 35.1137C169.48 35.5985 169.927 35.9659 170.503 36.2159C171.086 36.4659 171.779 36.5909 172.582 36.5909C173.257 36.5909 173.821 36.5076 174.276 36.3409C174.73 36.1743 175.075 35.9432 175.31 35.6477C175.545 35.3523 175.666 35.0152 175.673 34.6364C175.666 34.2803 175.548 33.9697 175.321 33.7046C175.101 33.4318 174.738 33.1894 174.23 32.9773C173.723 32.7576 173.037 32.553 172.173 32.3637L169.855 31.8637C167.795 31.4167 166.17 30.6705 164.98 29.625C163.798 28.572 163.211 27.1364 163.219 25.3182C163.211 23.8409 163.605 22.5493 164.401 21.4432C165.204 20.3296 166.313 19.4621 167.73 18.8409C169.154 18.2197 170.787 17.9091 172.628 17.9091C174.507 17.9091 176.132 18.2235 177.503 18.8523C178.874 19.4811 179.931 20.3674 180.673 21.5114C181.423 22.6477 181.802 23.9773 181.81 25.5H175.764ZM189.67 41.5H182.852L190.534 18.2273H199.17L206.852 41.5H200.034L194.943 24.6364H194.761L189.67 41.5ZM188.398 32.3182H201.216V37.0455H188.398V32.3182ZM229.23 18.2273V41.5H223.957L215.548 29.2727H215.412V41.5H209.094V18.2273H214.457L222.73 30.4091H222.912V18.2273H229.23ZM238.537 18.2273V41.5H232.219V18.2273H238.537ZM247.577 41.5H240.759L248.44 18.2273H257.077L264.759 41.5H257.94L252.849 24.6364H252.668L247.577 41.5ZM246.304 32.3182H259.122V37.0455H246.304V32.3182Z" fill="#9D3207"/>
<path d="M30.3375 0.641904C29.9589 1.61211 30.9684 2.54014 32.3987 2.54014C37.3624 2.54014 44.5557 5.99914 49.0988 10.5549C62.6439 24.1378 58.4794 46.4526 40.896 54.6783C36.8997 56.5343 33.6607 57.0827 28.4024 56.8718C21.083 56.5343 15.5303 54.0877 10.3983 48.9414C6.02346 44.5122 3.24712 38.8597 2.57406 32.954C2.2796 30.0856 1.56449 29.1154 0.470777 30.0012C-0.959458 31.1824 1.0597 39.7455 3.96223 44.6809C7.83228 51.2193 13.3429 55.6063 21.1251 58.2638C23.6911 59.1497 24.8268 59.2762 29.7485 59.234C34.6702 59.234 35.8481 59.0653 38.6665 58.1373C43.5882 56.4921 47.2479 54.2564 50.8235 50.6709C61.9288 39.5346 62.5178 22.0708 52.2537 10.0065C50.0242 7.43336 45.7335 4.18527 42.4945 2.66669C37.3624 0.30444 30.8843 -0.792316 30.3375 0.641904Z" fill="#9D3207"/>
<path d="M30.5906 5.28214C29.7913 6.25234 30.4223 7.096 32.147 7.39129C37.9942 8.40368 41.6539 10.1754 45.3557 13.8875C56.8817 25.4456 53.0537 44.1327 37.868 50.5445C33.3669 52.4427 27.1833 52.4849 22.0512 50.671C19.9059 49.9539 16.9613 48.1822 14.0587 45.9044C13.0071 45.0607 12.8388 45.0185 12.2499 45.6513C11.4086 46.4949 11.7451 47.1277 14.1429 49.1525C18.5177 52.7802 23.818 54.5941 29.9596 54.5519C37.1949 54.5097 43.3365 51.8522 48.2162 46.6215C53.4744 40.969 55.788 33.0807 54.3998 25.4456C52.8013 16.3341 45.8605 8.44586 37.3211 5.91488C33.1987 4.73376 31.2216 4.52284 30.5906 5.28214Z" fill="#9D3207"/>
<path d="M30.632 10.3019C29.7066 11.3986 30.3796 12.0736 32.8615 12.5797C38.4142 13.7187 42.8732 17.0933 45.2709 21.9865C50.4871 32.6588 43.9669 45.145 32.2726 46.9589C29.2859 47.4229 28.3605 48.14 29.4121 49.2367C30.2534 50.0382 34.7545 49.1946 38.3721 47.5072C51.3284 41.5173 53.3055 22.9989 41.9477 14.0562C38.1197 11.0612 31.7678 8.95202 30.632 10.3019Z" fill="#9D3207"/>
<path d="M27.7291 17.3893C23.6067 18.0221 20.5779 20.2578 18.4746 24.2652C17.5492 26.0369 17.3389 26.9227 17.3389 29.7489C17.3389 32.5752 17.5492 33.461 18.4746 35.2749C20.9145 39.915 25.3314 42.4038 30.5055 42.1085C41.0219 41.518 46.1119 29.3271 39.171 21.5655C35.974 18.0221 32.3984 16.7144 27.7291 17.3893Z" fill="#9D3207"/>
</svg>
