<svg width="44" height="30" viewBox="0 0 44 30" fill="none" xmlns="http://www.w3.org/2000/svg">
<path d="M8.41903 24.8864V6.13636H11.6009V24.8864H8.41903ZM0.634943 17.1023V13.9205H19.3849V17.1023H0.634943ZM24.8395 30V27.4432L34.4418 16.9318C35.5687 15.7008 36.4967 14.6307 37.2259 13.7216C37.955 12.803 38.4948 11.9413 38.8452 11.1364C39.205 10.322 39.3849 9.4697 39.3849 8.57955C39.3849 7.55682 39.1387 6.6714 38.6463 5.9233C38.1634 5.17519 37.5005 4.59754 36.6577 4.19034C35.8149 3.78314 34.8679 3.57955 33.8168 3.57955C32.6993 3.57955 31.724 3.81155 30.8906 4.27557C30.0668 4.73011 29.4276 5.36932 28.973 6.19318C28.5279 7.01705 28.3054 7.98295 28.3054 9.09091H24.9531C24.9531 7.38636 25.3461 5.89015 26.1321 4.60227C26.9181 3.31439 27.9882 2.3106 29.3423 1.59091C30.706 0.871211 32.2353 0.511363 33.9304 0.511363C35.6349 0.511363 37.1454 0.871211 38.4616 1.59091C39.7779 2.3106 40.8101 3.28125 41.5582 4.50284C42.3063 5.72443 42.6804 7.08333 42.6804 8.57955C42.6804 9.64962 42.4863 10.696 42.098 11.7188C41.7192 12.732 41.0563 13.8636 40.1094 15.1136C39.1719 16.3542 37.8698 17.8693 36.2031 19.6591L29.669 26.6477V26.875H43.1918V30H24.8395Z" fill="white"/>
</svg>
