<svg width="133" height="133" viewBox="0 0 133 133" fill="none" xmlns="http://www.w3.org/2000/svg">
<path d="M52.533 7.2391C59.343 -2.41303 73.657 -2.41303 80.467 7.2391L80.9046 7.85928C84.7088 13.2512 91.277 15.9719 97.7797 14.8492L98.5276 14.7201C110.168 12.7104 120.29 22.8319 118.28 34.4724L118.151 35.2203C117.028 41.723 119.749 48.2912 125.141 52.0954L125.761 52.533C135.413 59.343 135.413 73.657 125.761 80.467L125.141 80.9046C119.749 84.7088 117.028 91.277 118.151 97.7797L118.28 98.5276C120.29 110.168 110.168 120.29 98.5276 118.28L97.7797 118.151C91.277 117.028 84.7088 119.749 80.9046 125.141L80.467 125.761C73.657 135.413 59.343 135.413 52.533 125.761L52.0954 125.141C48.2912 119.749 41.723 117.028 35.2203 118.151L34.4724 118.28C22.8319 120.29 12.7104 110.168 14.7201 98.5276L14.8492 97.7797C15.9719 91.277 13.2512 84.7088 7.85928 80.9046L7.2391 80.467C-2.41303 73.657 -2.41303 59.343 7.2391 52.533L7.85928 52.0954C13.2512 48.2912 15.9719 41.723 14.8492 35.2203L14.7201 34.4724C12.7104 22.8319 22.8319 12.7104 34.4724 14.7201L35.2203 14.8492C41.723 15.9719 48.2912 13.2512 52.0954 7.85928L52.533 7.2391Z" fill="#C8E6C9"/>
<rect width="91" height="91" transform="translate(21 21)" fill="#C8E6C9"/>
<path d="M55.1133 89.3022H55.1083C54.085 89.297 53.1061 88.8872 52.3841 88.1549L52.3836 88.1545L37.2175 72.7533L55.1133 89.3022ZM55.1133 89.3022H55.1133H55.1134H55.1134H55.1135H55.1135H55.1136H55.1136H55.1136H55.1137H55.1137H55.1138H55.1138H55.1139H55.1139H55.114H55.114H55.114H55.1141H55.1141H55.1142H55.1142H55.1143H55.1143H55.1144H55.1144H55.1144H55.1145H55.1145H55.1146H55.1146H55.1147H55.1147H55.1148H55.1148H55.1148H55.1149H55.1149H55.115H55.115H55.1151H55.1151H55.1152H55.1152H55.1152H55.1153H55.1153H55.1154H55.1154H55.1155H55.1155H55.1156H55.1156H55.1156H55.1157H55.1157H55.1158H55.1158H55.1159H55.1159H55.116H55.116H55.116H55.1161H55.1161H55.1162H55.1162H55.1163H55.1163H55.1164H55.1164H55.1164H55.1165H55.1165H55.1166H55.1166H55.1167H55.1167H55.1168H55.1168H55.1168H55.1169H55.1169H55.117H55.117H55.1171H55.1171H55.1172H55.1172H55.1172H55.1173H55.1173H55.1174H55.1174H55.1175H55.1175H55.1176H55.1176H55.1176H55.1177H55.1177H55.1178H55.1178H55.1179H55.1179H55.118H55.118H55.118H55.1181H55.1181H55.1182H55.1182H55.1183H55.1183H55.1184H55.1184H55.1185H55.1185H55.1185H55.1186H55.1186H55.1187H55.1187H55.1188H55.1188H55.1189H55.1189H55.1189H55.119H55.119H55.1191H55.1191H55.1192H55.1192H55.1193H55.1193H55.1193H55.1194H55.1194H55.1195H55.1195H55.1196H55.1196H55.1197H55.1197H55.1197H55.1198H55.1198H55.1199H55.1199H55.12H55.12H55.1201H55.1201H55.1201H55.1202H55.1202H55.1203H55.1203H55.1204H55.1204H55.1205H55.1205H55.1205H55.1206H55.1206H55.1207H55.1207H55.1208H55.1208H55.1209H55.1209H55.1209H55.121H55.121H55.1211H55.1211H55.1212H55.1212H55.1213H55.1213H55.1213H55.1214H55.1214H55.1215H55.1215H55.1216H55.1216H55.1217H55.1217H55.1217H55.1218H55.1218H55.1219H55.1219H55.122H55.122H55.1221H55.1221H55.1221H55.1222H55.1222H55.1223H55.1223H55.1224H55.1224H55.1225H55.1225H55.1226H55.1226H55.1226H55.1227H55.1227H55.1228H55.1228H55.1229H55.1229H55.123H55.123H55.123H55.1231H55.1231H55.1232H55.1232H55.1233H55.1233H55.1234H55.1234H55.1234H55.1235H55.1235H55.1236H55.1236H55.1237H55.1237H55.1238H55.1238H55.1238H55.1239H55.1239H55.124H55.124H55.1241H55.1241H55.1242H55.1242H55.1242H55.1243H55.1243H55.1244H55.1244H55.1245H55.1245H55.1246H55.1246H55.1246H55.1247C56.1429 89.3022 57.1225 88.8984 57.8424 88.1742C57.8429 88.1737 57.8434 88.1732 57.8439 88.1727L95.758 50.2585C97.2595 48.7571 97.2595 46.3227 95.758 44.8212C94.2566 43.3198 91.8223 43.3198 90.3208 44.8212L55.1417 80.0005L42.6959 67.3575C42.6957 67.3573 42.6956 67.3572 42.6955 67.3571C41.2068 65.8432 38.7691 65.8303 37.2588 67.3151L37.2575 67.3163M55.1133 89.3022L37.2575 67.3163M37.2575 67.3163C35.7474 68.806 35.725 71.2396 37.2169 72.7527L37.2575 67.3163Z" fill="#43A048" stroke="#43A048" stroke-width="2"/>
</svg>